<svg xmlns="http://www.w3.org/2000/svg" width="1910" height="1000"><defs><clipPath id="a"><path d="M423.578 363.7H562.86v46.507H423.58Zm0 0"/></clipPath><clipPath id="b"><path d="M241.746 288.695h149.008v196.516H241.746Zm0 0"/></clipPath><clipPath id="c"><path d="M245 288.695h145.754v196.516H245Zm0 0"/></clipPath><clipPath id="d"><path d="M257 288.695h133.754v196.516H257Zm0 0"/></clipPath><clipPath id="e"><path d="M270 288.695h120.754v196.516H270Zm0 0"/></clipPath><clipPath id="f"><path d="M282 288.695h108.754v196.516H282Zm0 0"/></clipPath><clipPath id="g"><path d="M295 288.695h95.754v196.516H295Zm0 0"/></clipPath><clipPath id="h"><path d="M307 288.695h83.754v196.516H307Zm0 0"/></clipPath><clipPath id="i"><path d="M200 181h405v73H200Zm0 0"/></clipPath><clipPath id="j"><path d="M566.93 181.938H237.68c-20.7-.004-37.477 16.796-37.477 37.523v33.894h404.2v-33.894c0-20.723-16.778-37.524-37.473-37.524Zm-312.762 49.117c-6.414 0-11.617-5.207-11.617-11.633 0-6.422 5.203-11.633 11.617-11.633 6.414 0 11.617 5.211 11.617 11.633 0 6.426-5.203 11.633-11.617 11.633Zm53.61 0c-6.415 0-11.618-5.207-11.618-11.633 0-6.422 5.203-11.633 11.617-11.633 6.414 0 11.618 5.211 11.618 11.633-.004 6.426-5.204 11.633-11.618 11.633Zm53.613 0c-6.418 0-11.618-5.207-11.618-11.633-.003-6.422 5.2-11.633 11.614-11.633 6.418 0 11.617 5.211 11.617 11.633 0 6.426-5.2 11.633-11.613 11.633Zm0 0"/></clipPath><clipPath id="k"><path d="M207 181h398v73H207Zm0 0"/></clipPath><clipPath id="l"><path d="M566.93 181.938H237.68c-20.7-.004-37.477 16.796-37.477 37.523v33.894h404.2v-33.894c0-20.723-16.778-37.524-37.473-37.524Zm-312.762 49.117c-6.414 0-11.617-5.207-11.617-11.633 0-6.422 5.203-11.633 11.617-11.633 6.414 0 11.617 5.211 11.617 11.633 0 6.426-5.203 11.633-11.617 11.633Zm53.61 0c-6.415 0-11.618-5.207-11.618-11.633 0-6.422 5.203-11.633 11.617-11.633 6.414 0 11.618 5.211 11.618 11.633-.004 6.426-5.204 11.633-11.618 11.633Zm53.613 0c-6.418 0-11.618-5.207-11.618-11.633-.003-6.422 5.2-11.633 11.614-11.633 6.418 0 11.617 5.211 11.617 11.633 0 6.426-5.2 11.633-11.613 11.633Zm0 0"/></clipPath><clipPath id="m"><path d="M220 181h385v73H220Zm0 0"/></clipPath><clipPath id="n"><path d="M566.93 181.938H237.68c-20.7-.004-37.477 16.796-37.477 37.523v33.894h404.2v-33.894c0-20.723-16.778-37.524-37.473-37.524Zm-312.762 49.117c-6.414 0-11.617-5.207-11.617-11.633 0-6.422 5.203-11.633 11.617-11.633 6.414 0 11.617 5.211 11.617 11.633 0 6.426-5.203 11.633-11.617 11.633Zm53.61 0c-6.415 0-11.618-5.207-11.618-11.633 0-6.422 5.203-11.633 11.617-11.633 6.414 0 11.618 5.211 11.618 11.633-.004 6.426-5.204 11.633-11.618 11.633Zm53.613 0c-6.418 0-11.618-5.207-11.618-11.633-.003-6.422 5.2-11.633 11.614-11.633 6.418 0 11.617 5.211 11.617 11.633 0 6.426-5.2 11.633-11.613 11.633Zm0 0"/></clipPath><clipPath id="o"><path d="M232 181h373v73H232Zm0 0"/></clipPath><clipPath id="p"><path d="M566.93 181.938H237.68c-20.7-.004-37.477 16.796-37.477 37.523v33.894h404.2v-33.894c0-20.723-16.778-37.524-37.473-37.524Zm-312.762 49.117c-6.414 0-11.617-5.207-11.617-11.633 0-6.422 5.203-11.633 11.617-11.633 6.414 0 11.617 5.211 11.617 11.633 0 6.426-5.203 11.633-11.617 11.633Zm53.61 0c-6.415 0-11.618-5.207-11.618-11.633 0-6.422 5.203-11.633 11.617-11.633 6.414 0 11.618 5.211 11.618 11.633-.004 6.426-5.204 11.633-11.618 11.633Zm53.613 0c-6.418 0-11.618-5.207-11.618-11.633-.003-6.422 5.2-11.633 11.614-11.633 6.418 0 11.617 5.211 11.617 11.633 0 6.426-5.2 11.633-11.613 11.633Zm0 0"/></clipPath><clipPath id="q"><path d="M245 181h360v73H245Zm0 0"/></clipPath><clipPath id="r"><path d="M566.93 181.938H237.68c-20.7-.004-37.477 16.796-37.477 37.523v33.894h404.2v-33.894c0-20.723-16.778-37.524-37.473-37.524Zm-312.762 49.117c-6.414 0-11.617-5.207-11.617-11.633 0-6.422 5.203-11.633 11.617-11.633 6.414 0 11.617 5.211 11.617 11.633 0 6.426-5.203 11.633-11.617 11.633Zm53.61 0c-6.415 0-11.618-5.207-11.618-11.633 0-6.422 5.203-11.633 11.617-11.633 6.414 0 11.618 5.211 11.618 11.633-.004 6.426-5.204 11.633-11.618 11.633Zm53.613 0c-6.418 0-11.618-5.207-11.618-11.633-.003-6.422 5.2-11.633 11.614-11.633 6.418 0 11.617 5.211 11.617 11.633 0 6.426-5.2 11.633-11.613 11.633Zm0 0"/></clipPath><clipPath id="s"><path d="M257 181h348v73H257Zm0 0"/></clipPath><clipPath id="t"><path d="M566.93 181.938H237.68c-20.7-.004-37.477 16.796-37.477 37.523v33.894h404.2v-33.894c0-20.723-16.778-37.524-37.473-37.524Zm-312.762 49.117c-6.414 0-11.617-5.207-11.617-11.633 0-6.422 5.203-11.633 11.617-11.633 6.414 0 11.617 5.211 11.617 11.633 0 6.426-5.203 11.633-11.617 11.633Zm53.61 0c-6.415 0-11.618-5.207-11.618-11.633 0-6.422 5.203-11.633 11.617-11.633 6.414 0 11.618 5.211 11.618 11.633-.004 6.426-5.204 11.633-11.618 11.633Zm53.613 0c-6.418 0-11.618-5.207-11.618-11.633-.003-6.422 5.2-11.633 11.614-11.633 6.418 0 11.617 5.211 11.617 11.633 0 6.426-5.2 11.633-11.613 11.633Zm0 0"/></clipPath><clipPath id="u"><path d="M270 181h335v73H270Zm0 0"/></clipPath><clipPath id="v"><path d="M566.93 181.938H237.68c-20.7-.004-37.477 16.796-37.477 37.523v33.894h404.2v-33.894c0-20.723-16.778-37.524-37.473-37.524Zm-312.762 49.117c-6.414 0-11.617-5.207-11.617-11.633 0-6.422 5.203-11.633 11.617-11.633 6.414 0 11.617 5.211 11.617 11.633 0 6.426-5.203 11.633-11.617 11.633Zm53.61 0c-6.415 0-11.618-5.207-11.618-11.633 0-6.422 5.203-11.633 11.617-11.633 6.414 0 11.618 5.211 11.618 11.633-.004 6.426-5.204 11.633-11.618 11.633Zm53.613 0c-6.418 0-11.618-5.207-11.618-11.633-.003-6.422 5.2-11.633 11.614-11.633 6.418 0 11.617 5.211 11.617 11.633 0 6.426-5.2 11.633-11.613 11.633Zm0 0"/></clipPath><clipPath id="w"><path d="M282 181h323v73H282Zm0 0"/></clipPath><clipPath id="x"><path d="M566.93 181.938H237.68c-20.7-.004-37.477 16.796-37.477 37.523v33.894h404.2v-33.894c0-20.723-16.778-37.524-37.473-37.524Zm-312.762 49.117c-6.414 0-11.617-5.207-11.617-11.633 0-6.422 5.203-11.633 11.617-11.633 6.414 0 11.617 5.211 11.617 11.633 0 6.426-5.203 11.633-11.617 11.633Zm53.61 0c-6.415 0-11.618-5.207-11.618-11.633 0-6.422 5.203-11.633 11.617-11.633 6.414 0 11.618 5.211 11.618 11.633-.004 6.426-5.204 11.633-11.618 11.633Zm53.613 0c-6.418 0-11.618-5.207-11.618-11.633-.003-6.422 5.2-11.633 11.614-11.633 6.418 0 11.617 5.211 11.617 11.633 0 6.426-5.2 11.633-11.613 11.633Zm0 0"/></clipPath><clipPath id="y"><path d="M295 181h310v73H295Zm0 0"/></clipPath><clipPath id="z"><path d="M566.93 181.938H237.68c-20.7-.004-37.477 16.796-37.477 37.523v33.894h404.2v-33.894c0-20.723-16.778-37.524-37.473-37.524Zm-312.762 49.117c-6.414 0-11.617-5.207-11.617-11.633 0-6.422 5.203-11.633 11.617-11.633 6.414 0 11.617 5.211 11.617 11.633 0 6.426-5.203 11.633-11.617 11.633Zm53.61 0c-6.415 0-11.618-5.207-11.618-11.633 0-6.422 5.203-11.633 11.617-11.633 6.414 0 11.618 5.211 11.618 11.633-.004 6.426-5.204 11.633-11.618 11.633Zm53.613 0c-6.418 0-11.618-5.207-11.618-11.633-.003-6.422 5.2-11.633 11.614-11.633 6.418 0 11.617 5.211 11.617 11.633 0 6.426-5.2 11.633-11.613 11.633Zm0 0"/></clipPath><clipPath id="A"><path d="M306 181h299v73H306Zm0 0"/></clipPath><clipPath id="B"><path d="M566.93 181.938H237.68c-20.7-.004-37.477 16.796-37.477 37.523v33.894h404.2v-33.894c0-20.723-16.778-37.524-37.473-37.524Zm-312.762 49.117c-6.414 0-11.617-5.207-11.617-11.633 0-6.422 5.203-11.633 11.617-11.633 6.414 0 11.617 5.211 11.617 11.633 0 6.426-5.203 11.633-11.617 11.633Zm53.61 0c-6.415 0-11.618-5.207-11.618-11.633 0-6.422 5.203-11.633 11.617-11.633 6.414 0 11.618 5.211 11.618 11.633-.004 6.426-5.204 11.633-11.618 11.633Zm53.613 0c-6.418 0-11.618-5.207-11.618-11.633-.003-6.422 5.2-11.633 11.614-11.633 6.418 0 11.617 5.211 11.617 11.633 0 6.426-5.2 11.633-11.613 11.633Zm0 0"/></clipPath><clipPath id="C"><path d="M319 181h286v73H319Zm0 0"/></clipPath><clipPath id="D"><path d="M566.93 181.938H237.68c-20.7-.004-37.477 16.796-37.477 37.523v33.894h404.2v-33.894c0-20.723-16.778-37.524-37.473-37.524Zm-312.762 49.117c-6.414 0-11.617-5.207-11.617-11.633 0-6.422 5.203-11.633 11.617-11.633 6.414 0 11.617 5.211 11.617 11.633 0 6.426-5.203 11.633-11.617 11.633Zm53.61 0c-6.415 0-11.618-5.207-11.618-11.633 0-6.422 5.203-11.633 11.617-11.633 6.414 0 11.618 5.211 11.618 11.633-.004 6.426-5.204 11.633-11.618 11.633Zm53.613 0c-6.418 0-11.618-5.207-11.618-11.633-.003-6.422 5.2-11.633 11.614-11.633 6.418 0 11.617 5.211 11.617 11.633 0 6.426-5.2 11.633-11.613 11.633Zm0 0"/></clipPath><clipPath id="E"><path d="M331 181h274v73H331Zm0 0"/></clipPath><clipPath id="F"><path d="M566.93 181.938H237.68c-20.7-.004-37.477 16.796-37.477 37.523v33.894h404.2v-33.894c0-20.723-16.778-37.524-37.473-37.524Zm-312.762 49.117c-6.414 0-11.617-5.207-11.617-11.633 0-6.422 5.203-11.633 11.617-11.633 6.414 0 11.617 5.211 11.617 11.633 0 6.426-5.203 11.633-11.617 11.633Zm53.61 0c-6.415 0-11.618-5.207-11.618-11.633 0-6.422 5.203-11.633 11.617-11.633 6.414 0 11.618 5.211 11.618 11.633-.004 6.426-5.204 11.633-11.618 11.633Zm53.613 0c-6.418 0-11.618-5.207-11.618-11.633-.003-6.422 5.2-11.633 11.614-11.633 6.418 0 11.617 5.211 11.617 11.633 0 6.426-5.2 11.633-11.613 11.633Zm0 0"/></clipPath><clipPath id="G"><path d="M344 181h261v73H344Zm0 0"/></clipPath><clipPath id="H"><path d="M566.93 181.938H237.68c-20.7-.004-37.477 16.796-37.477 37.523v33.894h404.2v-33.894c0-20.723-16.778-37.524-37.473-37.524Zm-312.762 49.117c-6.414 0-11.617-5.207-11.617-11.633 0-6.422 5.203-11.633 11.617-11.633 6.414 0 11.617 5.211 11.617 11.633 0 6.426-5.203 11.633-11.617 11.633Zm53.61 0c-6.415 0-11.618-5.207-11.618-11.633 0-6.422 5.203-11.633 11.617-11.633 6.414 0 11.618 5.211 11.618 11.633-.004 6.426-5.204 11.633-11.618 11.633Zm53.613 0c-6.418 0-11.618-5.207-11.618-11.633-.003-6.422 5.2-11.633 11.614-11.633 6.418 0 11.617 5.211 11.617 11.633 0 6.426-5.2 11.633-11.613 11.633Zm0 0"/></clipPath><clipPath id="I"><path d="M356 181h249v73H356Zm0 0"/></clipPath><clipPath id="J"><path d="M566.93 181.938H237.68c-20.7-.004-37.477 16.796-37.477 37.523v33.894h404.2v-33.894c0-20.723-16.778-37.524-37.473-37.524Zm-312.762 49.117c-6.414 0-11.617-5.207-11.617-11.633 0-6.422 5.203-11.633 11.617-11.633 6.414 0 11.617 5.211 11.617 11.633 0 6.426-5.203 11.633-11.617 11.633Zm53.61 0c-6.415 0-11.618-5.207-11.618-11.633 0-6.422 5.203-11.633 11.617-11.633 6.414 0 11.618 5.211 11.618 11.633-.004 6.426-5.204 11.633-11.618 11.633Zm53.613 0c-6.418 0-11.618-5.207-11.618-11.633-.003-6.422 5.2-11.633 11.614-11.633 6.418 0 11.617 5.211 11.617 11.633 0 6.426-5.2 11.633-11.613 11.633Zm0 0"/></clipPath><clipPath id="K"><path d="M369 181h236v73H369Zm0 0"/></clipPath><clipPath id="L"><path d="M566.93 181.938H237.68c-20.7-.004-37.477 16.796-37.477 37.523v33.894h404.2v-33.894c0-20.723-16.778-37.524-37.473-37.524Zm-312.762 49.117c-6.414 0-11.617-5.207-11.617-11.633 0-6.422 5.203-11.633 11.617-11.633 6.414 0 11.617 5.211 11.617 11.633 0 6.426-5.203 11.633-11.617 11.633Zm53.61 0c-6.415 0-11.618-5.207-11.618-11.633 0-6.422 5.203-11.633 11.617-11.633 6.414 0 11.618 5.211 11.618 11.633-.004 6.426-5.204 11.633-11.618 11.633Zm53.613 0c-6.418 0-11.618-5.207-11.618-11.633-.003-6.422 5.2-11.633 11.614-11.633 6.418 0 11.617 5.211 11.617 11.633 0 6.426-5.2 11.633-11.613 11.633Zm0 0"/></clipPath><clipPath id="M"><path d="M381 181h224v73H381Zm0 0"/></clipPath><clipPath id="N"><path d="M566.93 181.938H237.68c-20.7-.004-37.477 16.796-37.477 37.523v33.894h404.2v-33.894c0-20.723-16.778-37.524-37.473-37.524Zm-312.762 49.117c-6.414 0-11.617-5.207-11.617-11.633 0-6.422 5.203-11.633 11.617-11.633 6.414 0 11.617 5.211 11.617 11.633 0 6.426-5.203 11.633-11.617 11.633Zm53.61 0c-6.415 0-11.618-5.207-11.618-11.633 0-6.422 5.203-11.633 11.617-11.633 6.414 0 11.618 5.211 11.618 11.633-.004 6.426-5.204 11.633-11.618 11.633Zm53.613 0c-6.418 0-11.618-5.207-11.618-11.633-.003-6.422 5.2-11.633 11.614-11.633 6.418 0 11.617 5.211 11.617 11.633 0 6.426-5.2 11.633-11.613 11.633Zm0 0"/></clipPath><clipPath id="O"><path d="M393 181h212v73H393Zm0 0"/></clipPath><clipPath id="P"><path d="M566.93 181.938H237.68c-20.7-.004-37.477 16.796-37.477 37.523v33.894h404.2v-33.894c0-20.723-16.778-37.524-37.473-37.524Zm-312.762 49.117c-6.414 0-11.617-5.207-11.617-11.633 0-6.422 5.203-11.633 11.617-11.633 6.414 0 11.617 5.211 11.617 11.633 0 6.426-5.203 11.633-11.617 11.633Zm53.61 0c-6.415 0-11.618-5.207-11.618-11.633 0-6.422 5.203-11.633 11.617-11.633 6.414 0 11.618 5.211 11.618 11.633-.004 6.426-5.204 11.633-11.618 11.633Zm53.613 0c-6.418 0-11.618-5.207-11.618-11.633-.003-6.422 5.2-11.633 11.614-11.633 6.418 0 11.617 5.211 11.617 11.633 0 6.426-5.2 11.633-11.613 11.633Zm0 0"/></clipPath><clipPath id="Q"><path d="M406 181h199v73H406Zm0 0"/></clipPath><clipPath id="R"><path d="M566.93 181.938H237.68c-20.7-.004-37.477 16.796-37.477 37.523v33.894h404.2v-33.894c0-20.723-16.778-37.524-37.473-37.524Zm-312.762 49.117c-6.414 0-11.617-5.207-11.617-11.633 0-6.422 5.203-11.633 11.617-11.633 6.414 0 11.617 5.211 11.617 11.633 0 6.426-5.203 11.633-11.617 11.633Zm53.61 0c-6.415 0-11.618-5.207-11.618-11.633 0-6.422 5.203-11.633 11.617-11.633 6.414 0 11.618 5.211 11.618 11.633-.004 6.426-5.204 11.633-11.618 11.633Zm53.613 0c-6.418 0-11.618-5.207-11.618-11.633-.003-6.422 5.2-11.633 11.614-11.633 6.418 0 11.617 5.211 11.617 11.633 0 6.426-5.2 11.633-11.613 11.633Zm0 0"/></clipPath><clipPath id="S"><path d="M418 181h187v73H418Zm0 0"/></clipPath><clipPath id="T"><path d="M566.93 181.938H237.68c-20.7-.004-37.477 16.796-37.477 37.523v33.894h404.2v-33.894c0-20.723-16.778-37.524-37.473-37.524Zm-312.762 49.117c-6.414 0-11.617-5.207-11.617-11.633 0-6.422 5.203-11.633 11.617-11.633 6.414 0 11.617 5.211 11.617 11.633 0 6.426-5.203 11.633-11.617 11.633Zm53.61 0c-6.415 0-11.618-5.207-11.618-11.633 0-6.422 5.203-11.633 11.617-11.633 6.414 0 11.618 5.211 11.618 11.633-.004 6.426-5.204 11.633-11.618 11.633Zm53.613 0c-6.418 0-11.618-5.207-11.618-11.633-.003-6.422 5.2-11.633 11.614-11.633 6.418 0 11.617 5.211 11.617 11.633 0 6.426-5.2 11.633-11.613 11.633Zm0 0"/></clipPath><clipPath id="U"><path d="M431 181h174v73H431Zm0 0"/></clipPath><clipPath id="V"><path d="M566.93 181.938H237.68c-20.7-.004-37.477 16.796-37.477 37.523v33.894h404.2v-33.894c0-20.723-16.778-37.524-37.473-37.524Zm-312.762 49.117c-6.414 0-11.617-5.207-11.617-11.633 0-6.422 5.203-11.633 11.617-11.633 6.414 0 11.617 5.211 11.617 11.633 0 6.426-5.203 11.633-11.617 11.633Zm53.61 0c-6.415 0-11.618-5.207-11.618-11.633 0-6.422 5.203-11.633 11.617-11.633 6.414 0 11.618 5.211 11.618 11.633-.004 6.426-5.204 11.633-11.618 11.633Zm53.613 0c-6.418 0-11.618-5.207-11.618-11.633-.003-6.422 5.2-11.633 11.614-11.633 6.418 0 11.617 5.211 11.617 11.633 0 6.426-5.2 11.633-11.613 11.633Zm0 0"/></clipPath><clipPath id="W"><path d="M443 181h162v73H443Zm0 0"/></clipPath><clipPath id="X"><path d="M566.93 181.938H237.68c-20.7-.004-37.477 16.796-37.477 37.523v33.894h404.2v-33.894c0-20.723-16.778-37.524-37.473-37.524Zm-312.762 49.117c-6.414 0-11.617-5.207-11.617-11.633 0-6.422 5.203-11.633 11.617-11.633 6.414 0 11.617 5.211 11.617 11.633 0 6.426-5.203 11.633-11.617 11.633Zm53.61 0c-6.415 0-11.618-5.207-11.618-11.633 0-6.422 5.203-11.633 11.617-11.633 6.414 0 11.618 5.211 11.618 11.633-.004 6.426-5.204 11.633-11.618 11.633Zm53.613 0c-6.418 0-11.618-5.207-11.618-11.633-.003-6.422 5.2-11.633 11.614-11.633 6.418 0 11.617 5.211 11.617 11.633 0 6.426-5.2 11.633-11.613 11.633Zm0 0"/></clipPath><clipPath id="Y"><path d="M755 183h383v193H755Zm0 0"/></clipPath><clipPath id="Z"><path d="m993.137 275.684 140.375-69.196-44.367-23.156-142.883 68.48-142.89-68.48-44.368 23.156 140.383 69.196-144.356 72.273 50.985 27.188 140.246-70.286 140.238 70.286 50.984-27.188Zm0 0"/></clipPath><clipPath id="aa"><path d="M768 183h370v193H768Zm0 0"/></clipPath><clipPath id="ab"><path d="m993.137 275.684 140.375-69.196-44.367-23.156-142.883 68.48-142.89-68.48-44.368 23.156 140.383 69.196-144.356 72.273 50.985 27.188 140.246-70.286 140.238 70.286 50.984-27.188Zm0 0"/></clipPath><clipPath id="ac"><path d="M780 183h358v193H780Zm0 0"/></clipPath><clipPath id="ad"><path d="m993.137 275.684 140.375-69.196-44.367-23.156-142.883 68.48-142.89-68.48-44.368 23.156 140.383 69.196-144.356 72.273 50.985 27.188 140.246-70.286 140.238 70.286 50.984-27.188Zm0 0"/></clipPath><clipPath id="ae"><path d="M793 183h345v193H793Zm0 0"/></clipPath><clipPath id="af"><path d="m993.137 275.684 140.375-69.196-44.367-23.156-142.883 68.48-142.89-68.48-44.368 23.156 140.383 69.196-144.356 72.273 50.985 27.188 140.246-70.286 140.238 70.286 50.984-27.188Zm0 0"/></clipPath><clipPath id="ag"><path d="M805 183h333v193H805Zm0 0"/></clipPath><clipPath id="ah"><path d="m993.137 275.684 140.375-69.196-44.367-23.156-142.883 68.48-142.89-68.48-44.368 23.156 140.383 69.196-144.356 72.273 50.985 27.188 140.246-70.286 140.238 70.286 50.984-27.188Zm0 0"/></clipPath><clipPath id="ai"><path d="M818 183h320v193H818Zm0 0"/></clipPath><clipPath id="aj"><path d="m993.137 275.684 140.375-69.196-44.367-23.156-142.883 68.48-142.89-68.48-44.368 23.156 140.383 69.196-144.356 72.273 50.985 27.188 140.246-70.286 140.238 70.286 50.984-27.188Zm0 0"/></clipPath><clipPath id="ak"><path d="M829 183h309v193H829Zm0 0"/></clipPath><clipPath id="al"><path d="m993.137 275.684 140.375-69.196-44.367-23.156-142.883 68.48-142.89-68.48-44.368 23.156 140.383 69.196-144.356 72.273 50.985 27.188 140.246-70.286 140.238 70.286 50.984-27.188Zm0 0"/></clipPath><clipPath id="am"><path d="M842 183h296v193H842Zm0 0"/></clipPath><clipPath id="an"><path d="m993.137 275.684 140.375-69.196-44.367-23.156-142.883 68.48-142.89-68.48-44.368 23.156 140.383 69.196-144.356 72.273 50.985 27.188 140.246-70.286 140.238 70.286 50.984-27.188Zm0 0"/></clipPath><clipPath id="ao"><path d="M854 183h284v193H854Zm0 0"/></clipPath><clipPath id="ap"><path d="m993.137 275.684 140.375-69.196-44.367-23.156-142.883 68.48-142.89-68.48-44.368 23.156 140.383 69.196-144.356 72.273 50.985 27.188 140.246-70.286 140.238 70.286 50.984-27.188Zm0 0"/></clipPath><clipPath id="aq"><path d="M867 183h271v193H867Zm0 0"/></clipPath><clipPath id="ar"><path d="m993.137 275.684 140.375-69.196-44.367-23.156-142.883 68.48-142.89-68.48-44.368 23.156 140.383 69.196-144.356 72.273 50.985 27.188 140.246-70.286 140.238 70.286 50.984-27.188Zm0 0"/></clipPath><clipPath id="as"><path d="M879 183h259v193H879Zm0 0"/></clipPath><clipPath id="at"><path d="m993.137 275.684 140.375-69.196-44.367-23.156-142.883 68.48-142.89-68.48-44.368 23.156 140.383 69.196-144.356 72.273 50.985 27.188 140.246-70.286 140.238 70.286 50.984-27.188Zm0 0"/></clipPath><clipPath id="au"><path d="M892 183h246v193H892Zm0 0"/></clipPath><clipPath id="av"><path d="m993.137 275.684 140.375-69.196-44.367-23.156-142.883 68.48-142.89-68.48-44.368 23.156 140.383 69.196-144.356 72.273 50.985 27.188 140.246-70.286 140.238 70.286 50.984-27.188Zm0 0"/></clipPath><clipPath id="aw"><path d="M904 183h234v193H904Zm0 0"/></clipPath><clipPath id="ax"><path d="m993.137 275.684 140.375-69.196-44.367-23.156-142.883 68.48-142.89-68.48-44.368 23.156 140.383 69.196-144.356 72.273 50.985 27.188 140.246-70.286 140.238 70.286 50.984-27.188Zm0 0"/></clipPath><clipPath id="ay"><path d="M917 183h221v193H917Zm0 0"/></clipPath><clipPath id="az"><path d="m993.137 275.684 140.375-69.196-44.367-23.156-142.883 68.48-142.89-68.48-44.368 23.156 140.383 69.196-144.356 72.273 50.985 27.188 140.246-70.286 140.238 70.286 50.984-27.188Zm0 0"/></clipPath><clipPath id="aA"><path d="M929 183h209v193H929Zm0 0"/></clipPath><clipPath id="aB"><path d="m993.137 275.684 140.375-69.196-44.367-23.156-142.883 68.48-142.89-68.48-44.368 23.156 140.383 69.196-144.356 72.273 50.985 27.188 140.246-70.286 140.238 70.286 50.984-27.188Zm0 0"/></clipPath><clipPath id="aC"><path d="M1540 577h170v91h-170Zm0 0"/></clipPath><clipPath id="aD"><path d="M1709.664 622.668c0 24.945-37.762 45.168-84.344 45.168-46.582 0-84.343-20.223-84.343-45.168 0-24.95 37.761-45.172 84.343-45.172s84.344 20.223 84.344 45.172Zm0 0"/></clipPath></defs><g fill="#90D1F4" clip-path="url(#a)"><path d="m241.398 563.102 920.262-921.5 2.39 2.398-920.257 921.496ZM253.887 563.102l920.258-921.5 2.394 2.398-920.262 921.496ZM266.371 563.098l920.258-921.493 2.39 2.395-920.257 921.496ZM278.855 563.098l920.258-921.493 2.395 2.395L281.25 565.496ZM291.34 563.102l920.258-921.5 2.394 2.398L293.73 565.496ZM303.824 563.102l920.262-921.5 2.39 2.398L306.22 565.496ZM316.309 563.098l920.257-921.493 2.395 2.395-920.258 921.496ZM328.797 563.098l920.254-921.493 2.394 2.395-920.257 921.496ZM341.277 563.102l920.262-921.5 2.39 2.398-920.257 921.496ZM353.766 563.102l920.257-921.5 2.395 2.398-920.262 921.496ZM366.25 563.098l920.258-921.493 2.39 2.395-920.257 921.496ZM378.781 563.102l920.262-921.5 2.395 2.398-920.262 921.496ZM391.27 563.102l920.257-921.5 2.395 2.398L393.66 565.496Zm0 0"/></g><g fill="#90D1F4" clip-path="url(#b)"><path d="M-4.176 550.105 916.082-371.39l2.395 2.395L-1.781 552.5ZM8.313 550.105 928.57-371.39l2.39 2.395L10.704 552.5ZM20.793 550.105 941.055-371.39l2.39 2.395L23.187 552.5ZM33.281 550.105 953.54-371.39l2.395 2.395L35.672 552.5ZM45.766 550.102l920.257-921.493 2.391 2.395L48.16 552.5ZM58.25 550.105 978.508-371.39l2.394 2.395L60.645 552.5ZM70.734 550.105 990.992-371.39l2.395 2.395L73.129 552.5ZM83.27 550.105l920.257-921.496 2.395 2.395L85.664 552.5ZM95.758 550.105l920.258-921.496 2.39 2.395L98.148 552.5ZM108.238 550.105 1028.5-371.39l2.39 2.395L110.634 552.5ZM120.727 550.105l920.257-921.496 2.395 2.395L123.117 552.5ZM133.21 550.105 1053.47-371.39l2.39 2.395L135.602 552.5ZM145.695 550.105l920.258-921.496 2.395 2.395L148.09 552.5ZM158.18 550.105l920.258-921.496 2.394 2.395L160.57 552.5ZM170.664 550.105l920.262-921.496 2.39 2.395L173.06 552.5ZM183.148 550.105l920.258-921.496 2.395 2.395L185.543 552.5ZM195.637 550.105 1115.89-371.39l2.394 2.395L198.027 552.5ZM208.117 550.105 1128.38-371.39l2.39 2.395L210.513 552.5ZM220.336 550.105l920.258-921.496 2.394 2.395L222.73 552.5ZM232.824 550.105l920.258-921.496 2.39 2.395L235.22 552.5Zm0 0"/></g><g clip-path="url(#c)"><path fill="#90D1F4" d="m245.305 550.105 920.261-921.496 2.395 2.395L247.699 552.5Zm0 0"/></g><g clip-path="url(#d)"><path fill="#90D1F4" d="m257.793 550.105 920.258-921.496 2.394 2.395L260.184 552.5Zm0 0"/></g><g clip-path="url(#e)"><path fill="#90D1F4" d="m270.277 550.105 920.258-921.496 2.39 2.395L272.673 552.5Zm0 0"/></g><g clip-path="url(#f)"><path fill="#90D1F4" d="M282.762 550.105 1203.02-371.39l2.394 2.395L285.156 552.5Zm0 0"/></g><g clip-path="url(#g)"><path fill="#90D1F4" d="m295.246 550.105 920.258-921.496 2.394 2.395L297.637 552.5Zm0 0"/></g><g clip-path="url(#h)"><path fill="#90D1F4" d="m307.73 550.105 920.262-921.496 2.39 2.395L310.126 552.5Zm0 0"/></g><path fill="#4EA8F1" d="M725.734 733.848h-297.43c-38.831-.051-70.304-31.551-70.366-70.434l-.06-122.914a2.425 2.425 0 0 1 2.423-2.426 2.425 2.425 0 0 1 2.422 2.426l.054 122.914c.063 36.207 29.371 65.54 65.528 65.586h297.43a2.418 2.418 0 0 1 2.417 2.422 2.421 2.421 0 0 1-2.418 2.426Zm0 0"/><path fill="#4EA8F1" d="M725.734 697.309H439.848c-20.82-.028-37.696-16.914-37.739-37.762l-.066-119.047a2.425 2.425 0 0 1 2.422-2.426 2.425 2.425 0 0 1 2.422 2.426l.066 119.047c.04 18.172 14.746 32.89 32.895 32.914h285.886a2.421 2.421 0 0 1 2.418 2.426 2.42 2.42 0 0 1-2.418 2.422ZM806.016 403.43c-.422 0-.836-.11-1.2-.32l-50.984-29.173a2.428 2.428 0 0 1-1.223-2.109v-14.242a2.422 2.422 0 1 1 4.844 0v12.836l46.14 26.402V384.77a2.422 2.422 0 1 1 4.844 0v16.234a2.422 2.422 0 0 1-2.421 2.426Zm0 0"/><path fill="#4EA8F1" d="M806.016 403.43a2.427 2.427 0 0 1-1.121-4.578l140.242-73.27a2.426 2.426 0 0 1 3.27 1.027 2.432 2.432 0 0 1-1.028 3.274l-140.242 73.27c-.344.179-.73.273-1.121.277ZM861.219 287.313c-.387 0-.77-.094-1.114-.274l-102.214-53.293a2.427 2.427 0 0 1-1.305-2.152v-15.082a2.422 2.422 0 1 1 4.844 0v13.61l100.91 52.616a2.424 2.424 0 0 1 1.23 2.727 2.416 2.416 0 0 1-2.347 1.848Zm0 0"/><path fill="#90D1F4" d="M806.016 377.57c-.395 0-.79-.097-1.137-.285l-50.988-27.183a2.43 2.43 0 0 1-1.282-2.172 2.418 2.418 0 0 1 1.34-2.137l139.985-70.09-135.996-67.039a2.427 2.427 0 0 1-.055-4.324l44.363-23.156a2.433 2.433 0 0 1 2.168-.036l141.844 67.977 141.844-67.977a2.437 2.437 0 0 1 2.164.036l44.37 23.156a2.428 2.428 0 0 1-.054 4.324l-135.996 67.04 139.984 70.089a2.426 2.426 0 0 1 .055 4.309l-50.988 27.183a2.426 2.426 0 0 1-2.223.027l-139.156-69.738-139.156 69.738a2.44 2.44 0 0 1-1.086.258Zm140.242-75.136c.375 0 .746.09 1.082.257l139.125 69.727 45.746-24.39-140.16-70.173a2.427 2.427 0 0 1 .016-4.344l136.09-67.081-39.055-20.387-141.801 67.96a2.446 2.446 0 0 1-2.09 0l-141.797-67.96-39.05 20.387 136.09 67.082a2.427 2.427 0 0 1 .015 4.343l-140.16 70.172 45.742 24.391 139.12-69.727c.34-.168.712-.257 1.087-.257Zm0 0"/><path fill="#4EA8F1" d="M1086.5 403.43a2.422 2.422 0 0 1-2.422-2.426V384.77a2.422 2.422 0 0 1 2.422-2.426 2.421 2.421 0 0 1 2.418 2.426v12.054l46.148-26.402v-12.836a2.422 2.422 0 1 1 4.844 0v14.242c0 .871-.465 1.676-1.223 2.11l-50.988 29.171c-.367.211-.781.32-1.199.32Zm0 0"/><path fill="#4EA8F1" d="M1086.5 403.43a2.478 2.478 0 0 1-1.121-.278l-140.242-73.27a2.422 2.422 0 0 1-1.301-2.148v-12.421a2.425 2.425 0 0 1 2.422-2.426 2.425 2.425 0 0 1 2.422 2.425v10.954l138.941 72.586a2.429 2.429 0 0 1-1.121 4.578ZM1031.3 287.313a2.426 2.426 0 0 1-1.117-4.574l100.91-52.618v-13.61a2.422 2.422 0 1 1 4.844 0v15.083c0 .902-.503 1.734-1.308 2.148l-102.215 53.297c-.344.18-.726.274-1.113.274ZM1108.672 325.242a2.42 2.42 0 0 1-2.406-2.207l-5.907-65.512a2.422 2.422 0 0 1 2.192-2.632 2.464 2.464 0 0 1 2.629 2.199l5.91 65.512a2.425 2.425 0 0 1-2.195 2.632c-.075.004-.145.008-.223.008ZM1094.445 317.734a2.419 2.419 0 0 1-2.418-2.289l-2.843-51.773a2.421 2.421 0 0 1 2.285-2.555 2.367 2.367 0 0 1 1.761.598c.485.433.766 1.043.79 1.691l2.84 51.774a2.42 2.42 0 0 1-2.282 2.55ZM783.844 325.242c-.074 0-.145-.004-.223-.008a2.422 2.422 0 0 1-2.191-2.632l5.902-65.512a2.464 2.464 0 0 1 2.629-2.2 2.422 2.422 0 0 1 2.191 2.633l-5.898 65.512a2.421 2.421 0 0 1-2.41 2.207ZM798.074 317.734l-.129-.004a2.425 2.425 0 0 1-1.672-.8 2.424 2.424 0 0 1-.613-1.75l2.836-51.774c.008-.652.29-1.273.774-1.707a2.33 2.33 0 0 1 1.777-.582 2.421 2.421 0 0 1 2.285 2.555l-2.84 51.773a2.419 2.419 0 0 1-2.418 2.29ZM1148.082 478.41a2.417 2.417 0 0 1-2.266-1.566l-29.894-79.371a2.43 2.43 0 0 1 1.406-3.13 2.425 2.425 0 0 1 3.125 1.415l29.895 79.37a2.432 2.432 0 0 1-1.41 3.13 2.453 2.453 0 0 1-.856.152ZM1110.402 475.777a2.424 2.424 0 0 1-2.414-2.261l-4.562-69.305a2.428 2.428 0 0 1 2.254-2.582c.644-.05 1.28.16 1.765.586.485.426.778 1.027.813 1.672l4.566 69.304a2.429 2.429 0 0 1-2.258 2.582c-.054.004-.109.004-.164.004ZM1143.14 820.492H748.993c-8.785-.012-15.902-7.14-15.914-15.937V498.723c.012-8.797 7.129-15.922 15.914-15.934h394.149c8.785.012 15.902 7.137 15.914 15.934v305.832c-.012 8.797-7.13 15.925-15.914 15.937ZM748.993 487.637c-6.113.008-11.066 4.965-11.07 11.086v305.832c.004 6.12 4.957 11.082 11.07 11.086h394.149c6.109-.004 11.062-4.965 11.07-11.086V498.723c-.008-6.121-4.961-11.078-11.07-11.086Zm0 0"/><path fill="#4EA8F1" d="M1156.633 541.344H735.5a2.422 2.422 0 0 1-2.422-2.426 2.422 2.422 0 0 1 2.422-2.426h421.133a2.425 2.425 0 0 1 2.422 2.426 2.425 2.425 0 0 1-2.422 2.426Zm0 0"/><path fill="#90D1F4" d="M832.477 687.074a15.38 15.38 0 0 1-14.57 4.918c-5.825-.898-10.032-6.05-9.762-11.941-.383-7.813-.176-15.656-.223-23.489 0-.246-.09-.585.035-.73 2.645-3.062 6.145-.824 9.195-1.43 1.832-.367 2.27.852 2.246 2.493a622.35 622.35 0 0 0-.003 14.543c.015 1.734.144 3.472.378 5.19a5.311 5.311 0 0 0 1.684 3.852 5.287 5.287 0 0 0 3.961 1.399 5.692 5.692 0 0 0 4.18-1.375 5.676 5.676 0 0 0 1.945-3.95c.394-3.82.297-7.687.402-11.534.02-.747.004-1.493.004-2.239 0-9-.004-8.933 9.086-8.46 2.008.105 2.55.886 2.543 2.702a4619.34 4619.34 0 0 0 .004 32.07c.012 2-.883 2.61-2.727 2.493a28.159 28.159 0 0 0-4.835.008c-2.543.285-4.137-.352-3.543-4.52ZM992.71 674.18v-4.477c0-5.172.005-5.25-5.046-5.71-1.797-.165-2.387-.942-2.309-2.602a24.219 24.219 0 0 0-.03-3.727c-.302-2.684.886-3.73 3.437-3.285 3.531.617 4.093-1.145 4.011-4.23-.187-6.856-.046-6.86 6.875-6.852 4.836.004 4.836.008 4.84 4.906v.746c.063 6.352-.61 5.246 5.282 5.477 1.503.058 3.742-.969 4.359.886.734 2.524.746 5.204.035 7.731-.375 1.484-2.133.871-3.297.894-6.379.125-6.383.106-6.375 6.625.004 2.114-.008 4.227.082 6.34.2 4.762 1.95 6.364 6.61 5.407 2.863-.59 3.343.296 3.316 2.89-.063 6.715-.168 6.93-7.113 7.004a22.84 22.84 0 0 1-6.29-.515 10.055 10.055 0 0 1-8.335-10.047c-.133-2.48-.02-4.973-.02-7.461ZM1121.219 655.059a10.668 10.668 0 0 1 8.996-.813c.375.926.48 1.942.297 2.926-.059 1.976.73 4.265-.332 5.851-1.285 1.914-3.688.383-5.59.582-5.695.594-8.75 4.22-8.945 11.192-.13 4.601-.086 9.207.003 13.808.032 1.825-.382 2.739-2.453 2.692-9.738-.215-8.27 1.332-8.36-7.813-.077-8.332.067-16.672-.058-25.004-.047-2.902.883-4.171 3.871-3.808 1.489.11 2.98.121 4.47.027 1.327-.023 2.464.024 2.519 1.864.074 2.574 1.281 2.324 2.777.937a18.33 18.33 0 0 1 2.805-2.441ZM934.535 659.473c-5.75-6.77-14.039-7.336-25.004-1.356.598-3.469-1.113-4.039-3.644-3.762-1.11.145-2.23.149-3.34.008-2.938-.437-3.836.657-3.805 3.668.149 14.535.067 29.078.067 43.617 0 7.348.007 7.133 7.484 7.418 3.617.141 4.387-1.136 4.23-4.425-.246-5.254-.066-10.528-.066-16.082 10.39 5.328 18.547 4.609 23.59-1.707 6.59-7.872 6.793-19.282.488-27.38Zm-15.91 22.457a8.966 8.966 0 0 1-8.39-5.485 8.994 8.994 0 0 1 1.917-9.851 8.957 8.957 0 0 1 9.84-1.926 8.982 8.982 0 0 1 5.48 8.402 8.478 8.478 0 0 1-2.468 6.387 8.444 8.444 0 0 1-6.379 2.473ZM793.84 639.457a19.074 19.074 0 0 0-8.219-1.902c-7.062-.075-14.129.047-21.195-.067-2.16-.035-3.047.426-3.031 2.848.101 16.012.046 32.023.062 48.035 0 1.192-.352 2.563 1.184 3.211 2.73-.008 5.472-.137 8.195.016 2.3.129 3.027-.723 2.953-3-.144-4.848.074-9.707-.09-14.551-.086-2.524.54-3.621 3.293-3.426 3.098.223 6.211.192 9.305-.101 6.789-.66 12.879-2.88 14.984-10.184 2.207-7.652 1.332-16.434-7.441-20.879Zm-8.254 20.246a32.716 32.716 0 0 1-10.316.684c-1.364.023-1.551-.91-1.532-2.004.024-1.485.004-2.973.004-4.461 0-6.41 0-6.457 6.328-6.152 1.852.074 3.688.359 5.473.855a5.272 5.272 0 0 1 4.117 5.492 5.564 5.564 0 0 1-4.074 5.586ZM889.344 661.008c-6.035-8.27-14.047-9.301-25.887-3.106.352-3.578-1.84-3.812-4.426-3.523a6.59 6.59 0 0 1-1.86-.016c-3.687-.625-4.898.684-4.827 4.598.254 13.93.097 27.863.097 41.793 0 8.312 0 8.148 8.149 8.305 3.152.058 3.719-1.133 3.629-3.891-.176-5.398-.051-10.8-.051-16.383 13.684 5.809 21.863 3.594 26.605-6.887a21.91 21.91 0 0 0-1.43-20.89Zm-10.621 18.465a9.49 9.49 0 0 1-13.262-.52 9.996 9.996 0 0 1-.031-11.98 9.586 9.586 0 0 1 13.273-.633 9.855 9.855 0 0 1 .02 13.133ZM1086.105 654.477a21.188 21.188 0 0 0-23.593 8.304 19.388 19.388 0 0 0 2.398 23.43 21.802 21.802 0 0 0 26.13 3.02c5.597-3.36 5.57-4.055.483-7.926-2.308-1.758-3.82-2.465-6.449 0a8.465 8.465 0 0 1-6.777 1.863 8.481 8.481 0 0 1-5.863-3.89c-.875-1.606-.825-2.571 1.347-2.551 3.598.035 7.196.007 10.797.007 3.598-.004 7.2-.054 10.797.02 1.691.035 2.387-.516 2.523-2.313 1.122-8.578-3.746-16.82-11.793-19.964Zm-2.882 14.093c-1.485.043-2.973.008-4.461.008-1.735 0-3.473-.05-5.203.012-2.16.078-2.293-1.078-1.528-2.578a7.482 7.482 0 0 1 6.664-4.055 6.62 6.62 0 0 1 6.383 3.031c1.586 2.485 1.05 3.5-1.855 3.582ZM1047.605 655.488c-8.918-4.027-19.43-1.398-25.41 6.352a19.505 19.505 0 0 0 1.297 23.847c6.809 7 17.45 8.59 26 3.883 6.16-3.476 6.13-4.332.649-8.625a3.717 3.717 0 0 0-3-1.285 3.716 3.716 0 0 0-2.86 1.574 8.485 8.485 0 0 1-6.398 2.004 8.51 8.51 0 0 1-5.86-3.261c-.562-.77-1.441-1.575-.87-2.645.495-.934 1.55-.574 2.37-.582 3.352-.04 6.707-.016 10.059-.02 3.602 0 7.203-.007 10.805 0 1.164.004 2.34.028 2.453-1.554a20.128 20.128 0 0 0-9.235-19.688Zm-5.246 13.098c-1.48-.094-2.972-.016-4.46-.016-1.735 0-3.473-.05-5.204.012-2.02.074-2.449-.809-1.601-2.5a7.518 7.518 0 0 1 6.633-4.117 6.61 6.61 0 0 1 6.585 3.328c1.325 2.23.95 3.488-1.953 3.293ZM963.445 653.688c-8.734.125-16.336 6.015-18.648 14.453-2.188 8.359 1.535 17.148 9.062 21.382a21.496 21.496 0 0 0 24.926-2.789c.586-.617 1.695-1.343 1.137-2.113a24.22 24.22 0 0 0-6.379-5.055c-1.86-1.289-2.523.938-3.586 1.707a8.933 8.933 0 0 1-12.598-1.508c-.472-.699-1.191-1.44-.832-2.35.418-1.052 1.496-.653 2.297-.661 3.356-.047 6.711-.02 10.067-.02 3.601 0 7.203-.027 10.808.012 1.516.016 2.653-.144 2.7-2.117.308-12.305-6.063-21.602-18.954-20.942Zm6.907 13.96c-.668 1.754-2.579.805-3.926.887-2.332.145-4.68.098-7.016.016-1.031-.035-2.426.57-3.008-.66-.605-1.282.399-2.371 1.2-3.258a18.564 18.564 0 0 1 2.593-2.031 9.102 9.102 0 0 1 6.684-.086c.531.304 1.039.66 1.508 1.054 1.136 1.13 2.613 2.387 1.968 4.078Zm0 0"/><path fill="#4EA8F1" d="M1131.055 475.777a2.426 2.426 0 0 1-2.278-1.593l-25.21-69.309a2.42 2.42 0 1 1 4.55-1.656l25.215 69.304c.27.747.16 1.575-.293 2.223a2.43 2.43 0 0 1-1.984 1.031ZM744.438 478.672a2.423 2.423 0 0 1-2.207-1.422 2.425 2.425 0 0 1-.06-1.855l29.895-79.633c.286-.84 1-1.461 1.875-1.617a2.428 2.428 0 0 1 2.313.87c.55.692.683 1.633.344 2.45l-29.895 79.637a2.42 2.42 0 0 1-2.265 1.57ZM782.117 475.777c-.054 0-.11 0-.164-.004a2.429 2.429 0 0 1-2.258-2.582l4.563-69.304a2.419 2.419 0 0 1 2.574-2.258 2.424 2.424 0 0 1 2.258 2.582l-4.559 69.305a2.424 2.424 0 0 1-2.414 2.261Zm0 0"/><path fill="#4EA8F1" d="M761.465 475.777a2.43 2.43 0 0 1-1.985-1.03 2.434 2.434 0 0 1-.293-2.224l25.211-69.304a2.419 2.419 0 0 1 3.079-1.39 2.423 2.423 0 0 1 1.468 3.046l-25.207 69.309a2.42 2.42 0 0 1-2.273 1.593ZM764.973 514.64h-5.59a2.425 2.425 0 0 1 0-4.847h5.59a2.421 2.421 0 0 1 2.422 2.422 2.422 2.422 0 0 1-2.422 2.426ZM787.188 514.64h-5.59a2.425 2.425 0 0 1 0-4.847h5.59a2.421 2.421 0 0 1 2.421 2.422 2.422 2.422 0 0 1-2.422 2.426ZM809.402 514.64h-5.59a2.425 2.425 0 0 1 0-4.847h5.59a2.421 2.421 0 0 1 2.422 2.422 2.422 2.422 0 0 1-2.422 2.426Zm0 0"/><path fill="#90D1F4" d="M390.754 487.637H241.742a2.425 2.425 0 0 1-2.422-2.426V288.695a2.425 2.425 0 0 1 2.422-2.425h149.012a2.425 2.425 0 0 1 2.422 2.425v196.516a2.425 2.425 0 0 1-2.422 2.426Zm-146.59-4.848h144.168V291.121H244.164ZM562.86 487.637H423.573a2.425 2.425 0 0 1-2.422-2.426v-46.512a2.424 2.424 0 0 1 2.422-2.422H562.86a2.421 2.421 0 0 1 2.422 2.422v46.512a2.422 2.422 0 0 1-2.422 2.426Zm-136.864-4.848h134.442v-41.664H425.995ZM562.86 412.633H423.573a2.424 2.424 0 0 1-2.422-2.422v-46.512a2.425 2.425 0 0 1 2.422-2.426H562.86a2.422 2.422 0 0 1 2.422 2.426v46.512a2.421 2.421 0 0 1-2.422 2.422Zm-136.864-4.848h134.442v-41.664H425.995ZM562.86 337.633H423.573a2.425 2.425 0 0 1-2.422-2.426v-46.512a2.425 2.425 0 0 1 2.422-2.425H562.86a2.422 2.422 0 0 1 2.422 2.425v46.512a2.422 2.422 0 0 1-2.422 2.426Zm-136.864-4.852h134.442v-41.66H425.995Zm0 0"/><path fill="#4EA8F1" d="M1429.137 762.129a2.421 2.421 0 0 1-2.422-2.422v-93.102c0-.843.437-1.625 1.156-2.066a2.413 2.413 0 0 1 2.367-.09l91.07 46.547a2.423 2.423 0 0 1 1.32 2.16c0 .91-.507 1.746-1.32 2.16l-91.07 46.547a2.411 2.411 0 0 1-1.101.266Zm2.422-91.563v85.18l83.324-42.59ZM1167.71 734.23a2.422 2.422 0 0 1-2.425-2.421 2.422 2.422 0 0 1 2.422-2.426l251.652-.383h.004a2.424 2.424 0 0 1 .008 4.848l-251.656.382ZM1167.71 697.695a2.425 2.425 0 0 1-.004-4.852l251.653-.382h.004a2.422 2.422 0 0 1 2.426 2.422 2.421 2.421 0 0 1-2.418 2.426l-251.656.386ZM1540.848 678.93a2.425 2.425 0 0 1-2.422-2.426c0-.274.05-27.914.18-29.04a2.493 2.493 0 0 1 2.687-2.132 2.426 2.426 0 0 1 2.129 2.633c-.09 1.566-.156 26.496-.156 28.539a2.419 2.419 0 0 1-2.418 2.426ZM1709.793 728.402a2.425 2.425 0 0 1-2.422-2.425c0-2.168-.05-48.254-.125-49.961a2.421 2.421 0 1 1 4.828-.387c.098 1.062.14 49.86.14 50.348a2.422 2.422 0 0 1-2.421 2.425Zm0 0"/><path fill="#4EA8F1" d="M1540.848 725.55a2.425 2.425 0 0 1-2.422-2.425c0-.5.05-50.805.18-51.938a2.499 2.499 0 0 1 2.687-2.132 2.434 2.434 0 0 1 2.129 2.691c-.086 1.727-.152 49.223-.152 51.379a2.425 2.425 0 0 1-2.422 2.426Zm0 0"/><path fill="#4EA8F1" d="M1625.32 820.492c-47.914 0-86.894-22.531-86.894-50.222 0-.485.043-49.082.14-50.145a2.434 2.434 0 0 1 2.414-2.188c1.247.004 2.29.95 2.41 2.196 2.31 24.101 38.297 42.976 81.93 42.976 43.637 0 79.621-18.875 81.93-42.976a2.435 2.435 0 0 1 2.414-2.196c1.246.004 2.29.95 2.41 2.188.102 1.063.145 49.656.145 50.145-.004 27.69-38.98 50.222-86.899 50.222Zm-81.996-86.058c-.031 14.21-.054 34.421-.054 35.84 0 25.015 36.808 45.37 82.05 45.37 45.246 0 82.055-20.355 82.055-45.37 0-1.419-.023-21.606-.059-35.84-11.921 19.609-44.285 33.527-81.996 33.527-37.707 0-70.078-13.918-81.996-33.527Zm0 0"/><path fill="#4EA8F1" d="M1625.32 719.11c-46.101 0-84.207-20.805-86.754-47.36a2.427 2.427 0 0 1 2.18-2.648 2.463 2.463 0 0 1 2.645 2.183c2.308 24.098 38.296 42.973 81.93 42.973 43.636 0 79.62-18.875 81.929-42.973a2.503 2.503 0 0 1 2.645-2.183 2.43 2.43 0 0 1 2.18 2.648c-2.544 26.555-40.65 47.36-86.755 47.36Zm0 0"/><path fill="#90D1F4" d="M1625.32 670.258c-47.84 0-86.761-21.348-86.761-47.59 0-26.242 38.921-47.598 86.761-47.598 47.84 0 86.766 21.352 86.766 47.598s-38.926 47.59-86.766 47.59Zm0-90.336c-44.406 0-81.918 19.574-81.918 42.746s37.512 42.742 81.918 42.742c44.407 0 81.922-19.574 81.922-42.742 0-23.168-37.515-42.746-81.922-42.746Zm0 0"/><path fill="#4EA8F1" d="M1709.793 682.914a2.428 2.428 0 0 1-2.422-2.418l-.105-32.742a2.419 2.419 0 0 1 2.41-2.434h.012a2.419 2.419 0 0 1 2.417 2.414l.11 32.746a2.424 2.424 0 0 1-2.41 2.434ZM1554.664 586.281h-202.96c-18.263-.02-33.063-14.84-33.083-33.129V221.22c.02-18.29 14.82-33.106 33.082-33.13h231.809c18.261.024 33.062 14.84 33.086 33.13v343.808a2.422 2.422 0 1 1-4.844 0V221.22c-.02-15.61-12.652-28.258-28.242-28.278h-231.809c-15.59.02-28.223 12.668-28.242 28.278v331.933c.02 15.61 12.652 28.262 28.242 28.282h202.961a2.418 2.418 0 0 1 2.418 2.421 2.421 2.421 0 0 1-2.418 2.426ZM1666.242 572.79a2.425 2.425 0 0 1-2.422-2.427v-295.64c-.015-15.606-12.648-28.258-28.234-28.278h-12.11a2.424 2.424 0 0 1 0-4.847h12.11c18.262.02 33.059 14.84 33.078 33.125v295.64a2.425 2.425 0 0 1-2.422 2.426ZM1527.32 639.79h-123.55c-18.262-.024-33.063-14.845-33.082-33.13v-12.137a2.425 2.425 0 0 1 2.421-2.425 2.425 2.425 0 0 1 2.422 2.425v12.137c.02 15.61 12.653 28.258 28.239 28.278h123.55a2.425 2.425 0 0 1 2.422 2.425 2.425 2.425 0 0 1-2.422 2.426Zm0 0"/><g clip-path="url(#i)"><g fill="#90D1F4" clip-path="url(#j)"><path d="m20.79 394.152 920.26-921.5 2.391 2.399L23.184 396.547ZM33.324 394.148l920.258-921.492 2.395 2.395L35.719 396.547ZM45.809 394.152l920.261-921.5 2.39 2.399L48.204 396.547ZM58.293 394.152l920.262-921.5 2.394 2.399L60.688 396.547ZM70.781 394.148l920.254-921.492 2.395 2.395L73.172 396.547ZM83.266 394.148l920.257-921.492 2.391 2.395L85.66 396.547ZM95.746 394.152l920.262-921.5 2.394 2.399L98.141 396.547ZM108.234 394.152l920.258-921.5 2.395 2.399-920.258 921.496ZM120.719 394.148l920.258-921.492 2.39 2.395-920.254 921.496ZM133.203 394.148l920.258-921.492 2.394 2.395-920.257 921.496ZM145.688 394.152l920.257-921.5 2.395 2.399-920.258 921.496ZM158.172 394.152l920.262-921.5 2.39 2.399-920.258 921.496ZM170.395 394.148l920.257-921.492 2.391 2.395-920.258 921.496ZM182.875 394.152l920.262-921.5 2.39 2.399L185.27 396.547ZM195.363 394.152l920.258-921.5 2.395 2.399-920.262 921.496Zm0 0"/></g></g><g clip-path="url(#k)"><g clip-path="url(#l)"><path fill="#90D1F4" d="m207.848 394.148 920.254-921.492 2.394 2.395-920.258 921.496Zm0 0"/></g></g><g clip-path="url(#m)"><g clip-path="url(#n)"><path fill="#90D1F4" d="m220.332 394.148 920.258-921.492 2.394 2.395-920.257 921.496Zm0 0"/></g></g><g clip-path="url(#o)"><g clip-path="url(#p)"><path fill="#90D1F4" d="m232.816 394.152 920.258-921.5 2.395 2.399-920.262 921.496Zm0 0"/></g></g><g clip-path="url(#q)"><g clip-path="url(#r)"><path fill="#90D1F4" d="m245.3 394.152 920.262-921.5 2.391 2.399-920.258 921.496Zm0 0"/></g></g><g clip-path="url(#s)"><g clip-path="url(#t)"><path fill="#90D1F4" d="m257.785 394.148 920.258-921.492 2.395 2.395L260.18 396.547Zm0 0"/></g></g><g clip-path="url(#u)"><g clip-path="url(#v)"><path fill="#90D1F4" d="m270.273 394.148 920.254-921.492 2.395 2.395-920.258 921.496Zm0 0"/></g></g><g clip-path="url(#w)"><g clip-path="url(#x)"><path fill="#90D1F4" d="m282.754 394.152 920.262-921.5 2.39 2.399-920.258 921.496Zm0 0"/></g></g><g clip-path="url(#y)"><g clip-path="url(#z)"><path fill="#90D1F4" d="m295.242 394.152 920.258-921.5 2.395 2.399-920.262 921.496Zm0 0"/></g></g><g clip-path="url(#A)"><g clip-path="url(#B)"><path fill="#90D1F4" d="m306.598 394.148 920.257-921.492 2.395 2.395-920.258 921.496Zm0 0"/></g></g><g clip-path="url(#C)"><g clip-path="url(#D)"><path fill="#90D1F4" d="m319.082 394.152 920.262-921.5 2.39 2.399-920.257 921.496Zm0 0"/></g></g><g clip-path="url(#E)"><g clip-path="url(#F)"><path fill="#90D1F4" d="m331.566 394.152 920.262-921.5 2.395 2.399L333.96 396.547Zm0 0"/></g></g><g clip-path="url(#G)"><g clip-path="url(#H)"><path fill="#90D1F4" d="m344.055 394.148 920.254-921.492 2.394 2.395-920.258 921.496Zm0 0"/></g></g><g clip-path="url(#I)"><g clip-path="url(#J)"><path fill="#90D1F4" d="m356.54 394.148 920.257-921.492 2.39 2.395-920.253 921.496Zm0 0"/></g></g><g clip-path="url(#K)"><g clip-path="url(#L)"><path fill="#90D1F4" d="m369.023 394.152 920.258-921.5 2.395 2.399-920.262 921.496Zm0 0"/></g></g><g clip-path="url(#M)"><g clip-path="url(#N)"><path fill="#90D1F4" d="m381.508 394.152 920.258-921.5 2.394 2.399-920.258 921.496Zm0 0"/></g></g><g clip-path="url(#O)"><g clip-path="url(#P)"><path fill="#90D1F4" d="m393.992 394.148 920.258-921.492 2.395 2.395-920.258 921.496Zm0 0"/></g></g><g clip-path="url(#Q)"><g clip-path="url(#R)"><path fill="#90D1F4" d="m406.477 394.148 920.257-921.492 2.395 2.395L408.87 396.547Zm0 0"/></g></g><g clip-path="url(#S)"><g clip-path="url(#T)"><path fill="#90D1F4" d="m418.96 394.152 920.259-921.5 2.394 2.399-920.258 921.496Zm0 0"/></g></g><g clip-path="url(#U)"><g clip-path="url(#V)"><path fill="#90D1F4" d="m431.445 394.152 920.262-921.5 2.39 2.399L433.84 396.547Zm0 0"/></g></g><g clip-path="url(#W)"><g clip-path="url(#X)"><path fill="#90D1F4" d="m443.984 394.148 920.258-921.492 2.39 2.395-920.257 921.496Zm0 0"/></g></g><path fill="#4EA8F1" d="M1679.555 690.031c-5.258-.008-9.52-4.277-9.524-9.543a2.422 2.422 0 1 1 4.844 0 4.684 4.684 0 1 0 9.367 0 4.684 4.684 0 0 0-4.687-4.687 2.425 2.425 0 0 1-2.422-2.426 2.425 2.425 0 0 1 2.422-2.426c5.261 0 9.527 4.274 9.527 9.54 0 5.269-4.266 9.542-9.527 9.542ZM1679.555 738.293c-5.258-.004-9.52-4.273-9.524-9.543a2.421 2.421 0 1 1 4.844 0 4.686 4.686 0 0 0 4.684 4.691 4.692 4.692 0 0 0-.004-9.382 2.425 2.425 0 0 1-2.422-2.426 2.425 2.425 0 0 1 2.422-2.426c5.265 0 9.53 4.273 9.53 9.543 0 5.273-4.265 9.543-9.53 9.543ZM1679.555 789.512c-5.258-.004-9.52-4.274-9.524-9.543a2.421 2.421 0 1 1 4.844 0 4.685 4.685 0 0 0 4.684 4.695 4.689 4.689 0 0 0 4.683-4.691 4.687 4.687 0 0 0-4.687-4.692 2.425 2.425 0 0 1 0-4.847c5.261 0 9.527 4.27 9.527 9.539 0 5.27-4.266 9.539-9.527 9.539Zm0 0"/><path fill="#90D1F4" d="M1561.965 290.613H1373.25a2.425 2.425 0 0 1 0-4.847h188.715a2.424 2.424 0 0 1 0 4.847ZM1561.965 356.613h-76.727a2.422 2.422 0 0 1-2.422-2.425 2.419 2.419 0 0 1 2.422-2.422h76.727a2.425 2.425 0 0 1 0 4.848ZM1442.375 356.613h-69.125a2.425 2.425 0 0 1 0-4.847h69.121a2.419 2.419 0 0 1 2.422 2.421 2.422 2.422 0 0 1-2.422 2.426ZM1527.32 422.61h-154.07a2.425 2.425 0 0 1-2.422-2.426 2.425 2.425 0 0 1 2.422-2.426h154.07a2.425 2.425 0 0 1 2.422 2.426 2.425 2.425 0 0 1-2.422 2.425ZM1485.238 488.61H1373.25a2.425 2.425 0 0 1-2.422-2.426 2.425 2.425 0 0 1 2.422-2.426h111.984a2.422 2.422 0 0 1 2.422 2.426 2.422 2.422 0 0 1-2.422 2.425Zm0 0"/><path fill="#4EA8F1" d="M566.93 530.688H237.676c-22.024-.024-39.867-17.895-39.895-39.946V263.324a2.422 2.422 0 1 1 4.844 0v227.414c.023 19.375 15.703 35.075 35.05 35.098H566.93c19.347-.024 35.027-15.723 35.05-35.098V263.324a2.422 2.422 0 1 1 4.844 0v227.414c-.027 22.055-17.87 39.926-39.894 39.95Zm0 0"/><path fill="#90D1F4" d="M604.402 255.781H200.203a2.425 2.425 0 0 1-2.422-2.426v-33.894c.024-22.055 17.871-39.926 39.895-39.953H566.93c22.023.027 39.87 17.898 39.894 39.953v33.894a2.425 2.425 0 0 1-2.422 2.426Zm-401.777-4.851H601.98v-31.47c-.023-19.374-15.703-35.077-35.05-35.1H237.676c-19.352.023-35.028 15.726-35.051 35.1Zm158.766-17.45c-7.754 0-14.04-6.289-14.04-14.054-.003-7.762 6.282-14.059 14.036-14.059s14.039 6.293 14.039 14.055c-.008 7.758-6.285 14.047-14.035 14.058Zm0-23.261c-5.079-.004-9.196 4.117-9.2 9.203 0 5.082 4.118 9.207 9.196 9.207 5.078 0 9.195-4.121 9.195-9.207-.004-5.078-4.117-9.2-9.191-9.203Zm-53.614 23.261c-7.754 0-14.039-6.292-14.039-14.058 0-7.762 6.285-14.055 14.04-14.055 7.75 0 14.034 6.293 14.034 14.055-.007 7.762-6.285 14.05-14.035 14.058Zm0-23.261c-5.078 0-9.195 4.12-9.195 9.203 0 5.086 4.117 9.207 9.195 9.207s9.192-4.121 9.192-9.207c-.004-5.082-4.117-9.2-9.192-9.203Zm-53.609 23.261c-7.754 0-14.035-6.292-14.035-14.058 0-7.762 6.281-14.055 14.035-14.055 7.754 0 14.039 6.293 14.039 14.055-.008 7.762-6.289 14.05-14.039 14.058Zm0-23.261c-5.078 0-9.195 4.12-9.195 9.203 0 5.086 4.117 9.207 9.195 9.207s9.195-4.121 9.195-9.207c-.004-5.082-4.117-9.2-9.195-9.203Zm0 0"/><path fill="#4EA8F1" d="M562.86 487.637H423.573a2.425 2.425 0 0 1-2.422-2.426v-46.512a2.424 2.424 0 0 1 2.422-2.422H562.86a2.421 2.421 0 0 1 2.422 2.422v46.512a2.422 2.422 0 0 1-2.422 2.426Zm-136.864-4.848h134.442v-41.664H425.995Zm0 0"/><path fill="#90D1F4" d="M562.86 412.633H423.573a2.424 2.424 0 0 1-2.422-2.422v-46.512a2.425 2.425 0 0 1 2.422-2.426H562.86a2.422 2.422 0 0 1 2.422 2.426v46.512a2.421 2.421 0 0 1-2.422 2.422Zm-136.864-4.848h134.442v-41.664H425.995Zm0 0"/><path fill="#4EA8F1" d="M562.86 337.633H423.573a2.425 2.425 0 0 1-2.422-2.426v-46.512a2.425 2.425 0 0 1 2.422-2.425H562.86a2.422 2.422 0 0 1 2.422 2.425v46.512a2.422 2.422 0 0 1-2.422 2.426Zm-136.864-4.852h134.442v-41.66H425.995Zm0 0"/><g clip-path="url(#Y)"><g fill="#90D1F4" clip-path="url(#Z)"><path d="M443.973 536.535 1364.23-384.96l2.395 2.395-920.262 921.5ZM456.457 536.535l920.258-921.496 2.394 2.395-920.257 921.5ZM468.941 536.535 1389.2-384.96l2.395 2.399L471.336 538.93ZM481.43 536.535l920.254-921.496 2.394 2.399L483.82 538.93ZM493.91 536.535l920.258-921.496 2.395 2.399-920.258 921.496ZM506.395 536.535l920.261-921.496 2.395 2.399-920.262 921.496ZM518.879 536.535l920.258-921.496 2.394 2.399-920.258 921.496ZM531.367 536.535l920.258-921.496 2.39 2.399-920.253 921.496ZM543.848 536.535l920.261-921.496 2.395 2.395-920.262 921.5ZM556.387 536.535l920.261-921.496 2.391 2.395-920.258 921.5ZM568.871 536.535 1489.13-384.96l2.394 2.399L571.266 538.93ZM581.355 536.535l920.258-921.496 2.395 2.399-920.262 921.496ZM593.84 536.535l920.262-921.496 2.39 2.399-920.258 921.496ZM606.328 536.535l920.258-921.496 2.394 2.399L608.72 538.933ZM618.813 536.535 1539.07-384.96l2.39 2.399L621.204 538.93ZM631.293 536.535l920.262-921.496 2.39 2.395-920.257 921.5ZM643.781 536.535 1564.04-384.96l2.395 2.395-920.262 921.5ZM656.266 536.535l920.257-921.496 2.391 2.399L658.656 538.93ZM668.75 536.535l920.258-921.496 2.394 2.399L671.145 538.93ZM681.234 536.535l920.258-921.496 2.395 2.399-920.262 921.496ZM693.453 536.535l920.258-921.496 2.394 2.399-920.257 921.496ZM705.938 536.535l920.257-921.496 2.395 2.399-920.258 921.496ZM718.422 536.535 1638.68-384.96l2.394 2.395-920.258 921.5ZM730.906 536.535l920.262-921.496 2.39 2.399-920.257 921.496ZM743.395 536.535l920.253-921.496 2.395 2.399L745.785 538.93ZM755.879 536.535l920.258-921.496 2.39 2.399L758.273 538.93Zm0 0"/></g></g><g clip-path="url(#aa)"><g clip-path="url(#ab)"><path fill="#90D1F4" d="M768.36 536.535 1688.62-384.96l2.395 2.399-920.262 921.496Zm0 0"/></g></g><g clip-path="url(#ac)"><g clip-path="url(#ad)"><path fill="#90D1F4" d="m780.848 536.535 920.257-921.496 2.395 2.395-920.258 921.5Zm0 0"/></g></g><g clip-path="url(#ae)"><g clip-path="url(#af)"><path fill="#90D1F4" d="M793.332 536.535 1713.59-384.96l2.394 2.399L795.727 538.93Zm0 0"/></g></g><g clip-path="url(#ag)"><g clip-path="url(#ah)"><path fill="#90D1F4" d="m805.816 536.535 920.258-921.496 2.395 2.399L808.21 538.933Zm0 0"/></g></g><g clip-path="url(#ai)"><g clip-path="url(#aj)"><path fill="#90D1F4" d="M818.3 536.535 1738.56-384.96l2.394 2.395-920.258 921.5Zm0 0"/></g></g><g clip-path="url(#ak)"><g clip-path="url(#al)"><path fill="#90D1F4" d="m829.66 536.535 920.258-921.496 2.39 2.399L832.056 538.93Zm0 0"/></g></g><g clip-path="url(#am)"><g clip-path="url(#an)"><path fill="#90D1F4" d="m842.145 536.535 920.257-921.496 2.395 2.399L844.539 538.93Zm0 0"/></g></g><g clip-path="url(#ao)"><g clip-path="url(#ap)"><path fill="#90D1F4" d="m854.629 536.535 920.258-921.496 2.394 2.399L857.02 538.933Zm0 0"/></g></g><g clip-path="url(#aq)"><g clip-path="url(#ar)"><path fill="#90D1F4" d="m867.113 536.535 920.262-921.496 2.39 2.395-920.257 921.5Zm0 0"/></g></g><g clip-path="url(#as)"><g clip-path="url(#at)"><path fill="#90D1F4" d="m879.598 536.535 920.257-921.496 2.395 2.399-920.258 921.496Zm0 0"/></g></g><g clip-path="url(#au)"><g clip-path="url(#av)"><path fill="#90D1F4" d="m892.086 536.535 920.258-921.496 2.39 2.399L894.48 538.93Zm0 0"/></g></g><g clip-path="url(#aw)"><g clip-path="url(#ax)"><path fill="#90D1F4" d="m904.566 536.535 920.262-921.496 2.39 2.399-920.257 921.496Zm0 0"/></g></g><g clip-path="url(#ay)"><g clip-path="url(#az)"><path fill="#90D1F4" d="m917.055 536.535 920.258-921.496 2.394 2.399-920.262 921.496Zm0 0"/></g></g><g clip-path="url(#aA)"><g clip-path="url(#aB)"><path fill="#90D1F4" d="m929.54 536.535 920.257-921.496 2.39 2.399L931.93 538.93Zm0 0"/></g></g><g clip-path="url(#aC)"><g fill="#90D1F4" clip-path="url(#aD)"><path d="m796.297 1369.422 920.262-921.5 2.394 2.394-920.262 921.5ZM808.781 1369.422l920.262-921.5 2.39 2.398-920.257 921.496ZM821.27 1369.422l920.257-921.5 2.395 2.398-920.262 921.496ZM833.75 1369.422l920.262-921.5 2.394 2.394-920.261 921.5ZM845.973 1369.422l920.257-921.5 2.395 2.398-920.262 921.496ZM858.457 1369.422l920.262-921.5 2.39 2.398-920.257 921.496ZM870.941 1369.422l920.262-921.5 2.39 2.394-920.261 921.5ZM883.426 1369.422l920.261-921.5 2.395 2.394-920.262 921.5ZM895.91 1369.422l920.258-921.5 2.395 2.398-920.258 921.496ZM908.398 1369.422l920.258-921.5 2.395 2.398-920.262 921.496ZM920.879 1369.422l920.262-921.5 2.394 2.394-920.262 921.5ZM933.363 1369.422l920.266-921.5 2.39 2.394-920.261 921.5ZM945.852 1369.418l920.257-921.496 2.395 2.398-920.262 921.496ZM958.336 1369.418l920.258-921.496 2.394 2.398-920.258 921.496Zm0 0"/></g></g></svg>