<svg id="Layer_1" data-name="Layer 1" xmlns="http://www.w3.org/2000/svg" xmlns:xlink="http://www.w3.org/1999/xlink" viewBox="0 0 876.8607 427.8198">
  <defs>
    <style>
      .cls-1 {
        fill: none;
      }

      .cls-2 {
        clip-path: url(#clip-path);
      }

      .cls-3 {
        fill: #daf0fb;
      }

      .cls-4 {
        fill: #64b5f6;
      }

      .cls-5 {
        fill: #4a586d;
      }

      .cls-6 {
        fill: #377aa0;
      }

      .cls-7 {
        fill: #1e80bc;
      }

      .cls-8 {
        fill: #bfdaed;
      }

      .cls-9 {
        fill: #fff;
      }

      .cls-10 {
        fill: #f7cbba;
      }

      .cls-11 {
        fill: #1d6a89;
      }
    </style>
    <clipPath id="clip-path">
      <rect class="cls-1" x="14.617" y="10.566" width="847.6268" height="405.6735" rx="68.5476"/>
    </clipPath>
  </defs>
  <title>Icons</title>
  <g>
    <g class="cls-2">
      <g>
        <g>
          <rect class="cls-3" x="-501.4448" y="214.4794" width="607.4841" height="0.9736" transform="translate(-222.5733 -76.0292) rotate(-47.4896)"/>
          <rect class="cls-3" x="-493.7242" y="214.4794" width="607.485" height="0.9736" transform="translate(-220.0696 -70.3375) rotate(-47.4896)"/>
          <rect class="cls-3" x="-486.0038" y="214.4794" width="607.485" height="0.9736" transform="translate(-217.566 -64.6464) rotate(-47.4896)"/>
          <rect class="cls-3" x="-478.2823" y="214.4794" width="607.4841" height="0.9736" transform="translate(-215.0623 -58.9548) rotate(-47.4896)"/>
          <rect class="cls-3" x="-470.5617" y="214.4794" width="607.485" height="0.9736" transform="translate(-212.5585 -53.2632) rotate(-47.4896)"/>
          <rect class="cls-3" x="-462.8401" y="214.4794" width="607.4841" height="0.9736" transform="translate(-210.0548 -47.5716) rotate(-47.4896)"/>
          <rect class="cls-3" x="-455.1198" y="214.4794" width="607.4841" height="0.9736" transform="translate(-207.5512 -41.8805) rotate(-47.4896)"/>
          <rect class="cls-3" x="-447.3992" y="214.4794" width="607.485" height="0.9736" transform="translate(-205.0475 -36.1889) rotate(-47.4896)"/>
          <rect class="cls-3" x="-440.3749" y="214.4794" width="607.4841" height="0.9736" transform="translate(-202.7699 -31.0113) rotate(-47.4896)"/>
          <rect class="cls-3" x="-432.6543" y="214.4794" width="607.485" height="0.9736" transform="translate(-200.2661 -25.3196) rotate(-47.4896)"/>
          <rect class="cls-3" x="-424.9328" y="214.4794" width="607.4841" height="0.9736" transform="translate(-197.7624 -19.628) rotate(-47.4896)"/>
          <rect class="cls-3" x="-417.2124" y="214.4794" width="607.4841" height="0.9736" transform="translate(-195.2588 -13.9369) rotate(-47.4896)"/>
          <rect class="cls-3" x="-409.4918" y="214.4794" width="607.485" height="0.9736" transform="translate(-192.7551 -8.2453) rotate(-47.4896)"/>
          <rect class="cls-3" x="-401.7703" y="214.4794" width="607.4841" height="0.9736" transform="translate(-190.2513 -2.5537) rotate(-47.4896)"/>
          <rect class="cls-3" x="-394.0497" y="214.4794" width="607.485" height="0.9736" transform="translate(-187.7476 3.1379) rotate(-47.4896)"/>
          <rect class="cls-3" x="-386.3293" y="214.4794" width="607.485" height="0.9736" transform="translate(-185.244 8.829) rotate(-47.4896)"/>
          <rect class="cls-3" x="-378.6078" y="214.4794" width="607.4841" height="0.9736" transform="translate(-182.7403 14.5206) rotate(-47.4896)"/>
          <rect class="cls-3" x="-370.8872" y="214.4794" width="607.485" height="0.9736" transform="translate(-180.2365 20.2122) rotate(-47.4896)"/>
          <rect class="cls-3" x="-363.1668" y="214.4794" width="607.485" height="0.9736" transform="translate(-177.733 25.9034) rotate(-47.4896)"/>
          <rect class="cls-3" x="-355.4138" y="214.4794" width="607.485" height="0.9736" transform="translate(-175.2189 31.6185) rotate(-47.4896)"/>
          <rect class="cls-3" x="-347.6934" y="214.4794" width="607.485" height="0.9736" transform="translate(-172.7154 37.3096) rotate(-47.4896)"/>
          <rect class="cls-3" x="-339.9719" y="214.4794" width="607.4841" height="0.9736" transform="translate(-170.2116 43.0012) rotate(-47.4896)"/>
          <rect class="cls-3" x="-332.2513" y="214.4794" width="607.485" height="0.9736" transform="translate(-167.7079 48.6928) rotate(-47.4896)"/>
          <rect class="cls-3" x="-324.5298" y="214.4794" width="607.4841" height="0.9736" transform="translate(-165.2041 54.3845) rotate(-47.4896)"/>
          <rect class="cls-3" x="-316.8094" y="214.4794" width="607.4841" height="0.9736" transform="translate(-162.7006 60.0756) rotate(-47.4896)"/>
          <rect class="cls-3" x="-309.0888" y="214.4794" width="607.485" height="0.9736" transform="translate(-160.1969 65.7672) rotate(-47.4896)"/>
          <rect class="cls-3" x="-301.3673" y="214.4794" width="607.4841" height="0.9736" transform="translate(-157.6931 71.4588) rotate(-47.4896)"/>
          <rect class="cls-3" x="-293.6467" y="214.4794" width="607.485" height="0.9736" transform="translate(-155.1894 77.1504) rotate(-47.4896)"/>
          <rect class="cls-3" x="-285.9263" y="214.4794" width="607.485" height="0.9736" transform="translate(-152.6858 82.8415) rotate(-47.4896)"/>
          <rect class="cls-3" x="-278.2048" y="214.4794" width="607.4841" height="0.9736" transform="translate(-150.1821 88.5331) rotate(-47.4896)"/>
          <rect class="cls-3" x="-270.6487" y="214.4794" width="607.485" height="0.9736" transform="translate(-147.7317 94.1035) rotate(-47.4896)"/>
          <rect class="cls-3" x="-262.9283" y="214.4794" width="607.485" height="0.9736" transform="translate(-145.2281 99.7946) rotate(-47.4896)"/>
          <rect class="cls-3" x="-255.2067" y="214.4794" width="607.4841" height="0.9736" transform="translate(-142.7244 105.4862) rotate(-47.4896)"/>
          <rect class="cls-3" x="-247.4861" y="214.4794" width="607.485" height="0.9736" transform="translate(-140.2206 111.1778) rotate(-47.4896)"/>
          <rect class="cls-3" x="-239.7658" y="214.4794" width="607.485" height="0.9736" transform="translate(-137.7171 116.8689) rotate(-47.4896)"/>
          <rect class="cls-3" x="-232.0442" y="214.4794" width="607.4841" height="0.9736" transform="translate(-135.2133 122.5606) rotate(-47.4896)"/>
          <rect class="cls-3" x="-224.3236" y="214.4794" width="607.485" height="0.9736" transform="translate(-132.7096 128.2522) rotate(-47.4896)"/>
          <rect class="cls-3" x="-216.6033" y="214.4794" width="607.485" height="0.9736" transform="translate(-130.2061 133.9433) rotate(-47.4896)"/>
          <rect class="cls-3" x="-208.8817" y="214.4794" width="607.4841" height="0.9736" transform="translate(-127.7023 139.6349) rotate(-47.4896)"/>
          <rect class="cls-3" x="-201.1611" y="214.4794" width="607.485" height="0.9736" transform="translate(-125.1986 145.3265) rotate(-47.4896)"/>
          <rect class="cls-3" x="-193.4396" y="214.4794" width="607.4841" height="0.9736" transform="translate(-122.6948 151.0181) rotate(-47.4896)"/>
          <rect class="cls-3" x="-186.0074" y="214.4794" width="607.4841" height="0.9736" transform="translate(-120.2847 156.4968) rotate(-47.4896)"/>
          <rect class="cls-3" x="-178.2868" y="214.4794" width="607.485" height="0.9736" transform="translate(-117.781 162.1884) rotate(-47.4896)"/>
          <rect class="cls-3" x="-170.5664" y="214.4794" width="607.485" height="0.9736" transform="translate(-115.2775 167.8795) rotate(-47.4896)"/>
          <rect class="cls-3" x="-162.8449" y="214.4794" width="607.4841" height="0.9736" transform="translate(-112.7737 173.5711) rotate(-47.4896)"/>
          <rect class="cls-3" x="-155.1243" y="214.4794" width="607.485" height="0.9736" transform="translate(-110.27 179.2628) rotate(-47.4896)"/>
          <rect class="cls-3" x="-147.4039" y="214.4794" width="607.485" height="0.9736" transform="translate(-107.7664 184.9539) rotate(-47.4896)"/>
          <rect class="cls-3" x="-139.6824" y="214.4794" width="607.4841" height="0.9736" transform="translate(-105.2627 190.6455) rotate(-47.4896)"/>
          <rect class="cls-3" x="-132.1263" y="214.4794" width="607.485" height="0.9736" transform="translate(-102.8123 196.2159) rotate(-47.4896)"/>
          <rect class="cls-3" x="-124.4047" y="214.4794" width="607.4841" height="0.9736" transform="translate(-100.3085 201.9075) rotate(-47.4896)"/>
          <rect class="cls-3" x="-116.6844" y="214.4794" width="607.4841" height="0.9736" transform="translate(-97.805 207.5986) rotate(-47.4896)"/>
          <rect class="cls-3" x="-108.9638" y="214.4794" width="607.485" height="0.9736" transform="translate(-95.3012 213.2902) rotate(-47.4896)"/>
          <rect class="cls-3" x="-101.2422" y="214.4794" width="607.4841" height="0.9736" transform="translate(-92.7975 218.9818) rotate(-47.4896)"/>
          <rect class="cls-3" x="-93.5216" y="214.4794" width="607.485" height="0.9736" transform="translate(-90.2937 224.6734) rotate(-47.4896)"/>
          <rect class="cls-3" x="-85.8013" y="214.4794" width="607.485" height="0.9736" transform="translate(-87.7902 230.3645) rotate(-47.4896)"/>
          <rect class="cls-3" x="-78.0797" y="214.4794" width="607.4841" height="0.9736" transform="translate(-85.2864 236.0561) rotate(-47.4896)"/>
          <rect class="cls-3" x="-70.3591" y="214.4794" width="607.485" height="0.9736" transform="translate(-82.7827 241.7477) rotate(-47.4896)"/>
          <rect class="cls-3" x="-62.6388" y="214.4794" width="607.485" height="0.9736" transform="translate(-80.2792 247.4389) rotate(-47.4896)"/>
          <rect class="cls-3" x="-54.9172" y="214.4794" width="607.4841" height="0.9736" transform="translate(-77.7754 253.1305) rotate(-47.4896)"/>
          <rect class="cls-3" x="-47.8939" y="214.4794" width="607.485" height="0.9736" transform="translate(-75.4978 258.3081) rotate(-47.4896)"/>
          <rect class="cls-3" x="-40.1724" y="214.4794" width="607.4841" height="0.9736" transform="translate(-72.994 263.9997) rotate(-47.4896)"/>
          <rect class="cls-3" x="-32.4518" y="214.4794" width="607.485" height="0.9736" transform="translate(-70.4903 269.6913) rotate(-47.4896)"/>
          <rect class="cls-3" x="-24.7314" y="214.4794" width="607.485" height="0.9736" transform="translate(-67.9867 275.3824) rotate(-47.4896)"/>
          <rect class="cls-3" x="-17.0099" y="214.4794" width="607.4841" height="0.9736" transform="translate(-65.483 281.074) rotate(-47.4896)"/>
          <rect class="cls-3" x="-9.2893" y="214.4794" width="607.485" height="0.9736" transform="translate(-62.9793 286.7656) rotate(-47.4896)"/>
          <rect class="cls-3" x="-1.5689" y="214.4794" width="607.485" height="0.9736" transform="translate(-60.4757 292.4567) rotate(-47.4896)"/>
          <rect class="cls-3" x="6.1526" y="214.4794" width="607.4841" height="0.9736" transform="translate(-57.972 298.1484) rotate(-47.4896)"/>
          <rect class="cls-3" x="13.8732" y="214.4794" width="607.485" height="0.9736" transform="translate(-55.4682 303.84) rotate(-47.4896)"/>
          <rect class="cls-3" x="21.5947" y="214.4794" width="607.4841" height="0.9736" transform="translate(-52.9645 309.5316) rotate(-47.4896)"/>
          <rect class="cls-3" x="29.3151" y="214.4794" width="607.4841" height="0.9736" transform="translate(-50.4609 315.2227) rotate(-47.4896)"/>
          <rect class="cls-3" x="37.0681" y="214.4794" width="607.4841" height="0.9736" transform="translate(-47.9468 320.9379) rotate(-47.4896)"/>
          <rect class="cls-3" x="44.7887" y="214.4794" width="607.485" height="0.9736" transform="translate(-45.4431 326.6295) rotate(-47.4896)"/>
          <rect class="cls-3" x="52.5091" y="214.4794" width="607.485" height="0.9736" transform="translate(-42.9396 332.3206) rotate(-47.4896)"/>
          <rect class="cls-3" x="60.2306" y="214.4794" width="607.4841" height="0.9736" transform="translate(-40.4358 338.0122) rotate(-47.4896)"/>
          <rect class="cls-3" x="67.9512" y="214.4794" width="607.485" height="0.9736" transform="translate(-37.9321 343.7038) rotate(-47.4896)"/>
          <rect class="cls-3" x="75.6716" y="214.4794" width="607.485" height="0.9736" transform="translate(-35.4285 349.3949) rotate(-47.4896)"/>
          <rect class="cls-3" x="83.3931" y="214.4794" width="607.4841" height="0.9736" transform="translate(-32.9248 355.0865) rotate(-47.4896)"/>
          <rect class="cls-3" x="91.1137" y="214.4794" width="607.485" height="0.9736" transform="translate(-30.421 360.7781) rotate(-47.4896)"/>
          <rect class="cls-3" x="98.8341" y="214.4794" width="607.485" height="0.9736" transform="translate(-27.9175 366.4692) rotate(-47.4896)"/>
          <rect class="cls-3" x="106.5556" y="214.4794" width="607.4841" height="0.9736" transform="translate(-25.4137 372.1609) rotate(-47.4896)"/>
          <rect class="cls-3" x="114.2762" y="214.4794" width="607.485" height="0.9736" transform="translate(-22.91 377.8525) rotate(-47.4896)"/>
          <rect class="cls-3" x="121.8321" y="214.4794" width="607.485" height="0.9736" transform="translate(-20.4598 383.4223) rotate(-47.4896)"/>
          <rect class="cls-3" x="129.5537" y="214.4794" width="607.4841" height="0.9736" transform="translate(-17.9561 389.114) rotate(-47.4896)"/>
          <rect class="cls-3" x="137.2743" y="214.4794" width="607.485" height="0.9736" transform="translate(-15.4523 394.8056) rotate(-47.4896)"/>
          <rect class="cls-3" x="144.9958" y="214.4794" width="607.4841" height="0.9736" transform="translate(-12.9486 400.4972) rotate(-47.4896)"/>
          <rect class="cls-3" x="152.7162" y="214.4794" width="607.4841" height="0.9736" transform="translate(-10.445 406.1883) rotate(-47.4896)"/>
          <rect class="cls-3" x="160.4368" y="214.4794" width="607.485" height="0.9736" transform="translate(-7.9413 411.8799) rotate(-47.4896)"/>
          <rect class="cls-3" x="168.1583" y="214.4794" width="607.4841" height="0.9736" transform="translate(-5.4375 417.5715) rotate(-47.4896)"/>
          <rect class="cls-3" x="175.8789" y="214.4794" width="607.485" height="0.9736" transform="translate(-2.9338 423.2631) rotate(-47.4896)"/>
          <rect class="cls-3" x="183.5993" y="214.4794" width="607.485" height="0.9736" transform="translate(-0.4302 428.9542) rotate(-47.4896)"/>
          <rect class="cls-3" x="191.3208" y="214.4794" width="607.4841" height="0.9736" transform="translate(2.0735 434.6458) rotate(-47.4896)"/>
          <rect class="cls-3" x="199.0414" y="214.4794" width="607.485" height="0.9736" transform="translate(4.5773 440.3375) rotate(-47.4896)"/>
        </g>
        <g>
          <rect class="cls-3" x="207.0116" y="214.4794" width="607.4841" height="0.9736" transform="translate(7.1617 446.2124) rotate(-47.4896)"/>
          <rect class="cls-3" x="214.7322" y="214.4794" width="607.485" height="0.9736" transform="translate(9.6654 451.904) rotate(-47.4896)"/>
          <rect class="cls-3" x="222.4526" y="214.4794" width="607.485" height="0.9736" transform="translate(12.1689 457.5951) rotate(-47.4896)"/>
          <rect class="cls-3" x="230.1741" y="214.4794" width="607.4841" height="0.9736" transform="translate(14.6727 463.2868) rotate(-47.4896)"/>
          <rect class="cls-3" x="237.8947" y="214.4794" width="607.485" height="0.9736" transform="translate(17.1764 468.9784) rotate(-47.4896)"/>
          <rect class="cls-3" x="245.6151" y="214.4794" width="607.485" height="0.9736" transform="translate(19.68 474.6695) rotate(-47.4896)"/>
          <rect class="cls-3" x="253.3366" y="214.4794" width="607.4841" height="0.9736" transform="translate(22.1837 480.3611) rotate(-47.4896)"/>
          <rect class="cls-3" x="261.0573" y="214.4794" width="607.485" height="0.9736" transform="translate(24.6875 486.0527) rotate(-47.4896)"/>
          <rect class="cls-3" x="268.0815" y="214.4794" width="607.4841" height="0.9736" transform="translate(26.9651 491.2303) rotate(-47.4896)"/>
          <rect class="cls-3" x="275.8021" y="214.4794" width="607.485" height="0.9736" transform="translate(29.4689 496.9219) rotate(-47.4896)"/>
          <rect class="cls-3" x="283.5225" y="214.4794" width="607.485" height="0.9736" transform="translate(31.9724 502.613) rotate(-47.4896)"/>
          <rect class="cls-3" x="291.244" y="214.4794" width="607.4841" height="0.9736" transform="translate(34.4761 508.3047) rotate(-47.4896)"/>
          <rect class="cls-3" x="298.9646" y="214.4794" width="607.485" height="0.9736" transform="translate(36.9799 513.9963) rotate(-47.4896)"/>
          <rect class="cls-3" x="306.685" y="214.4794" width="607.485" height="0.9736" transform="translate(39.4834 519.6874) rotate(-47.4896)"/>
          <rect class="cls-3" x="314.4065" y="214.4794" width="607.4841" height="0.9736" transform="translate(41.9872 525.379) rotate(-47.4896)"/>
          <rect class="cls-3" x="322.1271" y="214.4794" width="607.485" height="0.9736" transform="translate(44.4909 531.0706) rotate(-47.4896)"/>
          <rect class="cls-3" x="329.8486" y="214.4794" width="607.4841" height="0.9736" transform="translate(46.9947 536.7622) rotate(-47.4896)"/>
          <rect class="cls-3" x="337.569" y="214.4794" width="607.4841" height="0.9736" transform="translate(49.4982 542.4533) rotate(-47.4896)"/>
          <rect class="cls-3" x="345.2896" y="214.4794" width="607.485" height="0.9736" transform="translate(52.0019 548.1449) rotate(-47.4896)"/>
          <rect class="cls-3" x="353.0424" y="214.4794" width="607.4841" height="0.9736" transform="translate(54.5158 553.8596) rotate(-47.4896)"/>
          <rect class="cls-3" x="360.763" y="214.4794" width="607.485" height="0.9736" transform="translate(57.0196 559.5512) rotate(-47.4896)"/>
          <rect class="cls-3" x="368.4845" y="214.4794" width="607.4841" height="0.9736" transform="translate(59.5233 565.2428) rotate(-47.4896)"/>
          <rect class="cls-3" x="376.2051" y="214.4794" width="607.485" height="0.9736" transform="translate(62.0271 570.9344) rotate(-47.4896)"/>
          <rect class="cls-3" x="383.9255" y="214.4794" width="607.485" height="0.9736" transform="translate(64.5306 576.6255) rotate(-47.4896)"/>
          <rect class="cls-3" x="391.647" y="214.4794" width="607.4841" height="0.9736" transform="translate(67.0344 582.3171) rotate(-47.4896)"/>
          <rect class="cls-3" x="399.3676" y="214.4794" width="607.485" height="0.9736" transform="translate(69.5381 588.0088) rotate(-47.4896)"/>
          <rect class="cls-3" x="407.088" y="214.4794" width="607.485" height="0.9736" transform="translate(72.0416 593.6999) rotate(-47.4896)"/>
          <rect class="cls-3" x="414.8095" y="214.4794" width="607.4841" height="0.9736" transform="translate(74.5454 599.3915) rotate(-47.4896)"/>
          <rect class="cls-3" x="422.5301" y="214.4794" width="607.485" height="0.9736" transform="translate(77.0491 605.0831) rotate(-47.4896)"/>
          <rect class="cls-3" x="430.2505" y="214.4794" width="607.485" height="0.9736" transform="translate(79.5527 610.7742) rotate(-47.4896)"/>
          <rect class="cls-3" x="437.8075" y="214.4794" width="607.4841" height="0.9736" transform="translate(82.0031 616.3446) rotate(-47.4896)"/>
          <rect class="cls-3" x="445.5281" y="214.4794" width="607.485" height="0.9736" transform="translate(84.5068 622.0362) rotate(-47.4896)"/>
          <rect class="cls-3" x="453.2497" y="214.4794" width="607.4841" height="0.9736" transform="translate(87.0106 627.7278) rotate(-47.4896)"/>
          <rect class="cls-3" x="460.97" y="214.4794" width="607.4841" height="0.9736" transform="translate(89.5141 633.4189) rotate(-47.4896)"/>
          <rect class="cls-3" x="468.6906" y="214.4794" width="607.485" height="0.9736" transform="translate(92.0179 639.1105) rotate(-47.4896)"/>
          <rect class="cls-3" x="476.4122" y="214.4794" width="607.4841" height="0.9736" transform="translate(94.5216 644.8021) rotate(-47.4896)"/>
          <rect class="cls-3" x="484.1328" y="214.4794" width="607.485" height="0.9736" transform="translate(97.0254 650.4937) rotate(-47.4896)"/>
          <rect class="cls-3" x="491.8531" y="214.4794" width="607.485" height="0.9736" transform="translate(99.5289 656.1849) rotate(-47.4896)"/>
          <rect class="cls-3" x="499.5747" y="214.4794" width="607.4841" height="0.9736" transform="translate(102.0326 661.8765) rotate(-47.4896)"/>
          <rect class="cls-3" x="507.2953" y="214.4794" width="607.485" height="0.9736" transform="translate(104.5364 667.5681) rotate(-47.4896)"/>
          <rect class="cls-3" x="515.0156" y="214.4794" width="607.485" height="0.9736" transform="translate(107.0399 673.2592) rotate(-47.4896)"/>
          <rect class="cls-3" x="522.449" y="214.4794" width="607.4841" height="0.9736" transform="translate(109.4502 678.7384) rotate(-47.4896)"/>
          <rect class="cls-3" x="530.1694" y="214.4794" width="607.4841" height="0.9736" transform="translate(111.9538 684.4295) rotate(-47.4896)"/>
          <rect class="cls-3" x="537.89" y="214.4794" width="607.485" height="0.9736" transform="translate(114.4575 690.1211) rotate(-47.4896)"/>
          <rect class="cls-3" x="545.6115" y="214.4794" width="607.4841" height="0.9736" transform="translate(116.9613 695.8127) rotate(-47.4896)"/>
          <rect class="cls-3" x="553.3321" y="214.4794" width="607.485" height="0.9736" transform="translate(119.465 701.5043) rotate(-47.4896)"/>
          <rect class="cls-3" x="561.0525" y="214.4794" width="607.485" height="0.9736" transform="translate(121.9685 707.1954) rotate(-47.4896)"/>
          <rect class="cls-3" x="568.774" y="214.4794" width="607.4841" height="0.9736" transform="translate(124.4723 712.8871) rotate(-47.4896)"/>
          <rect class="cls-3" x="576.3302" y="214.4794" width="607.485" height="0.9736" transform="translate(126.9227 718.4574) rotate(-47.4896)"/>
          <rect class="cls-3" x="584.0505" y="214.4794" width="607.485" height="0.9736" transform="translate(129.4262 724.1485) rotate(-47.4896)"/>
          <rect class="cls-3" x="591.7721" y="214.4794" width="607.4841" height="0.9736" transform="translate(131.93 729.8402) rotate(-47.4896)"/>
          <rect class="cls-3" x="599.4927" y="214.4794" width="607.485" height="0.9736" transform="translate(134.4337 735.5318) rotate(-47.4896)"/>
          <rect class="cls-3" x="607.213" y="214.4794" width="607.485" height="0.9736" transform="translate(136.9373 741.2229) rotate(-47.4896)"/>
          <rect class="cls-3" x="614.9346" y="214.4794" width="607.4841" height="0.9736" transform="translate(139.441 746.9145) rotate(-47.4896)"/>
          <rect class="cls-3" x="622.6552" y="214.4794" width="607.485" height="0.9736" transform="translate(141.9448 752.6061) rotate(-47.4896)"/>
          <rect class="cls-3" x="630.3767" y="214.4794" width="607.4841" height="0.9736" transform="translate(144.4485 758.2977) rotate(-47.4896)"/>
          <rect class="cls-3" x="638.0971" y="214.4794" width="607.4841" height="0.9736" transform="translate(146.952 763.9888) rotate(-47.4896)"/>
          <rect class="cls-3" x="645.8177" y="214.4794" width="607.485" height="0.9736" transform="translate(149.4558 769.6804) rotate(-47.4896)"/>
          <rect class="cls-3" x="653.5392" y="214.4794" width="607.4841" height="0.9736" transform="translate(151.9595 775.372) rotate(-47.4896)"/>
          <rect class="cls-3" x="660.5625" y="214.4794" width="607.485" height="0.9736" transform="translate(154.2372 780.5497) rotate(-47.4896)"/>
          <rect class="cls-3" x="668.284" y="214.4794" width="607.4841" height="0.9736" transform="translate(156.7409 786.2413) rotate(-47.4896)"/>
          <rect class="cls-3" x="676.0044" y="214.4794" width="607.4841" height="0.9736" transform="translate(159.2445 791.9324) rotate(-47.4896)"/>
          <rect class="cls-3" x="683.725" y="214.4794" width="607.485" height="0.9736" transform="translate(161.7482 797.624) rotate(-47.4896)"/>
          <rect class="cls-3" x="691.4465" y="214.4794" width="607.4841" height="0.9736" transform="translate(164.252 803.3156) rotate(-47.4896)"/>
          <rect class="cls-3" x="699.1671" y="214.4794" width="607.485" height="0.9736" transform="translate(166.7557 809.0072) rotate(-47.4896)"/>
          <rect class="cls-3" x="706.8875" y="214.4794" width="607.485" height="0.9736" transform="translate(169.2592 814.6983) rotate(-47.4896)"/>
          <rect class="cls-3" x="714.609" y="214.4794" width="607.4841" height="0.9736" transform="translate(171.763 820.3899) rotate(-47.4896)"/>
          <rect class="cls-3" x="722.3296" y="214.4794" width="607.485" height="0.9736" transform="translate(174.2667 826.0815) rotate(-47.4896)"/>
          <rect class="cls-3" x="730.05" y="214.4794" width="607.485" height="0.9736" transform="translate(176.7703 831.7727) rotate(-47.4896)"/>
          <rect class="cls-3" x="737.7715" y="214.4794" width="607.4841" height="0.9736" transform="translate(179.274 837.4643) rotate(-47.4896)"/>
          <rect class="cls-3" x="745.5234" y="214.4794" width="607.485" height="0.9736" transform="translate(181.7879 843.1789) rotate(-47.4896)"/>
          <rect class="cls-3" x="753.2449" y="214.4794" width="607.4841" height="0.9736" transform="translate(184.2917 848.8705) rotate(-47.4896)"/>
          <rect class="cls-3" x="760.9655" y="214.4794" width="607.485" height="0.9736" transform="translate(186.7954 854.5622) rotate(-47.4896)"/>
          <rect class="cls-3" x="768.6859" y="214.4794" width="607.485" height="0.9736" transform="translate(189.2989 860.2533) rotate(-47.4896)"/>
          <rect class="cls-3" x="776.4074" y="214.4794" width="607.4841" height="0.9736" transform="translate(191.8027 865.9449) rotate(-47.4896)"/>
        </g>
      </g>
    </g>
    <g>
      <path class="cls-4" d="M517.9541,246.4652a14.2732,14.2732,0,0,0-6.5631,1.6l-28.4019-28.4H455.0123V207.14h27.9768l28.4019-28.3986a14.3828,14.3828,0,1,0-6.6132-7.0435l-25.7884,25.788H455.0123V184.7644H469.7l20.12-19.5288v-41.02a14.3763,14.3763,0,1,0-9.6541,0v36.9355l-14.3808,13.96H454.13l-26.74-27.4628L400.6509,175.11h-11.657l-14.3792-13.96V124.2152a14.3777,14.3777,0,1,0-9.6542,0v41.02l20.1188,19.5288h14.69v12.7215H375.7918l-25.7884-25.788a14.4282,14.4282,0,1,0-6.6133,7.0435L371.792,207.14h27.9769v12.5254H371.792l-28.4019,28.4a14.3827,14.3827,0,1,0,6.6133,7.0435l25.7884-25.79h23.9771v12.7232h-14.69l-20.1188,19.5287V302.59a14.3762,14.3762,0,1,0,9.6542,0v-36.934l14.3792-13.9595h11.689L427.39,281.2917l26.7085-29.5949h11.6874l14.3808,13.9595V302.59a14.3763,14.3763,0,1,0,9.6541,0V261.5714L469.7,242.0427h-14.688V229.32h23.9771l25.7884,25.79a14.3716,14.3716,0,1,0,13.1763-8.6439Zm0-85.2217a4.7221,4.7221,0,1,1-4.7221,4.7221A4.7277,4.7277,0,0,1,517.9541,161.2435Zm-32.9605-55.2754a4.7222,4.7222,0,1,1-4.7221,4.7221A4.7277,4.7277,0,0,1,484.9936,105.9681Zm-115.206,0a4.7222,4.7222,0,1,1-4.7236,4.7221A4.7277,4.7277,0,0,1,369.7876,105.9681Zm-32.9605,64.72a4.7221,4.7221,0,1,1,4.7221-4.7221A4.7276,4.7276,0,0,1,336.8271,170.6877Zm0,94.8758a4.7221,4.7221,0,1,1,4.7221-4.7221A4.7276,4.7276,0,0,1,336.8271,265.5635Zm32.9605,55.2739a4.7222,4.7222,0,1,1,4.7221-4.7221A4.729,4.729,0,0,1,369.7876,320.8374Zm115.206,0a4.7222,4.7222,0,1,1,4.7221-4.7221A4.7276,4.7276,0,0,1,484.9936,320.8374ZM445.3582,246.97l-17.9684,19.91L409.423,246.97V179.94L427.39,161.4868,445.3582,179.94Zm72.5959,18.5934a4.7221,4.7221,0,1,1,4.7221-4.7221A4.7277,4.7277,0,0,1,517.9541,265.5635Z"/>
      <path class="cls-5" d="M210.5312,131.6532s-2.0773-11.5632-17.2259-15.5658c-14.8894-3.9341-16.5095,4.2876-16.5095,4.2876s-14.3422-4.8006-18.511,11.2782c-3.3894,13.0718-4.3546,21.3094-1.5937,27.3964s5.3551,11.6034,9.191,15.7088a59.5894,59.5894,0,0,0,7.912,7.0131l4.9727.3205h0l5.6409.3637,10.6143-.6842a59.6281,59.6281,0,0,0,7.9119-7.0131c3.8353-4.1054,6.43-9.6217,9.1905-15.7088S213.5329,144.8243,210.5312,131.6532Z"/>
      <path class="cls-6" d="M237.972,300.3709v.5892a4.175,4.175,0,0,1-4.1751,4.1751H134.89a4.175,4.175,0,0,1-4.1751-4.1751v-.5892"/>
      <path class="cls-7" d="M243.3361,218.3035H125.3512a9.2076,9.2076,0,0,0-9.0678,10.81l10.46,59.2048a9.2074,9.2074,0,0,0,9.0671,7.606h97.0658a9.2074,9.2074,0,0,0,9.0671-7.606l10.46-59.2048A9.2075,9.2075,0,0,0,243.3361,218.3035Z"/>
      <path class="cls-8" d="M241.4411,212.5532c-1.52-4.0883-4.7395-11.771-9.2987-17.47-6.5-8.1245-16.7909-10.2911-23.8318-10.8328h-1.7871c-5.6176,8.2326-13.03,13.9422-22.1805,13.9422s-16.5624-5.71-22.18-13.9422H160.376c-7.041.5417-17.3323,2.7083-23.8318,10.8328-4.5592,5.699-7.7787,13.3817-9.2987,17.47Z"/>
      <rect class="cls-7" x="620.965" y="129.412" width="139.7554" height="49.6286" rx="6.1294"/>
      <rect class="cls-9" x="635.1278" y="143.3811" width="5.9127" height="21.69"/>
      <rect class="cls-9" x="650.1717" y="143.3811" width="5.9127" height="21.69"/>
      <rect class="cls-9" x="665.2157" y="143.3811" width="5.9127" height="21.69"/>
      <circle class="cls-9" cx="710.4876" cy="154.2262" r="7.7033"/>
      <circle class="cls-9" cx="736.6416" cy="154.2262" r="7.7033"/>
      <rect class="cls-8" x="620.965" y="190.2421" width="139.7554" height="49.6286" rx="6.1294"/>
      <rect class="cls-6" x="635.1278" y="204.2112" width="5.9127" height="21.69"/>
      <rect class="cls-6" x="650.1717" y="204.2112" width="5.9127" height="21.69"/>
      <rect class="cls-6" x="665.2157" y="204.2112" width="5.9127" height="21.69"/>
      <circle class="cls-5" cx="710.4876" cy="215.0564" r="7.7033"/>
      <circle class="cls-5" cx="736.6416" cy="215.0564" r="7.7033"/>
      <rect class="cls-7" x="620.965" y="251.0723" width="139.7554" height="49.6286" rx="6.1294"/>
      <rect class="cls-9" x="635.1278" y="265.0414" width="5.9127" height="21.69"/>
      <rect class="cls-9" x="650.1717" y="265.0414" width="5.9127" height="21.69"/>
      <rect class="cls-9" x="665.2157" y="265.0414" width="5.9127" height="21.69"/>
      <circle class="cls-9" cx="710.4876" cy="275.8865" r="7.7033"/>
      <circle class="cls-9" cx="736.6416" cy="275.8865" r="7.7033"/>
      <path class="cls-10" d="M211.4576,150.3166c-.5733-2.0366-1.9846-1.2685-3.0574-.2836,0,0,.7963,3.3011-1.6129,10.1431-1.6063-8.0394-18.1488-11.2894-24.2523-12.1446s-8.3515-11.5888-8.3515-11.5888c-.4824-3.25-.9641-2.3948-1.9275-.2565s-4.3366,10.8189-7.87,12.5295-2.4092,6.3288-2.8915,10.092c-1.2846-2.7368-1.2079-8.7744-1.2079-8.7744-1.0728-.9849-2.4835-1.7537-3.0574.2833-.98,3.4773-.1029,10.7791,3.05,12.17a8.1722,8.1722,0,0,0,1.5813.5438c3.0937,14.0613,10.6977,24.82,22.4825,24.82s19.3888-10.7583,22.4825-24.82a8.1586,8.1586,0,0,0,1.5813-.5438C211.5605,161.0957,212.4377,153.7939,211.4576,150.3166Z"/>
      <path class="cls-5" d="M161.4947,158.8077c.4823-3.7632-.6423-8.3814,2.8915-10.092s6.9058-10.3914,7.87-12.5295,1.4451-2.9935,1.9275.2565c0,0,2.248,10.7334,8.3515,11.5888s22.646,4.1052,24.2523,12.1446c2.4092-6.842,1.6129-10.1431,1.6129-10.1431a35.3,35.3,0,0,0-.3717-5.8323c-3.0824-19.29-17.0581-24.0732-23.685-24.0732s-20.6026,4.7831-23.685,24.0732a35.4435,35.4435,0,0,0-.3717,5.8326S160.21,156.0709,161.4947,158.8077Z"/>
      <g>
        <path class="cls-7" d="M453.8866,225.8379h-4.8715a.696.696,0,0,1,0-1.3919h4.8715a.696.696,0,0,1,0,1.3919Z"/>
        <path class="cls-7" d="M596.1455,281.3757H585.8806a.696.696,0,0,1,0-1.3919h10.2649a.696.696,0,0,1,0,1.3919Zm-20.5284,0H565.3523a.696.696,0,0,1,0-1.3919h10.2648a.696.696,0,1,1,0,1.3919Zm-20.53,0H544.8226a.696.696,0,0,1,0-1.3919h10.2648a.696.696,0,1,1,0,1.3919Zm-19.8881-2.7388a.6933.6933,0,0,1-.4458-.1618q-.4629-.3832-.89-.8114l-6.4509-6.4509a.6959.6959,0,0,1,.9841-.9841l6.4509,6.4509c.2555.2555.5219.4961.7978.7272a.6959.6959,0,0,1-.4458,1.23Zm-14.5532-14.4785a.6933.6933,0,0,1-.492-.2039l-7.2583-7.2582a.6959.6959,0,0,1,.9841-.9841l7.2583,7.2583a.6959.6959,0,0,1-.4921,1.1879ZM506.13,249.6419a.6933.6933,0,0,1-.492-.2039l-7.2583-7.2582a.6959.6959,0,0,1,.9841-.9841l7.2583,7.2583a.6959.6959,0,0,1-.4921,1.1879Zm-14.5165-14.5165a.6936.6936,0,0,1-.492-.2038l-5.7808-5.78a11.3248,11.3248,0,0,0-1.506-1.264.6957.6957,0,0,1,.7992-1.1391,12.76,12.76,0,0,1,1.6909,1.4191l5.7808,5.7794a.6959.6959,0,0,1-.4921,1.1879Zm-17.1968-9.2875H464.1514a.696.696,0,0,1,0-1.3919h10.2649a.696.696,0,0,1,0,1.3919Z"/>
        <path class="cls-7" d="M611.29,281.3757h-4.8714a.696.696,0,1,1,0-1.3919H611.29a.696.696,0,0,1,0,1.3919Z"/>
      </g>
      <g>
        <path class="cls-7" d="M225.6351,144.0766h-4.8714a.6959.6959,0,0,1,0-1.3918h4.8714a.6959.6959,0,1,1,0,1.3918Z"/>
        <path class="cls-7" d="M390.96,202.6455h-9.4289a.696.696,0,0,1,0-1.3919H390.96a.696.696,0,0,1,0,1.3919Zm-18.6077-1.4734a.6875.6875,0,0,1-.3344-.0857,12.6478,12.6478,0,0,1-2.8707-2.1516l-4.2611-4.2612a.6958.6958,0,0,1,.984-.984l4.2612,4.2611a11.2422,11.2422,0,0,0,2.5553,1.9152.6959.6959,0,0,1-.3343,1.3062Zm-13.64-12.96a.694.694,0,0,1-.4921-.2039l-6.6669-6.667a.6958.6958,0,0,1,.984-.9841l6.667,6.667a.696.696,0,0,1-.492,1.188ZM345.38,174.8793a.694.694,0,0,1-.4921-.2039l-6.6669-6.667a.6958.6958,0,1,1,.984-.9841l6.667,6.667a.696.696,0,0,1-.492,1.188Zm-13.3326-13.3326a.6938.6938,0,0,1-.4921-.2039l-6.667-6.667a.6959.6959,0,0,1,.9841-.9841l6.667,6.667a.696.696,0,0,1-.492,1.188Zm-13.334-13.334a.6936.6936,0,0,1-.492-.2039l-.628-.6279a11.2755,11.2755,0,0,0-7.159-3.2744.6964.6964,0,1,1,.1006-1.3891,12.6743,12.6743,0,0,1,8.0425,3.6794l.6279.6279a.696.696,0,0,1-.492,1.188Zm-17.6563-4.1361h-9.4276a.6959.6959,0,0,1,0-1.3918h9.4276a.6959.6959,0,0,1,0,1.3918Zm-18.8551,0H272.773a.6959.6959,0,1,1,0-1.3918h9.4289a.6959.6959,0,0,1,0,1.3918Zm-18.8565,0h-9.4276a.6959.6959,0,0,1,0-1.3918h9.4276a.6959.6959,0,1,1,0,1.3918Zm-18.8551,0h-9.4276a.6959.6959,0,0,1,0-1.3918H244.49a.6959.6959,0,0,1,0,1.3918Z"/>
        <path class="cls-7" d="M405.2672,202.6455h-4.8715a.696.696,0,0,1,0-1.3919h4.8715a.696.696,0,0,1,0,1.3919Z"/>
      </g>
      <g>
        <path class="cls-11" d="M453.9124,202.6455h-4.8715a.696.696,0,0,1,0-1.3919h4.8715a.696.696,0,0,1,0,1.3919Z"/>
        <path class="cls-11" d="M473.9528,202.6455h-10.02a.696.696,0,0,1,0-1.3919h10.02a.696.696,0,0,1,0,1.3919Zm9.539-2.2713a.6959.6959,0,0,1-.4078-1.26,11.2041,11.2041,0,0,0,1.366-1.1635l5.736-5.7373a.6958.6958,0,1,1,.984.9841l-5.7359,5.7373a12.6049,12.6049,0,0,1-1.5346,1.3076A.6908.6908,0,0,1,483.4918,200.3742Zm14.2718-14.0571a.6959.6959,0,0,1-.492-1.1879l7.0856-7.0856a.6958.6958,0,1,1,.9841.984l-7.0856,7.0857A.6939.6939,0,0,1,497.7636,186.3171Zm14.17-14.1712a.696.696,0,0,1-.492-1.188l7.0856-7.0856a.6959.6959,0,1,1,.9841.9841l-7.0857,7.0856A.6936.6936,0,0,1,511.9335,172.1459Zm14.1713-14.1713a.6959.6959,0,0,1-.4921-1.1879l7.0843-7.0843a.6959.6959,0,0,1,.9841.9841l-7.0843,7.0843A.6936.6936,0,0,1,526.1048,157.9746Zm66.1533-10.8669h-10.02a.696.696,0,0,1,0-1.3919h10.02a.696.696,0,0,1,0,1.3919Zm-20.04,0h-10.02a.696.696,0,0,1,0-1.3919h10.02a.696.696,0,0,1,0,1.3919Zm-20.04,0H542.1585a.696.696,0,0,1,0-1.3919h10.0188a.696.696,0,1,1,0,1.3919Z"/>
        <path class="cls-11" d="M607.1579,147.1077h-4.8715a.696.696,0,0,1,0-1.3919h4.8715a.696.696,0,0,1,0,1.3919Z"/>
      </g>
      <g>
        <path class="cls-11" d="M260.6949,283.9079h-4.8714a.6959.6959,0,1,1,0-1.3918h4.8714a.6959.6959,0,1,1,0,1.3918Z"/>
        <path class="cls-11" d="M310.3514,283.9079H309.018a.6959.6959,0,1,1,0-1.3918h1.3334a11.2984,11.2984,0,0,0,7.2283-2.6206.6958.6958,0,0,1,.8917,1.0683A12.6863,12.6863,0,0,1,310.3514,283.9079Zm-10.9989,0h-9.664a.6959.6959,0,1,1,0-1.3918h9.664a.6959.6959,0,1,1,0,1.3918Zm-19.3295,0h-9.664a.6959.6959,0,1,1,0-1.3918h9.664a.6959.6959,0,1,1,0,1.3918Zm44.8693-9.58a.6959.6959,0,0,1-.492-1.1879l6.8342-6.8342a.6958.6958,0,0,1,.984.9841l-6.8341,6.8341A.6936.6936,0,0,1,324.8923,274.3281ZM338.5607,260.66a.696.696,0,0,1-.4921-1.188l6.8342-6.8341a.6958.6958,0,0,1,.9841.984l-6.8342,6.8342A.6938.6938,0,0,1,338.5607,260.66Zm13.6683-13.6684a.6959.6959,0,0,1-.492-1.1879l6.8341-6.8342a.6959.6959,0,1,1,.9841.9841l-6.8342,6.8342A.6935.6935,0,0,1,352.229,246.9914Zm13.667-13.6669a.696.696,0,0,1-.4921-1.188l4.4773-4.4773a12.6851,12.6851,0,0,1,2.8054-2.1176.6966.6966,0,1,1,.6769,1.2178,11.2552,11.2552,0,0,0-2.4982,1.8839l-4.4773,4.4773A.6938.6938,0,0,1,365.896,233.3245Zm26.2017-7.9855h-9.6641a.6959.6959,0,1,1,0-1.3918h9.6641a.6959.6959,0,0,1,0,1.3918Z"/>
        <path class="cls-11" d="M406.6427,225.339h-4.8714a.6959.6959,0,0,1,0-1.3918h4.8714a.6959.6959,0,1,1,0,1.3918Z"/>
      </g>
      <path class="cls-8" d="M405.9142,214.0983h-9.7429a.696.696,0,0,1,0-1.3919h9.7429a.696.696,0,0,1,0,1.3919Zm-19.4858,0h-9.7429a.696.696,0,0,1,0-1.3919h9.7429a.696.696,0,0,1,0,1.3919Zm-19.4858,0H357.2a.696.696,0,1,1,0-1.3919h9.7429a.696.696,0,0,1,0,1.3919Zm-19.4858,0h-9.7429a.696.696,0,1,1,0-1.3919h9.7429a.696.696,0,0,1,0,1.3919Zm-19.4858,0h-9.7429a.696.696,0,1,1,0-1.3919h9.7429a.696.696,0,0,1,0,1.3919Zm-19.4858,0h-9.743a.696.696,0,0,1,0-1.3919h9.743a.696.696,0,0,1,0,1.3919Zm-19.4859,0h-9.7429a.696.696,0,0,1,0-1.3919h9.7429a.696.696,0,1,1,0,1.3919Zm-19.4858,0H260.578a.696.696,0,0,1,0-1.3919h8.9355a.696.696,0,1,1,0,1.3919Z"/>
      <path class="cls-8" d="M607.2367,214.0983h-9.7429a.696.696,0,0,1,0-1.3919h9.7429a.696.696,0,0,1,0,1.3919Zm-19.4858,0H578.008a.696.696,0,0,1,0-1.3919h9.7429a.696.696,0,0,1,0,1.3919Zm-19.4858,0h-9.7429a.696.696,0,0,1,0-1.3919h9.7429a.696.696,0,0,1,0,1.3919Zm-19.4858,0h-9.7429a.696.696,0,0,1,0-1.3919h9.7429a.696.696,0,0,1,0,1.3919Zm-19.4858,0h-9.7429a.696.696,0,0,1,0-1.3919h9.7429a.696.696,0,0,1,0,1.3919Zm-19.4858,0h-9.7429a.696.696,0,0,1,0-1.3919h9.7429a.696.696,0,0,1,0,1.3919Zm-19.4858,0H480.579a.696.696,0,1,1,0-1.3919h9.7429a.696.696,0,0,1,0,1.3919Zm-19.4858,0h-9.7429a.696.696,0,1,1,0-1.3919h9.7429a.696.696,0,0,1,0,1.3919Zm-19.4858,0h-2.3094a.696.696,0,0,1,0-1.3919H451.35a.696.696,0,0,1,0,1.3919Z"/>
      <path class="cls-11" d="M427.39,258.7175l-6.6181-7.3344a.6958.6958,0,0,1,1.0331-.9324l5.5931,6.1994a.696.696,0,0,1,.9338,1.0235Zm6.9538-8.048a.6959.6959,0,0,1-.5165-1.1621l6.3475-7.034v-.1808a.696.696,0,0,1,1.3919,0v.7163L434.86,250.44A.6931.6931,0,0,1,434.3437,250.67ZM414.7614,244.38a.693.693,0,0,1-.5165-.23l-1.03-1.1418v-8.74a.6959.6959,0,0,1,1.3918,0v8.2043l.6715.7448a.696.696,0,0,1-.5165,1.1622Zm26.1093-11.1348a.6955.6955,0,0,1-.696-.6959v-9.7429a.696.696,0,0,1,1.3919,0V232.55A.6955.6955,0,0,1,440.8707,233.2456Zm-26.96-8.0235a.6954.6954,0,0,1-.6959-.6959v-9.7429a.6959.6959,0,0,1,1.3918,0v9.7429A.6955.6955,0,0,1,413.9105,225.2221Zm26.96-11.4623a.6955.6955,0,0,1-.696-.6959V203.321a.696.696,0,0,1,1.3919,0v9.7429A.6955.6955,0,0,1,440.8707,213.76Zm-26.96-8.0235a.6954.6954,0,0,1-.6959-.6959v-9.7429a.6959.6959,0,1,1,1.3918,0V205.04A.6955.6955,0,0,1,413.9105,205.7363Zm26.96-11.4623a.6955.6955,0,0,1-.696-.6959v-8.7629l-.2895-.295a.6969.6969,0,0,1,.9977-.9732l.6837.7028v9.3283A.6955.6955,0,0,1,440.8707,194.274Zm-26.96-8.0235a.6954.6954,0,0,1-.6959-.6959V184.25l6.2809-6.4509a.6959.6959,0,1,1,.9977.97l-5.8868,6.0458v.7394A.6955.6955,0,0,1,413.9105,186.2505Zm19.6774-8.5019a.6972.6972,0,0,1-.4988-.2107l-5.6992-5.8528-.1006.1033a.6959.6959,0,0,1-.9977-.97L427.39,169.69l6.6969,6.8776a.696.696,0,0,1-.4989,1.1812Z"/>
      <path class="cls-8" d="M318.3721,141.6721a.6959.6959,0,0,1-.36-1.2912l8.3294-5.0523a.6962.6962,0,1,1,.7217,1.1907l-8.3307,5.0522A.69.69,0,0,1,318.3721,141.6721Zm16.6614-10.1058a.696.696,0,0,1-.3616-1.2912l8.3293-5.0523a.6965.6965,0,0,1,.7231,1.1907l-8.3293,5.0522A.6985.6985,0,0,1,335.0335,131.5663Zm16.66-10.1044a.6956.6956,0,0,1-.36-1.2913l8.3293-5.0522a.6961.6961,0,1,1,.7217,1.1906l-8.3306,5.0523A.6919.6919,0,0,1,351.6935,121.4619Zm16.6613-10.1059a.6959.6959,0,0,1-.36-1.2912l1.4326-.8686a.6958.6958,0,1,1,.72,1.1907l-1.4326.8686A.6948.6948,0,0,1,368.3548,111.356Z"/>
      <path class="cls-8" d="M538.3146,143.8836a.6928.6928,0,0,1-.3724-.1088l-3.31-2.0986a.6954.6954,0,0,1,.7449-1.1744l3.31,2.0987a.6958.6958,0,0,1-.3725,1.2831Zm-11.5384-7.314a.6924.6924,0,0,1-.3724-.1087l-8.23-5.2167a.6953.6953,0,0,1,.7448-1.1744l8.23,5.2167a.6958.6958,0,0,1-.3724,1.2831Zm-16.4588-10.4334a.6924.6924,0,0,1-.3724-.1087l-8.2288-5.2167a.6954.6954,0,0,1,.7449-1.1744l8.2287,5.2167a.6958.6958,0,0,1-.3724,1.2831ZM493.86,115.7042a.6927.6927,0,0,1-.3724-.1087l-8.2287-5.2167a.6953.6953,0,1,1,.7448-1.1744l8.2288,5.2167a.6958.6958,0,0,1-.3725,1.2831Z"/>
      <path class="cls-8" d="M369.7874,316.8106a.6952.6952,0,0,1-.3208-.0788l-4.4786-2.3311a.6955.6955,0,0,1,.6416-1.2342l4.4786,2.3311a.6958.6958,0,0,1-.3208,1.313Zm-13.1219-6.8274a.6952.6952,0,0,1-.3208-.0788l-8.6433-4.4977a.6955.6955,0,1,1,.6416-1.2341l8.6433,4.4976a.6958.6958,0,0,1-.3208,1.313Zm-17.2866-8.9939a.6954.6954,0,0,1-.3208-.0789l-8.6419-4.4976a.6955.6955,0,1,1,.6416-1.2342l8.6419,4.4977a.6958.6958,0,0,1-.3208,1.313Zm-17.2852-8.994a.6946.6946,0,0,1-.3208-.0788l-8.6433-4.4977a.6955.6955,0,1,1,.6416-1.2342l8.6433,4.4977a.6958.6958,0,0,1-.3208,1.313Z"/>
      <path class="cls-8" d="M484.9937,316.8106a.6961.6961,0,0,1-.3615-1.2913l8.3293-5.0535a.6965.6965,0,1,1,.7231,1.1906l-8.3293,5.0536A.6989.6989,0,0,1,484.9937,316.8106Zm16.66-10.1072a.696.696,0,0,1-.3615-1.2912l8.3293-5.0536a.6965.6965,0,1,1,.7231,1.1907l-8.3293,5.0535A.6991.6991,0,0,1,501.6537,306.7034Zm16.66-10.1071a.6961.6961,0,0,1-.3616-1.2913l8.3293-5.0536a.6966.6966,0,0,1,.7232,1.1907l-8.3294,5.0536A.7.7,0,0,1,518.3137,296.5963ZM534.9723,286.49a.696.696,0,0,1-.3615-1.2912l4.7763-2.8979a.6965.6965,0,0,1,.7231,1.1907l-4.7763,2.8979A.7.7,0,0,1,534.9723,286.49Z"/>
      <path class="cls-11" d="M258.1137,288.9833a.6949.6949,0,0,1-.4743-.1876l-5.99-5.5837,5.99-5.5837a.6953.6953,0,0,1,.9487,1.0167l-4.8973,4.567,4.8973,4.567a.6959.6959,0,0,1-.4744,1.2043Z"/>
      <path class="cls-11" d="M605.3569,152.2945a.696.696,0,0,1-.4744-1.2057l4.8987-4.5656-4.8987-4.5656a.6963.6963,0,1,1,.9488-1.0194l5.9914,5.585-5.9914,5.585A.7.7,0,0,1,605.3569,152.2945Z"/>
      <path class="cls-8" d="M605.8449,219.1736a.6959.6959,0,0,1-.4744-1.2056l4.8986-4.5656-4.8986-4.5657a.6963.6963,0,0,1,.9487-1.0194l5.9915,5.5851-5.9915,5.585A.7.7,0,0,1,605.8449,219.1736Z"/>
      <path class="cls-8" d="M262.5027,219.1736a.6949.6949,0,0,1-.4744-.1876l-5.99-5.5836,5.99-5.5837a.6953.6953,0,0,1,.9487,1.0167l-4.8972,4.567,4.8972,4.5669a.6959.6959,0,0,1-.4743,1.2043Z"/>
      <path class="cls-9" d="M184.3436,261.9862a5.9272,5.9272,0,1,1,5.927-5.9274A5.9275,5.9275,0,0,1,184.3436,261.9862Z"/>
    </g>
  </g>
</svg>
