<svg xmlns="http://www.w3.org/2000/svg" xmlns:xlink="http://www.w3.org/1999/xlink" width="1910" height="1000"><defs><clipPath id="c"><path d="M835 438h47v42h-47Zm0 0"/></clipPath><clipPath id="d"><path d="M981.262 438.422H850.855c-8.57 0-15.539 6.96-15.539 15.574v25.047h161.489v-25.047c0-8.613-6.973-15.574-15.543-15.574m-126.059 28.445c-4.105 0-7.45-3.351-7.45-7.465 0-4.117 3.345-7.464 7.45-7.464s7.45 3.347 7.45 7.464c0 4.114-3.344 7.465-7.45 7.465m23.277 0c-4.105 0-7.449-3.351-7.449-7.465 0-4.117 3.344-7.464 7.45-7.464s7.449 3.347 7.449 7.464c0 4.114-3.32 7.465-7.45 7.465m23.301 0c-4.105 0-7.449-3.351-7.449-7.465 0-4.117 3.344-7.464 7.45-7.464 4.109 0 7.448 3.347 7.448 7.464 0 4.114-3.34 7.465-7.449 7.465m0 0"/></clipPath><clipPath id="e"><path d="M835 438h52v42h-52Zm0 0"/></clipPath><clipPath id="f"><path d="M981.262 438.422H850.855c-8.57 0-15.539 6.96-15.539 15.574v25.047h161.489v-25.047c0-8.613-6.973-15.574-15.543-15.574m-126.059 28.445c-4.105 0-7.45-3.351-7.45-7.465 0-4.117 3.345-7.464 7.45-7.464s7.45 3.347 7.45 7.464c0 4.114-3.344 7.465-7.45 7.465m23.277 0c-4.105 0-7.449-3.351-7.449-7.465 0-4.117 3.344-7.464 7.45-7.464s7.449 3.347 7.449 7.464c0 4.114-3.32 7.465-7.45 7.465m23.301 0c-4.105 0-7.449-3.351-7.449-7.465 0-4.117 3.344-7.464 7.45-7.464 4.109 0 7.448 3.347 7.448 7.464 0 4.114-3.34 7.465-7.449 7.465m0 0"/></clipPath><clipPath id="g"><path d="M835 438h57v42h-57Zm0 0"/></clipPath><clipPath id="h"><path d="M981.262 438.422H850.855c-8.57 0-15.539 6.96-15.539 15.574v25.047h161.489v-25.047c0-8.613-6.973-15.574-15.543-15.574m-126.059 28.445c-4.105 0-7.45-3.351-7.45-7.465 0-4.117 3.345-7.464 7.45-7.464s7.45 3.347 7.45 7.464c0 4.114-3.344 7.465-7.45 7.465m23.277 0c-4.105 0-7.449-3.351-7.449-7.465 0-4.117 3.344-7.464 7.45-7.464s7.449 3.347 7.449 7.464c0 4.114-3.32 7.465-7.45 7.465m23.301 0c-4.105 0-7.449-3.351-7.449-7.465 0-4.117 3.344-7.464 7.45-7.464 4.109 0 7.448 3.347 7.448 7.464 0 4.114-3.34 7.465-7.449 7.465m0 0"/></clipPath><clipPath id="i"><path d="M835 438h62v42h-62Zm0 0"/></clipPath><clipPath id="j"><path d="M981.262 438.422H850.855c-8.57 0-15.539 6.96-15.539 15.574v25.047h161.489v-25.047c0-8.613-6.973-15.574-15.543-15.574m-126.059 28.445c-4.105 0-7.45-3.351-7.45-7.465 0-4.117 3.345-7.464 7.45-7.464s7.45 3.347 7.45 7.464c0 4.114-3.344 7.465-7.45 7.465m23.277 0c-4.105 0-7.449-3.351-7.449-7.465 0-4.117 3.344-7.464 7.45-7.464s7.449 3.347 7.449 7.464c0 4.114-3.32 7.465-7.45 7.465m23.301 0c-4.105 0-7.449-3.351-7.449-7.465 0-4.117 3.344-7.464 7.45-7.464 4.109 0 7.448 3.347 7.448 7.464 0 4.114-3.34 7.465-7.449 7.465m0 0"/></clipPath><clipPath id="k"><path d="M835 438h66v42h-66Zm0 0"/></clipPath><clipPath id="l"><path d="M981.262 438.422H850.855c-8.57 0-15.539 6.96-15.539 15.574v25.047h161.489v-25.047c0-8.613-6.973-15.574-15.543-15.574m-126.059 28.445c-4.105 0-7.45-3.351-7.45-7.465 0-4.117 3.345-7.464 7.45-7.464s7.45 3.347 7.45 7.464c0 4.114-3.344 7.465-7.45 7.465m23.277 0c-4.105 0-7.449-3.351-7.449-7.465 0-4.117 3.344-7.464 7.45-7.464s7.449 3.347 7.449 7.464c0 4.114-3.32 7.465-7.45 7.465m23.301 0c-4.105 0-7.449-3.351-7.449-7.465 0-4.117 3.344-7.464 7.45-7.464 4.109 0 7.448 3.347 7.448 7.464 0 4.114-3.34 7.465-7.449 7.465m0 0"/></clipPath><clipPath id="m"><path d="M835 438h71v42h-71Zm0 0"/></clipPath><clipPath id="n"><path d="M981.262 438.422H850.855c-8.57 0-15.539 6.96-15.539 15.574v25.047h161.489v-25.047c0-8.613-6.973-15.574-15.543-15.574m-126.059 28.445c-4.105 0-7.45-3.351-7.45-7.465 0-4.117 3.345-7.464 7.45-7.464s7.45 3.347 7.45 7.464c0 4.114-3.344 7.465-7.45 7.465m23.277 0c-4.105 0-7.449-3.351-7.449-7.465 0-4.117 3.344-7.464 7.45-7.464s7.449 3.347 7.449 7.464c0 4.114-3.32 7.465-7.45 7.465m23.301 0c-4.105 0-7.449-3.351-7.449-7.465 0-4.117 3.344-7.464 7.45-7.464 4.109 0 7.448 3.347 7.448 7.464 0 4.114-3.34 7.465-7.449 7.465m0 0"/></clipPath><clipPath id="o"><path d="M835 438h76v42h-76Zm0 0"/></clipPath><clipPath id="p"><path d="M981.262 438.422H850.855c-8.57 0-15.539 6.96-15.539 15.574v25.047h161.489v-25.047c0-8.613-6.973-15.574-15.543-15.574m-126.059 28.445c-4.105 0-7.45-3.351-7.45-7.465 0-4.117 3.345-7.464 7.45-7.464s7.45 3.347 7.45 7.464c0 4.114-3.344 7.465-7.45 7.465m23.277 0c-4.105 0-7.449-3.351-7.449-7.465 0-4.117 3.344-7.464 7.45-7.464s7.449 3.347 7.449 7.464c0 4.114-3.32 7.465-7.45 7.465m23.301 0c-4.105 0-7.449-3.351-7.449-7.465 0-4.117 3.344-7.464 7.45-7.464 4.109 0 7.448 3.347 7.448 7.464 0 4.114-3.34 7.465-7.449 7.465m0 0"/></clipPath><clipPath id="q"><path d="M835 438h81v42h-81Zm0 0"/></clipPath><clipPath id="r"><path d="M981.262 438.422H850.855c-8.57 0-15.539 6.96-15.539 15.574v25.047h161.489v-25.047c0-8.613-6.973-15.574-15.543-15.574m-126.059 28.445c-4.105 0-7.45-3.351-7.45-7.465 0-4.117 3.345-7.464 7.45-7.464s7.45 3.347 7.45 7.464c0 4.114-3.344 7.465-7.45 7.465m23.277 0c-4.105 0-7.449-3.351-7.449-7.465 0-4.117 3.344-7.464 7.45-7.464s7.449 3.347 7.449 7.464c0 4.114-3.32 7.465-7.45 7.465m23.301 0c-4.105 0-7.449-3.351-7.449-7.465 0-4.117 3.344-7.464 7.45-7.464 4.109 0 7.448 3.347 7.448 7.464 0 4.114-3.34 7.465-7.449 7.465m0 0"/></clipPath><clipPath id="s"><path d="M835 438h86v42h-86Zm0 0"/></clipPath><clipPath id="t"><path d="M981.262 438.422H850.855c-8.57 0-15.539 6.96-15.539 15.574v25.047h161.489v-25.047c0-8.613-6.973-15.574-15.543-15.574m-126.059 28.445c-4.105 0-7.45-3.351-7.45-7.465 0-4.117 3.345-7.464 7.45-7.464s7.45 3.347 7.45 7.464c0 4.114-3.344 7.465-7.45 7.465m23.277 0c-4.105 0-7.449-3.351-7.449-7.465 0-4.117 3.344-7.464 7.45-7.464s7.449 3.347 7.449 7.464c0 4.114-3.32 7.465-7.45 7.465m23.301 0c-4.105 0-7.449-3.351-7.449-7.465 0-4.117 3.344-7.464 7.45-7.464 4.109 0 7.448 3.347 7.448 7.464 0 4.114-3.34 7.465-7.449 7.465m0 0"/></clipPath><clipPath id="u"><path d="M835 438h90v42h-90Zm0 0"/></clipPath><clipPath id="v"><path d="M981.262 438.422H850.855c-8.57 0-15.539 6.96-15.539 15.574v25.047h161.489v-25.047c0-8.613-6.973-15.574-15.543-15.574m-126.059 28.445c-4.105 0-7.45-3.351-7.45-7.465 0-4.117 3.345-7.464 7.45-7.464s7.45 3.347 7.45 7.464c0 4.114-3.344 7.465-7.45 7.465m23.277 0c-4.105 0-7.449-3.351-7.449-7.465 0-4.117 3.344-7.464 7.45-7.464s7.449 3.347 7.449 7.464c0 4.114-3.32 7.465-7.45 7.465m23.301 0c-4.105 0-7.449-3.351-7.449-7.465 0-4.117 3.344-7.464 7.45-7.464 4.109 0 7.448 3.347 7.448 7.464 0 4.114-3.34 7.465-7.449 7.465m0 0"/></clipPath><clipPath id="w"><path d="M835 438h95v42h-95Zm0 0"/></clipPath><clipPath id="x"><path d="M981.262 438.422H850.855c-8.57 0-15.539 6.96-15.539 15.574v25.047h161.489v-25.047c0-8.613-6.973-15.574-15.543-15.574m-126.059 28.445c-4.105 0-7.45-3.351-7.45-7.465 0-4.117 3.345-7.464 7.45-7.464s7.45 3.347 7.45 7.464c0 4.114-3.344 7.465-7.45 7.465m23.277 0c-4.105 0-7.449-3.351-7.449-7.465 0-4.117 3.344-7.464 7.45-7.464s7.449 3.347 7.449 7.464c0 4.114-3.32 7.465-7.45 7.465m23.301 0c-4.105 0-7.449-3.351-7.449-7.465 0-4.117 3.344-7.464 7.45-7.464 4.109 0 7.448 3.347 7.448 7.464 0 4.114-3.34 7.465-7.449 7.465m0 0"/></clipPath><clipPath id="y"><path d="M835 438h100v42H835Zm0 0"/></clipPath><clipPath id="z"><path d="M981.262 438.422H850.855c-8.57 0-15.539 6.96-15.539 15.574v25.047h161.489v-25.047c0-8.613-6.973-15.574-15.543-15.574m-126.059 28.445c-4.105 0-7.45-3.351-7.45-7.465 0-4.117 3.345-7.464 7.45-7.464s7.45 3.347 7.45 7.464c0 4.114-3.344 7.465-7.45 7.465m23.277 0c-4.105 0-7.449-3.351-7.449-7.465 0-4.117 3.344-7.464 7.45-7.464s7.449 3.347 7.449 7.464c0 4.114-3.32 7.465-7.45 7.465m23.301 0c-4.105 0-7.449-3.351-7.449-7.465 0-4.117 3.344-7.464 7.45-7.464 4.109 0 7.448 3.347 7.448 7.464 0 4.114-3.34 7.465-7.449 7.465m0 0"/></clipPath><clipPath id="A"><path d="M835 438h105v42H835Zm0 0"/></clipPath><clipPath id="B"><path d="M981.262 438.422H850.855c-8.57 0-15.539 6.96-15.539 15.574v25.047h161.489v-25.047c0-8.613-6.973-15.574-15.543-15.574m-126.059 28.445c-4.105 0-7.45-3.351-7.45-7.465 0-4.117 3.345-7.464 7.45-7.464s7.45 3.347 7.45 7.464c0 4.114-3.344 7.465-7.45 7.465m23.277 0c-4.105 0-7.449-3.351-7.449-7.465 0-4.117 3.344-7.464 7.45-7.464s7.449 3.347 7.449 7.464c0 4.114-3.32 7.465-7.45 7.465m23.301 0c-4.105 0-7.449-3.351-7.449-7.465 0-4.117 3.344-7.464 7.45-7.464 4.109 0 7.448 3.347 7.448 7.464 0 4.114-3.34 7.465-7.449 7.465m0 0"/></clipPath><clipPath id="C"><path d="M835 438h109v42H835Zm0 0"/></clipPath><clipPath id="D"><path d="M981.262 438.422H850.855c-8.57 0-15.539 6.96-15.539 15.574v25.047h161.489v-25.047c0-8.613-6.973-15.574-15.543-15.574m-126.059 28.445c-4.105 0-7.45-3.351-7.45-7.465 0-4.117 3.345-7.464 7.45-7.464s7.45 3.347 7.45 7.464c0 4.114-3.344 7.465-7.45 7.465m23.277 0c-4.105 0-7.449-3.351-7.449-7.465 0-4.117 3.344-7.464 7.45-7.464s7.449 3.347 7.449 7.464c0 4.114-3.32 7.465-7.45 7.465m23.301 0c-4.105 0-7.449-3.351-7.449-7.465 0-4.117 3.344-7.464 7.45-7.464 4.109 0 7.448 3.347 7.448 7.464 0 4.114-3.34 7.465-7.449 7.465m0 0"/></clipPath><clipPath id="E"><path d="M835 438h114v42H835Zm0 0"/></clipPath><clipPath id="F"><path d="M981.262 438.422H850.855c-8.57 0-15.539 6.96-15.539 15.574v25.047h161.489v-25.047c0-8.613-6.973-15.574-15.543-15.574m-126.059 28.445c-4.105 0-7.45-3.351-7.45-7.465 0-4.117 3.345-7.464 7.45-7.464s7.45 3.347 7.45 7.464c0 4.114-3.344 7.465-7.45 7.465m23.277 0c-4.105 0-7.449-3.351-7.449-7.465 0-4.117 3.344-7.464 7.45-7.464s7.449 3.347 7.449 7.464c0 4.114-3.32 7.465-7.45 7.465m23.301 0c-4.105 0-7.449-3.351-7.449-7.465 0-4.117 3.344-7.464 7.45-7.464 4.109 0 7.448 3.347 7.448 7.464 0 4.114-3.34 7.465-7.449 7.465m0 0"/></clipPath><clipPath id="G"><path d="M835 438h119v42H835Zm0 0"/></clipPath><clipPath id="H"><path d="M981.262 438.422H850.855c-8.57 0-15.539 6.96-15.539 15.574v25.047h161.489v-25.047c0-8.613-6.973-15.574-15.543-15.574m-126.059 28.445c-4.105 0-7.45-3.351-7.45-7.465 0-4.117 3.345-7.464 7.45-7.464s7.45 3.347 7.45 7.464c0 4.114-3.344 7.465-7.45 7.465m23.277 0c-4.105 0-7.449-3.351-7.449-7.465 0-4.117 3.344-7.464 7.45-7.464s7.449 3.347 7.449 7.464c0 4.114-3.32 7.465-7.45 7.465m23.301 0c-4.105 0-7.449-3.351-7.449-7.465 0-4.117 3.344-7.464 7.45-7.464 4.109 0 7.448 3.347 7.448 7.464 0 4.114-3.34 7.465-7.449 7.465m0 0"/></clipPath><clipPath id="I"><path d="M835 438h124v42H835Zm0 0"/></clipPath><clipPath id="J"><path d="M981.262 438.422H850.855c-8.57 0-15.539 6.96-15.539 15.574v25.047h161.489v-25.047c0-8.613-6.973-15.574-15.543-15.574m-126.059 28.445c-4.105 0-7.45-3.351-7.45-7.465 0-4.117 3.345-7.464 7.45-7.464s7.45 3.347 7.45 7.464c0 4.114-3.344 7.465-7.45 7.465m23.277 0c-4.105 0-7.449-3.351-7.449-7.465 0-4.117 3.344-7.464 7.45-7.464s7.449 3.347 7.449 7.464c0 4.114-3.32 7.465-7.45 7.465m23.301 0c-4.105 0-7.449-3.351-7.449-7.465 0-4.117 3.344-7.464 7.45-7.464 4.109 0 7.448 3.347 7.448 7.464 0 4.114-3.34 7.465-7.449 7.465m0 0"/></clipPath><clipPath id="K"><path d="M835 438h128v42H835Zm0 0"/></clipPath><clipPath id="L"><path d="M981.262 438.422H850.855c-8.57 0-15.539 6.96-15.539 15.574v25.047h161.489v-25.047c0-8.613-6.973-15.574-15.543-15.574m-126.059 28.445c-4.105 0-7.45-3.351-7.45-7.465 0-4.117 3.345-7.464 7.45-7.464s7.45 3.347 7.45 7.464c0 4.114-3.344 7.465-7.45 7.465m23.277 0c-4.105 0-7.449-3.351-7.449-7.465 0-4.117 3.344-7.464 7.45-7.464s7.449 3.347 7.449 7.464c0 4.114-3.32 7.465-7.45 7.465m23.301 0c-4.105 0-7.449-3.351-7.449-7.465 0-4.117 3.344-7.464 7.45-7.464 4.109 0 7.448 3.347 7.448 7.464 0 4.114-3.34 7.465-7.449 7.465m0 0"/></clipPath><clipPath id="M"><path d="M835 438h133v42H835Zm0 0"/></clipPath><clipPath id="N"><path d="M981.262 438.422H850.855c-8.57 0-15.539 6.96-15.539 15.574v25.047h161.489v-25.047c0-8.613-6.973-15.574-15.543-15.574m-126.059 28.445c-4.105 0-7.45-3.351-7.45-7.465 0-4.117 3.345-7.464 7.45-7.464s7.45 3.347 7.45 7.464c0 4.114-3.344 7.465-7.45 7.465m23.277 0c-4.105 0-7.449-3.351-7.449-7.465 0-4.117 3.344-7.464 7.45-7.464s7.449 3.347 7.449 7.464c0 4.114-3.32 7.465-7.45 7.465m23.301 0c-4.105 0-7.449-3.351-7.449-7.465 0-4.117 3.344-7.464 7.45-7.464 4.109 0 7.448 3.347 7.448 7.464 0 4.114-3.34 7.465-7.449 7.465m0 0"/></clipPath><clipPath id="O"><path d="M835 438h138v42H835Zm0 0"/></clipPath><clipPath id="P"><path d="M981.262 438.422H850.855c-8.57 0-15.539 6.96-15.539 15.574v25.047h161.489v-25.047c0-8.613-6.973-15.574-15.543-15.574m-126.059 28.445c-4.105 0-7.45-3.351-7.45-7.465 0-4.117 3.345-7.464 7.45-7.464s7.45 3.347 7.45 7.464c0 4.114-3.344 7.465-7.45 7.465m23.277 0c-4.105 0-7.449-3.351-7.449-7.465 0-4.117 3.344-7.464 7.45-7.464s7.449 3.347 7.449 7.464c0 4.114-3.32 7.465-7.45 7.465m23.301 0c-4.105 0-7.449-3.351-7.449-7.465 0-4.117 3.344-7.464 7.45-7.464 4.109 0 7.448 3.347 7.448 7.464 0 4.114-3.34 7.465-7.449 7.465m0 0"/></clipPath><clipPath id="Q"><path d="M835 438h143v42H835Zm0 0"/></clipPath><clipPath id="R"><path d="M981.262 438.422H850.855c-8.57 0-15.539 6.96-15.539 15.574v25.047h161.489v-25.047c0-8.613-6.973-15.574-15.543-15.574m-126.059 28.445c-4.105 0-7.45-3.351-7.45-7.465 0-4.117 3.345-7.464 7.45-7.464s7.45 3.347 7.45 7.464c0 4.114-3.344 7.465-7.45 7.465m23.277 0c-4.105 0-7.449-3.351-7.449-7.465 0-4.117 3.344-7.464 7.45-7.464s7.449 3.347 7.449 7.464c0 4.114-3.32 7.465-7.45 7.465m23.301 0c-4.105 0-7.449-3.351-7.449-7.465 0-4.117 3.344-7.464 7.45-7.464 4.109 0 7.448 3.347 7.448 7.464 0 4.114-3.34 7.465-7.449 7.465m0 0"/></clipPath><clipPath id="S"><path d="M836 438h146v42H836Zm0 0"/></clipPath><clipPath id="T"><path d="M981.262 438.422H850.855c-8.57 0-15.539 6.96-15.539 15.574v25.047h161.489v-25.047c0-8.613-6.973-15.574-15.543-15.574m-126.059 28.445c-4.105 0-7.45-3.351-7.45-7.465 0-4.117 3.345-7.464 7.45-7.464s7.45 3.347 7.45 7.464c0 4.114-3.344 7.465-7.45 7.465m23.277 0c-4.105 0-7.449-3.351-7.449-7.465 0-4.117 3.344-7.464 7.45-7.464s7.449 3.347 7.449 7.464c0 4.114-3.32 7.465-7.45 7.465m23.301 0c-4.105 0-7.449-3.351-7.449-7.465 0-4.117 3.344-7.464 7.45-7.464 4.109 0 7.448 3.347 7.448 7.464 0 4.114-3.34 7.465-7.449 7.465m0 0"/></clipPath><clipPath id="U"><path d="M840 438h147v42H840Zm0 0"/></clipPath><clipPath id="V"><path d="M981.262 438.422H850.855c-8.57 0-15.539 6.96-15.539 15.574v25.047h161.489v-25.047c0-8.613-6.973-15.574-15.543-15.574m-126.059 28.445c-4.105 0-7.45-3.351-7.45-7.465 0-4.117 3.345-7.464 7.45-7.464s7.45 3.347 7.45 7.464c0 4.114-3.344 7.465-7.45 7.465m23.277 0c-4.105 0-7.449-3.351-7.449-7.465 0-4.117 3.344-7.464 7.45-7.464s7.449 3.347 7.449 7.464c0 4.114-3.32 7.465-7.45 7.465m23.301 0c-4.105 0-7.449-3.351-7.449-7.465 0-4.117 3.344-7.464 7.45-7.464 4.109 0 7.448 3.347 7.448 7.464 0 4.114-3.34 7.465-7.449 7.465m0 0"/></clipPath><clipPath id="W"><path d="M845 438h147v42H845Zm0 0"/></clipPath><clipPath id="X"><path d="M981.262 438.422H850.855c-8.57 0-15.539 6.96-15.539 15.574v25.047h161.489v-25.047c0-8.613-6.973-15.574-15.543-15.574m-126.059 28.445c-4.105 0-7.45-3.351-7.45-7.465 0-4.117 3.345-7.464 7.45-7.464s7.45 3.347 7.45 7.464c0 4.114-3.344 7.465-7.45 7.465m23.277 0c-4.105 0-7.449-3.351-7.449-7.465 0-4.117 3.344-7.464 7.45-7.464s7.449 3.347 7.449 7.464c0 4.114-3.32 7.465-7.45 7.465m23.301 0c-4.105 0-7.449-3.351-7.449-7.465 0-4.117 3.344-7.464 7.45-7.464 4.109 0 7.448 3.347 7.448 7.464 0 4.114-3.34 7.465-7.449 7.465m0 0"/></clipPath><clipPath id="Y"><path d="M850 438h147v42H850Zm0 0"/></clipPath><clipPath id="Z"><path d="M981.262 438.422H850.855c-8.57 0-15.539 6.96-15.539 15.574v25.047h161.489v-25.047c0-8.613-6.973-15.574-15.543-15.574m-126.059 28.445c-4.105 0-7.45-3.351-7.45-7.465 0-4.117 3.345-7.464 7.45-7.464s7.45 3.347 7.45 7.464c0 4.114-3.344 7.465-7.45 7.465m23.277 0c-4.105 0-7.449-3.351-7.449-7.465 0-4.117 3.344-7.464 7.45-7.464s7.449 3.347 7.449 7.464c0 4.114-3.32 7.465-7.45 7.465m23.301 0c-4.105 0-7.449-3.351-7.449-7.465 0-4.117 3.344-7.464 7.45-7.464 4.109 0 7.448 3.347 7.448 7.464 0 4.114-3.34 7.465-7.449 7.465m0 0"/></clipPath><clipPath id="aa"><path d="M855 438h142v42H855Zm0 0"/></clipPath><clipPath id="ab"><path d="M981.262 438.422H850.855c-8.57 0-15.539 6.96-15.539 15.574v25.047h161.489v-25.047c0-8.613-6.973-15.574-15.543-15.574m-126.059 28.445c-4.105 0-7.45-3.351-7.45-7.465 0-4.117 3.345-7.464 7.45-7.464s7.45 3.347 7.45 7.464c0 4.114-3.344 7.465-7.45 7.465m23.277 0c-4.105 0-7.449-3.351-7.449-7.465 0-4.117 3.344-7.464 7.45-7.464s7.449 3.347 7.449 7.464c0 4.114-3.32 7.465-7.45 7.465m23.301 0c-4.105 0-7.449-3.351-7.449-7.465 0-4.117 3.344-7.464 7.45-7.464 4.109 0 7.448 3.347 7.448 7.464 0 4.114-3.34 7.465-7.449 7.465m0 0"/></clipPath><clipPath id="ac"><path d="M859 438h138v42H859Zm0 0"/></clipPath><clipPath id="ad"><path d="M981.262 438.422H850.855c-8.57 0-15.539 6.96-15.539 15.574v25.047h161.489v-25.047c0-8.613-6.973-15.574-15.543-15.574m-126.059 28.445c-4.105 0-7.45-3.351-7.45-7.465 0-4.117 3.345-7.464 7.45-7.464s7.45 3.347 7.45 7.464c0 4.114-3.344 7.465-7.45 7.465m23.277 0c-4.105 0-7.449-3.351-7.449-7.465 0-4.117 3.344-7.464 7.45-7.464s7.449 3.347 7.449 7.464c0 4.114-3.32 7.465-7.45 7.465m23.301 0c-4.105 0-7.449-3.351-7.449-7.465 0-4.117 3.344-7.464 7.45-7.464 4.109 0 7.448 3.347 7.448 7.464 0 4.114-3.34 7.465-7.449 7.465m0 0"/></clipPath><clipPath id="ae"><path d="M864 438h133v42H864Zm0 0"/></clipPath><clipPath id="af"><path d="M981.262 438.422H850.855c-8.57 0-15.539 6.96-15.539 15.574v25.047h161.489v-25.047c0-8.613-6.973-15.574-15.543-15.574m-126.059 28.445c-4.105 0-7.45-3.351-7.45-7.465 0-4.117 3.345-7.464 7.45-7.464s7.45 3.347 7.45 7.464c0 4.114-3.344 7.465-7.45 7.465m23.277 0c-4.105 0-7.449-3.351-7.449-7.465 0-4.117 3.344-7.464 7.45-7.464s7.449 3.347 7.449 7.464c0 4.114-3.32 7.465-7.45 7.465m23.301 0c-4.105 0-7.449-3.351-7.449-7.465 0-4.117 3.344-7.464 7.45-7.464 4.109 0 7.448 3.347 7.448 7.464 0 4.114-3.34 7.465-7.449 7.465m0 0"/></clipPath><clipPath id="ag"><path d="M869 438h128v42H869Zm0 0"/></clipPath><clipPath id="ah"><path d="M981.262 438.422H850.855c-8.57 0-15.539 6.96-15.539 15.574v25.047h161.489v-25.047c0-8.613-6.973-15.574-15.543-15.574m-126.059 28.445c-4.105 0-7.45-3.351-7.45-7.465 0-4.117 3.345-7.464 7.45-7.464s7.45 3.347 7.45 7.464c0 4.114-3.344 7.465-7.45 7.465m23.277 0c-4.105 0-7.449-3.351-7.449-7.465 0-4.117 3.344-7.464 7.45-7.464s7.449 3.347 7.449 7.464c0 4.114-3.32 7.465-7.45 7.465m23.301 0c-4.105 0-7.449-3.351-7.449-7.465 0-4.117 3.344-7.464 7.45-7.464 4.109 0 7.448 3.347 7.448 7.464 0 4.114-3.34 7.465-7.449 7.465m0 0"/></clipPath><clipPath id="ai"><path d="M874 438h123v42H874Zm0 0"/></clipPath><clipPath id="aj"><path d="M981.262 438.422H850.855c-8.57 0-15.539 6.96-15.539 15.574v25.047h161.489v-25.047c0-8.613-6.973-15.574-15.543-15.574m-126.059 28.445c-4.105 0-7.45-3.351-7.45-7.465 0-4.117 3.345-7.464 7.45-7.464s7.45 3.347 7.45 7.464c0 4.114-3.344 7.465-7.45 7.465m23.277 0c-4.105 0-7.449-3.351-7.449-7.465 0-4.117 3.344-7.464 7.45-7.464s7.449 3.347 7.449 7.464c0 4.114-3.32 7.465-7.45 7.465m23.301 0c-4.105 0-7.449-3.351-7.449-7.465 0-4.117 3.344-7.464 7.45-7.464 4.109 0 7.448 3.347 7.448 7.464 0 4.114-3.34 7.465-7.449 7.465m0 0"/></clipPath><clipPath id="ak"><path d="M878 438h119v42H878Zm0 0"/></clipPath><clipPath id="al"><path d="M981.262 438.422H850.855c-8.57 0-15.539 6.96-15.539 15.574v25.047h161.489v-25.047c0-8.613-6.973-15.574-15.543-15.574m-126.059 28.445c-4.105 0-7.45-3.351-7.45-7.465 0-4.117 3.345-7.464 7.45-7.464s7.45 3.347 7.45 7.464c0 4.114-3.344 7.465-7.45 7.465m23.277 0c-4.105 0-7.449-3.351-7.449-7.465 0-4.117 3.344-7.464 7.45-7.464s7.449 3.347 7.449 7.464c0 4.114-3.32 7.465-7.45 7.465m23.301 0c-4.105 0-7.449-3.351-7.449-7.465 0-4.117 3.344-7.464 7.45-7.464 4.109 0 7.448 3.347 7.448 7.464 0 4.114-3.34 7.465-7.449 7.465m0 0"/></clipPath><clipPath id="am"><path d="M883 438h114v42H883Zm0 0"/></clipPath><clipPath id="an"><path d="M981.262 438.422H850.855c-8.57 0-15.539 6.96-15.539 15.574v25.047h161.489v-25.047c0-8.613-6.973-15.574-15.543-15.574m-126.059 28.445c-4.105 0-7.45-3.351-7.45-7.465 0-4.117 3.345-7.464 7.45-7.464s7.45 3.347 7.45 7.464c0 4.114-3.344 7.465-7.45 7.465m23.277 0c-4.105 0-7.449-3.351-7.449-7.465 0-4.117 3.344-7.464 7.45-7.464s7.449 3.347 7.449 7.464c0 4.114-3.32 7.465-7.45 7.465m23.301 0c-4.105 0-7.449-3.351-7.449-7.465 0-4.117 3.344-7.464 7.45-7.464 4.109 0 7.448 3.347 7.448 7.464 0 4.114-3.34 7.465-7.449 7.465m0 0"/></clipPath><clipPath id="ao"><path d="M888 438h109v42H888Zm0 0"/></clipPath><clipPath id="ap"><path d="M981.262 438.422H850.855c-8.57 0-15.539 6.96-15.539 15.574v25.047h161.489v-25.047c0-8.613-6.973-15.574-15.543-15.574m-126.059 28.445c-4.105 0-7.45-3.351-7.45-7.465 0-4.117 3.345-7.464 7.45-7.464s7.45 3.347 7.45 7.464c0 4.114-3.344 7.465-7.45 7.465m23.277 0c-4.105 0-7.449-3.351-7.449-7.465 0-4.117 3.344-7.464 7.45-7.464s7.449 3.347 7.449 7.464c0 4.114-3.32 7.465-7.45 7.465m23.301 0c-4.105 0-7.449-3.351-7.449-7.465 0-4.117 3.344-7.464 7.45-7.464 4.109 0 7.448 3.347 7.448 7.464 0 4.114-3.34 7.465-7.449 7.465m0 0"/></clipPath><clipPath id="aq"><path d="M893 438h104v42H893Zm0 0"/></clipPath><clipPath id="ar"><path d="M981.262 438.422H850.855c-8.57 0-15.539 6.96-15.539 15.574v25.047h161.489v-25.047c0-8.613-6.973-15.574-15.543-15.574m-126.059 28.445c-4.105 0-7.45-3.351-7.45-7.465 0-4.117 3.345-7.464 7.45-7.464s7.45 3.347 7.45 7.464c0 4.114-3.344 7.465-7.45 7.465m23.277 0c-4.105 0-7.449-3.351-7.449-7.465 0-4.117 3.344-7.464 7.45-7.464s7.449 3.347 7.449 7.464c0 4.114-3.32 7.465-7.45 7.465m23.301 0c-4.105 0-7.449-3.351-7.449-7.465 0-4.117 3.344-7.464 7.45-7.464 4.109 0 7.448 3.347 7.448 7.464 0 4.114-3.34 7.465-7.449 7.465m0 0"/></clipPath><clipPath id="as"><path d="M898 438h99v42h-99Zm0 0"/></clipPath><clipPath id="at"><path d="M981.262 438.422H850.855c-8.57 0-15.539 6.96-15.539 15.574v25.047h161.489v-25.047c0-8.613-6.973-15.574-15.543-15.574m-126.059 28.445c-4.105 0-7.45-3.351-7.45-7.465 0-4.117 3.345-7.464 7.45-7.464s7.45 3.347 7.45 7.464c0 4.114-3.344 7.465-7.45 7.465m23.277 0c-4.105 0-7.449-3.351-7.449-7.465 0-4.117 3.344-7.464 7.45-7.464s7.449 3.347 7.449 7.464c0 4.114-3.32 7.465-7.45 7.465m23.301 0c-4.105 0-7.449-3.351-7.449-7.465 0-4.117 3.344-7.464 7.45-7.464 4.109 0 7.448 3.347 7.448 7.464 0 4.114-3.34 7.465-7.449 7.465m0 0"/></clipPath><clipPath id="au"><path d="M902 438h95v42h-95Zm0 0"/></clipPath><clipPath id="av"><path d="M981.262 438.422H850.855c-8.57 0-15.539 6.96-15.539 15.574v25.047h161.489v-25.047c0-8.613-6.973-15.574-15.543-15.574m-126.059 28.445c-4.105 0-7.45-3.351-7.45-7.465 0-4.117 3.345-7.464 7.45-7.464s7.45 3.347 7.45 7.464c0 4.114-3.344 7.465-7.45 7.465m23.277 0c-4.105 0-7.449-3.351-7.449-7.465 0-4.117 3.344-7.464 7.45-7.464s7.449 3.347 7.449 7.464c0 4.114-3.32 7.465-7.45 7.465m23.301 0c-4.105 0-7.449-3.351-7.449-7.465 0-4.117 3.344-7.464 7.45-7.464 4.109 0 7.448 3.347 7.448 7.464 0 4.114-3.34 7.465-7.449 7.465m0 0"/></clipPath><clipPath id="aw"><path d="M907 438h90v42h-90Zm0 0"/></clipPath><clipPath id="ax"><path d="M981.262 438.422H850.855c-8.57 0-15.539 6.96-15.539 15.574v25.047h161.489v-25.047c0-8.613-6.973-15.574-15.543-15.574m-126.059 28.445c-4.105 0-7.45-3.351-7.45-7.465 0-4.117 3.345-7.464 7.45-7.464s7.45 3.347 7.45 7.464c0 4.114-3.344 7.465-7.45 7.465m23.277 0c-4.105 0-7.449-3.351-7.449-7.465 0-4.117 3.344-7.464 7.45-7.464s7.449 3.347 7.449 7.464c0 4.114-3.32 7.465-7.45 7.465m23.301 0c-4.105 0-7.449-3.351-7.449-7.465 0-4.117 3.344-7.464 7.45-7.464 4.109 0 7.448 3.347 7.448 7.464 0 4.114-3.34 7.465-7.449 7.465m0 0"/></clipPath><clipPath id="ay"><path d="M912 438h85v42h-85Zm0 0"/></clipPath><clipPath id="az"><path d="M981.262 438.422H850.855c-8.57 0-15.539 6.96-15.539 15.574v25.047h161.489v-25.047c0-8.613-6.973-15.574-15.543-15.574m-126.059 28.445c-4.105 0-7.45-3.351-7.45-7.465 0-4.117 3.345-7.464 7.45-7.464s7.45 3.347 7.45 7.464c0 4.114-3.344 7.465-7.45 7.465m23.277 0c-4.105 0-7.449-3.351-7.449-7.465 0-4.117 3.344-7.464 7.45-7.464s7.449 3.347 7.449 7.464c0 4.114-3.32 7.465-7.45 7.465m23.301 0c-4.105 0-7.449-3.351-7.449-7.465 0-4.117 3.344-7.464 7.45-7.464 4.109 0 7.448 3.347 7.448 7.464 0 4.114-3.34 7.465-7.449 7.465m0 0"/></clipPath><clipPath id="aA"><path d="M916 438h81v42h-81Zm0 0"/></clipPath><clipPath id="aB"><path d="M981.262 438.422H850.855c-8.57 0-15.539 6.96-15.539 15.574v25.047h161.489v-25.047c0-8.613-6.973-15.574-15.543-15.574m-126.059 28.445c-4.105 0-7.45-3.351-7.45-7.465 0-4.117 3.345-7.464 7.45-7.464s7.45 3.347 7.45 7.464c0 4.114-3.344 7.465-7.45 7.465m23.277 0c-4.105 0-7.449-3.351-7.449-7.465 0-4.117 3.344-7.464 7.45-7.464s7.449 3.347 7.449 7.464c0 4.114-3.32 7.465-7.45 7.465m23.301 0c-4.105 0-7.449-3.351-7.449-7.465 0-4.117 3.344-7.464 7.45-7.464 4.109 0 7.448 3.347 7.448 7.464 0 4.114-3.34 7.465-7.449 7.465m0 0"/></clipPath><clipPath id="b"><path d="M0 0h1911v1000H0z"/></clipPath><clipPath id="aE"><path d="M1372 298h125v109h-125Zm0 0"/></clipPath><clipPath id="aF"><path d="M1760.375 298.04h-346.95c-22.827 0-41.35 18.538-41.35 41.433v66.629h429.628v-66.63c.024-22.894-18.504-41.433-41.328-41.433m-335.395 75.69c-10.96 0-19.816-8.898-19.816-19.855 0-10.98 8.879-19.855 19.816-19.855 10.934 0 19.817 8.898 19.817 19.855s-8.883 19.855-19.817 19.855m61.954 0c-10.957 0-19.817-8.898-19.817-19.855 0-10.98 8.883-19.855 19.817-19.855 10.937 0 19.816 8.898 19.816 19.855.023 10.957-8.855 19.855-19.816 19.855m61.98 0c-10.957 0-19.816-8.898-19.816-19.855s8.882-19.855 19.816-19.855c10.961 0 19.816 8.898 19.816 19.855s-8.855 19.855-19.816 19.855m0 0"/></clipPath><clipPath id="aG"><path d="M1372 298h137v109h-137Zm0 0"/></clipPath><clipPath id="aH"><path d="M1760.375 298.04h-346.95c-22.827 0-41.35 18.538-41.35 41.433v66.629h429.628v-66.63c.024-22.894-18.504-41.433-41.328-41.433m-335.395 75.69c-10.96 0-19.816-8.898-19.816-19.855 0-10.98 8.879-19.855 19.816-19.855 10.934 0 19.817 8.898 19.817 19.855s-8.883 19.855-19.817 19.855m61.954 0c-10.957 0-19.817-8.898-19.817-19.855 0-10.98 8.883-19.855 19.817-19.855 10.937 0 19.816 8.898 19.816 19.855.023 10.957-8.855 19.855-19.816 19.855m61.98 0c-10.957 0-19.816-8.898-19.816-19.855s8.882-19.855 19.816-19.855c10.961 0 19.816 8.898 19.816 19.855s-8.855 19.855-19.816 19.855m0 0"/></clipPath><clipPath id="aI"><path d="M1372 298h150v109h-150Zm0 0"/></clipPath><clipPath id="aJ"><path d="M1760.375 298.04h-346.95c-22.827 0-41.35 18.538-41.35 41.433v66.629h429.628v-66.63c.024-22.894-18.504-41.433-41.328-41.433m-335.395 75.69c-10.96 0-19.816-8.898-19.816-19.855 0-10.98 8.879-19.855 19.816-19.855 10.934 0 19.817 8.898 19.817 19.855s-8.883 19.855-19.817 19.855m61.954 0c-10.957 0-19.817-8.898-19.817-19.855 0-10.98 8.883-19.855 19.817-19.855 10.937 0 19.816 8.898 19.816 19.855.023 10.957-8.855 19.855-19.816 19.855m61.98 0c-10.957 0-19.816-8.898-19.816-19.855s8.882-19.855 19.816-19.855c10.961 0 19.816 8.898 19.816 19.855s-8.855 19.855-19.816 19.855m0 0"/></clipPath><clipPath id="aK"><path d="M1372 298h163v109h-163Zm0 0"/></clipPath><clipPath id="aL"><path d="M1760.375 298.04h-346.95c-22.827 0-41.35 18.538-41.35 41.433v66.629h429.628v-66.63c.024-22.894-18.504-41.433-41.328-41.433m-335.395 75.69c-10.96 0-19.816-8.898-19.816-19.855 0-10.98 8.879-19.855 19.816-19.855 10.934 0 19.817 8.898 19.817 19.855s-8.883 19.855-19.817 19.855m61.954 0c-10.957 0-19.817-8.898-19.817-19.855 0-10.98 8.883-19.855 19.817-19.855 10.937 0 19.816 8.898 19.816 19.855.023 10.957-8.855 19.855-19.816 19.855m61.98 0c-10.957 0-19.816-8.898-19.816-19.855s8.882-19.855 19.816-19.855c10.961 0 19.816 8.898 19.816 19.855s-8.855 19.855-19.816 19.855m0 0"/></clipPath><clipPath id="aM"><path d="M1372 298h175v109h-175Zm0 0"/></clipPath><clipPath id="aN"><path d="M1760.375 298.04h-346.95c-22.827 0-41.35 18.538-41.35 41.433v66.629h429.628v-66.63c.024-22.894-18.504-41.433-41.328-41.433m-335.395 75.69c-10.96 0-19.816-8.898-19.816-19.855 0-10.98 8.879-19.855 19.816-19.855 10.934 0 19.817 8.898 19.817 19.855s-8.883 19.855-19.817 19.855m61.954 0c-10.957 0-19.817-8.898-19.817-19.855 0-10.98 8.883-19.855 19.817-19.855 10.937 0 19.816 8.898 19.816 19.855.023 10.957-8.855 19.855-19.816 19.855m61.98 0c-10.957 0-19.816-8.898-19.816-19.855s8.882-19.855 19.816-19.855c10.961 0 19.816 8.898 19.816 19.855s-8.855 19.855-19.816 19.855m0 0"/></clipPath><clipPath id="aO"><path d="M1372 298h188v109h-188Zm0 0"/></clipPath><clipPath id="aP"><path d="M1760.375 298.04h-346.95c-22.827 0-41.35 18.538-41.35 41.433v66.629h429.628v-66.63c.024-22.894-18.504-41.433-41.328-41.433m-335.395 75.69c-10.96 0-19.816-8.898-19.816-19.855 0-10.98 8.879-19.855 19.816-19.855 10.934 0 19.817 8.898 19.817 19.855s-8.883 19.855-19.817 19.855m61.954 0c-10.957 0-19.817-8.898-19.817-19.855 0-10.98 8.883-19.855 19.817-19.855 10.937 0 19.816 8.898 19.816 19.855.023 10.957-8.855 19.855-19.816 19.855m61.98 0c-10.957 0-19.816-8.898-19.816-19.855s8.882-19.855 19.816-19.855c10.961 0 19.816 8.898 19.816 19.855s-8.855 19.855-19.816 19.855m0 0"/></clipPath><clipPath id="aQ"><path d="M1372 298h201v109h-201Zm0 0"/></clipPath><clipPath id="aR"><path d="M1760.375 298.04h-346.95c-22.827 0-41.35 18.538-41.35 41.433v66.629h429.628v-66.63c.024-22.894-18.504-41.433-41.328-41.433m-335.395 75.69c-10.96 0-19.816-8.898-19.816-19.855 0-10.98 8.879-19.855 19.816-19.855 10.934 0 19.817 8.898 19.817 19.855s-8.883 19.855-19.817 19.855m61.954 0c-10.957 0-19.817-8.898-19.817-19.855 0-10.98 8.883-19.855 19.817-19.855 10.937 0 19.816 8.898 19.816 19.855.023 10.957-8.855 19.855-19.816 19.855m61.98 0c-10.957 0-19.816-8.898-19.816-19.855s8.882-19.855 19.816-19.855c10.961 0 19.816 8.898 19.816 19.855s-8.855 19.855-19.816 19.855m0 0"/></clipPath><clipPath id="aS"><path d="M1372 298h213v109h-213Zm0 0"/></clipPath><clipPath id="aT"><path d="M1760.375 298.04h-346.95c-22.827 0-41.35 18.538-41.35 41.433v66.629h429.628v-66.63c.024-22.894-18.504-41.433-41.328-41.433m-335.395 75.69c-10.96 0-19.816-8.898-19.816-19.855 0-10.98 8.879-19.855 19.816-19.855 10.934 0 19.817 8.898 19.817 19.855s-8.883 19.855-19.817 19.855m61.954 0c-10.957 0-19.817-8.898-19.817-19.855 0-10.98 8.883-19.855 19.817-19.855 10.937 0 19.816 8.898 19.816 19.855.023 10.957-8.855 19.855-19.816 19.855m61.98 0c-10.957 0-19.816-8.898-19.816-19.855s8.882-19.855 19.816-19.855c10.961 0 19.816 8.898 19.816 19.855s-8.855 19.855-19.816 19.855m0 0"/></clipPath><clipPath id="aU"><path d="M1372 298h226v109h-226Zm0 0"/></clipPath><clipPath id="aV"><path d="M1760.375 298.04h-346.95c-22.827 0-41.35 18.538-41.35 41.433v66.629h429.628v-66.63c.024-22.894-18.504-41.433-41.328-41.433m-335.395 75.69c-10.96 0-19.816-8.898-19.816-19.855 0-10.98 8.879-19.855 19.816-19.855 10.934 0 19.817 8.898 19.817 19.855s-8.883 19.855-19.817 19.855m61.954 0c-10.957 0-19.817-8.898-19.817-19.855 0-10.98 8.883-19.855 19.817-19.855 10.937 0 19.816 8.898 19.816 19.855.023 10.957-8.855 19.855-19.816 19.855m61.98 0c-10.957 0-19.816-8.898-19.816-19.855s8.882-19.855 19.816-19.855c10.961 0 19.816 8.898 19.816 19.855s-8.855 19.855-19.816 19.855m0 0"/></clipPath><clipPath id="aW"><path d="M1372 298h239v109h-239Zm0 0"/></clipPath><clipPath id="aX"><path d="M1760.375 298.04h-346.95c-22.827 0-41.35 18.538-41.35 41.433v66.629h429.628v-66.63c.024-22.894-18.504-41.433-41.328-41.433m-335.395 75.69c-10.96 0-19.816-8.898-19.816-19.855 0-10.98 8.879-19.855 19.816-19.855 10.934 0 19.817 8.898 19.817 19.855s-8.883 19.855-19.817 19.855m61.954 0c-10.957 0-19.817-8.898-19.817-19.855 0-10.98 8.883-19.855 19.817-19.855 10.937 0 19.816 8.898 19.816 19.855.023 10.957-8.855 19.855-19.816 19.855m61.98 0c-10.957 0-19.816-8.898-19.816-19.855s8.882-19.855 19.816-19.855c10.961 0 19.816 8.898 19.816 19.855s-8.855 19.855-19.816 19.855m0 0"/></clipPath><clipPath id="aY"><path d="M1372 298h251v109h-251Zm0 0"/></clipPath><clipPath id="aZ"><path d="M1760.375 298.04h-346.95c-22.827 0-41.35 18.538-41.35 41.433v66.629h429.628v-66.63c.024-22.894-18.504-41.433-41.328-41.433m-335.395 75.69c-10.96 0-19.816-8.898-19.816-19.855 0-10.98 8.879-19.855 19.816-19.855 10.934 0 19.817 8.898 19.817 19.855s-8.883 19.855-19.817 19.855m61.954 0c-10.957 0-19.817-8.898-19.817-19.855 0-10.98 8.883-19.855 19.817-19.855 10.937 0 19.816 8.898 19.816 19.855.023 10.957-8.855 19.855-19.816 19.855m61.98 0c-10.957 0-19.816-8.898-19.816-19.855s8.882-19.855 19.816-19.855c10.961 0 19.816 8.898 19.816 19.855s-8.855 19.855-19.816 19.855m0 0"/></clipPath><clipPath id="ba"><path d="M1372 298h264v109h-264Zm0 0"/></clipPath><clipPath id="bb"><path d="M1760.375 298.04h-346.95c-22.827 0-41.35 18.538-41.35 41.433v66.629h429.628v-66.63c.024-22.894-18.504-41.433-41.328-41.433m-335.395 75.69c-10.96 0-19.816-8.898-19.816-19.855 0-10.98 8.879-19.855 19.816-19.855 10.934 0 19.817 8.898 19.817 19.855s-8.883 19.855-19.817 19.855m61.954 0c-10.957 0-19.817-8.898-19.817-19.855 0-10.98 8.883-19.855 19.817-19.855 10.937 0 19.816 8.898 19.816 19.855.023 10.957-8.855 19.855-19.816 19.855m61.98 0c-10.957 0-19.816-8.898-19.816-19.855s8.882-19.855 19.816-19.855c10.961 0 19.816 8.898 19.816 19.855s-8.855 19.855-19.816 19.855m0 0"/></clipPath><clipPath id="bc"><path d="M1372 298h277v109h-277Zm0 0"/></clipPath><clipPath id="bd"><path d="M1760.375 298.04h-346.95c-22.827 0-41.35 18.538-41.35 41.433v66.629h429.628v-66.63c.024-22.894-18.504-41.433-41.328-41.433m-335.395 75.69c-10.96 0-19.816-8.898-19.816-19.855 0-10.98 8.879-19.855 19.816-19.855 10.934 0 19.817 8.898 19.817 19.855s-8.883 19.855-19.817 19.855m61.954 0c-10.957 0-19.817-8.898-19.817-19.855 0-10.98 8.883-19.855 19.817-19.855 10.937 0 19.816 8.898 19.816 19.855.023 10.957-8.855 19.855-19.816 19.855m61.98 0c-10.957 0-19.816-8.898-19.816-19.855s8.882-19.855 19.816-19.855c10.961 0 19.816 8.898 19.816 19.855s-8.855 19.855-19.816 19.855m0 0"/></clipPath><clipPath id="be"><path d="M1372 298h289v109h-289Zm0 0"/></clipPath><clipPath id="bf"><path d="M1760.375 298.04h-346.95c-22.827 0-41.35 18.538-41.35 41.433v66.629h429.628v-66.63c.024-22.894-18.504-41.433-41.328-41.433m-335.395 75.69c-10.96 0-19.816-8.898-19.816-19.855 0-10.98 8.879-19.855 19.816-19.855 10.934 0 19.817 8.898 19.817 19.855s-8.883 19.855-19.817 19.855m61.954 0c-10.957 0-19.817-8.898-19.817-19.855 0-10.98 8.883-19.855 19.817-19.855 10.937 0 19.816 8.898 19.816 19.855.023 10.957-8.855 19.855-19.816 19.855m61.98 0c-10.957 0-19.816-8.898-19.816-19.855s8.882-19.855 19.816-19.855c10.961 0 19.816 8.898 19.816 19.855s-8.855 19.855-19.816 19.855m0 0"/></clipPath><clipPath id="bg"><path d="M1372 298h302v109h-302Zm0 0"/></clipPath><clipPath id="bh"><path d="M1760.375 298.04h-346.95c-22.827 0-41.35 18.538-41.35 41.433v66.629h429.628v-66.63c.024-22.894-18.504-41.433-41.328-41.433m-335.395 75.69c-10.96 0-19.816-8.898-19.816-19.855 0-10.98 8.879-19.855 19.816-19.855 10.934 0 19.817 8.898 19.817 19.855s-8.883 19.855-19.817 19.855m61.954 0c-10.957 0-19.817-8.898-19.817-19.855 0-10.98 8.883-19.855 19.817-19.855 10.937 0 19.816 8.898 19.816 19.855.023 10.957-8.855 19.855-19.816 19.855m61.98 0c-10.957 0-19.816-8.898-19.816-19.855s8.882-19.855 19.816-19.855c10.961 0 19.816 8.898 19.816 19.855s-8.855 19.855-19.816 19.855m0 0"/></clipPath><clipPath id="bi"><path d="M1372 298h314v109h-314Zm0 0"/></clipPath><clipPath id="bj"><path d="M1760.375 298.04h-346.95c-22.827 0-41.35 18.538-41.35 41.433v66.629h429.628v-66.63c.024-22.894-18.504-41.433-41.328-41.433m-335.395 75.69c-10.96 0-19.816-8.898-19.816-19.855 0-10.98 8.879-19.855 19.816-19.855 10.934 0 19.817 8.898 19.817 19.855s-8.883 19.855-19.817 19.855m61.954 0c-10.957 0-19.817-8.898-19.817-19.855 0-10.98 8.883-19.855 19.817-19.855 10.937 0 19.816 8.898 19.816 19.855.023 10.957-8.855 19.855-19.816 19.855m61.98 0c-10.957 0-19.816-8.898-19.816-19.855s8.882-19.855 19.816-19.855c10.961 0 19.816 8.898 19.816 19.855s-8.855 19.855-19.816 19.855m0 0"/></clipPath><clipPath id="bk"><path d="M1372 298h327v109h-327Zm0 0"/></clipPath><clipPath id="bl"><path d="M1760.375 298.04h-346.95c-22.827 0-41.35 18.538-41.35 41.433v66.629h429.628v-66.63c.024-22.894-18.504-41.433-41.328-41.433m-335.395 75.69c-10.96 0-19.816-8.898-19.816-19.855 0-10.98 8.879-19.855 19.816-19.855 10.934 0 19.817 8.898 19.817 19.855s-8.883 19.855-19.817 19.855m61.954 0c-10.957 0-19.817-8.898-19.817-19.855 0-10.98 8.883-19.855 19.817-19.855 10.937 0 19.816 8.898 19.816 19.855.023 10.957-8.855 19.855-19.816 19.855m61.98 0c-10.957 0-19.816-8.898-19.816-19.855s8.882-19.855 19.816-19.855c10.961 0 19.816 8.898 19.816 19.855s-8.855 19.855-19.816 19.855m0 0"/></clipPath><clipPath id="bm"><path d="M1372 298h340v109h-340Zm0 0"/></clipPath><clipPath id="bn"><path d="M1760.375 298.04h-346.95c-22.827 0-41.35 18.538-41.35 41.433v66.629h429.628v-66.63c.024-22.894-18.504-41.433-41.328-41.433m-335.395 75.69c-10.96 0-19.816-8.898-19.816-19.855 0-10.98 8.879-19.855 19.816-19.855 10.934 0 19.817 8.898 19.817 19.855s-8.883 19.855-19.817 19.855m61.954 0c-10.957 0-19.817-8.898-19.817-19.855 0-10.98 8.883-19.855 19.817-19.855 10.937 0 19.816 8.898 19.816 19.855.023 10.957-8.855 19.855-19.816 19.855m61.98 0c-10.957 0-19.816-8.898-19.816-19.855s8.882-19.855 19.816-19.855c10.961 0 19.816 8.898 19.816 19.855s-8.855 19.855-19.816 19.855m0 0"/></clipPath><clipPath id="bo"><path d="M1372 298h352v109h-352Zm0 0"/></clipPath><clipPath id="bp"><path d="M1760.375 298.04h-346.95c-22.827 0-41.35 18.538-41.35 41.433v66.629h429.628v-66.63c.024-22.894-18.504-41.433-41.328-41.433m-335.395 75.69c-10.96 0-19.816-8.898-19.816-19.855 0-10.98 8.879-19.855 19.816-19.855 10.934 0 19.817 8.898 19.817 19.855s-8.883 19.855-19.817 19.855m61.954 0c-10.957 0-19.817-8.898-19.817-19.855 0-10.98 8.883-19.855 19.817-19.855 10.937 0 19.816 8.898 19.816 19.855.023 10.957-8.855 19.855-19.816 19.855m61.98 0c-10.957 0-19.816-8.898-19.816-19.855s8.882-19.855 19.816-19.855c10.961 0 19.816 8.898 19.816 19.855s-8.855 19.855-19.816 19.855m0 0"/></clipPath><clipPath id="bq"><path d="M1372 298h365v109h-365Zm0 0"/></clipPath><clipPath id="br"><path d="M1760.375 298.04h-346.95c-22.827 0-41.35 18.538-41.35 41.433v66.629h429.628v-66.63c.024-22.894-18.504-41.433-41.328-41.433m-335.395 75.69c-10.96 0-19.816-8.898-19.816-19.855 0-10.98 8.879-19.855 19.816-19.855 10.934 0 19.817 8.898 19.817 19.855s-8.883 19.855-19.817 19.855m61.954 0c-10.957 0-19.817-8.898-19.817-19.855 0-10.98 8.883-19.855 19.817-19.855 10.937 0 19.816 8.898 19.816 19.855.023 10.957-8.855 19.855-19.816 19.855m61.98 0c-10.957 0-19.816-8.898-19.816-19.855s8.882-19.855 19.816-19.855c10.961 0 19.816 8.898 19.816 19.855s-8.855 19.855-19.816 19.855m0 0"/></clipPath><clipPath id="bs"><path d="M1372 298h378v109h-378Zm0 0"/></clipPath><clipPath id="bt"><path d="M1760.375 298.04h-346.95c-22.827 0-41.35 18.538-41.35 41.433v66.629h429.628v-66.63c.024-22.894-18.504-41.433-41.328-41.433m-335.395 75.69c-10.96 0-19.816-8.898-19.816-19.855 0-10.98 8.879-19.855 19.816-19.855 10.934 0 19.817 8.898 19.817 19.855s-8.883 19.855-19.817 19.855m61.954 0c-10.957 0-19.817-8.898-19.817-19.855 0-10.98 8.883-19.855 19.817-19.855 10.937 0 19.816 8.898 19.816 19.855.023 10.957-8.855 19.855-19.816 19.855m61.98 0c-10.957 0-19.816-8.898-19.816-19.855s8.882-19.855 19.816-19.855c10.961 0 19.816 8.898 19.816 19.855s-8.855 19.855-19.816 19.855m0 0"/></clipPath><clipPath id="bu"><path d="M1374 298h389v109h-389Zm0 0"/></clipPath><clipPath id="bv"><path d="M1760.375 298.04h-346.95c-22.827 0-41.35 18.538-41.35 41.433v66.629h429.628v-66.63c.024-22.894-18.504-41.433-41.328-41.433m-335.395 75.69c-10.96 0-19.816-8.898-19.816-19.855 0-10.98 8.879-19.855 19.816-19.855 10.934 0 19.817 8.898 19.817 19.855s-8.883 19.855-19.817 19.855m61.954 0c-10.957 0-19.817-8.898-19.817-19.855 0-10.98 8.883-19.855 19.817-19.855 10.937 0 19.816 8.898 19.816 19.855.023 10.957-8.855 19.855-19.816 19.855m61.98 0c-10.957 0-19.816-8.898-19.816-19.855s8.882-19.855 19.816-19.855c10.961 0 19.816 8.898 19.816 19.855s-8.855 19.855-19.816 19.855m0 0"/></clipPath><clipPath id="bw"><path d="M1386 298h389v109h-389Zm0 0"/></clipPath><clipPath id="bx"><path d="M1760.375 298.04h-346.95c-22.827 0-41.35 18.538-41.35 41.433v66.629h429.628v-66.63c.024-22.894-18.504-41.433-41.328-41.433m-335.395 75.69c-10.96 0-19.816-8.898-19.816-19.855 0-10.98 8.879-19.855 19.816-19.855 10.934 0 19.817 8.898 19.817 19.855s-8.883 19.855-19.817 19.855m61.954 0c-10.957 0-19.817-8.898-19.817-19.855 0-10.98 8.883-19.855 19.817-19.855 10.937 0 19.816 8.898 19.816 19.855.023 10.957-8.855 19.855-19.816 19.855m61.98 0c-10.957 0-19.816-8.898-19.816-19.855s8.882-19.855 19.816-19.855c10.961 0 19.816 8.898 19.816 19.855s-8.855 19.855-19.816 19.855m0 0"/></clipPath><clipPath id="by"><path d="M1399 298h389v109h-389Zm0 0"/></clipPath><clipPath id="bz"><path d="M1760.375 298.04h-346.95c-22.827 0-41.35 18.538-41.35 41.433v66.629h429.628v-66.63c.024-22.894-18.504-41.433-41.328-41.433m-335.395 75.69c-10.96 0-19.816-8.898-19.816-19.855 0-10.98 8.879-19.855 19.816-19.855 10.934 0 19.817 8.898 19.817 19.855s-8.883 19.855-19.817 19.855m61.954 0c-10.957 0-19.817-8.898-19.817-19.855 0-10.98 8.883-19.855 19.817-19.855 10.937 0 19.816 8.898 19.816 19.855.023 10.957-8.855 19.855-19.816 19.855m61.98 0c-10.957 0-19.816-8.898-19.816-19.855s8.882-19.855 19.816-19.855c10.961 0 19.816 8.898 19.816 19.855s-8.855 19.855-19.816 19.855m0 0"/></clipPath><clipPath id="bA"><path d="M1412 298h389v109h-389Zm0 0"/></clipPath><clipPath id="bB"><path d="M1760.375 298.04h-346.95c-22.827 0-41.35 18.538-41.35 41.433v66.629h429.628v-66.63c.024-22.894-18.504-41.433-41.328-41.433m-335.395 75.69c-10.96 0-19.816-8.898-19.816-19.855 0-10.98 8.879-19.855 19.816-19.855 10.934 0 19.817 8.898 19.817 19.855s-8.883 19.855-19.817 19.855m61.954 0c-10.957 0-19.817-8.898-19.817-19.855 0-10.98 8.883-19.855 19.817-19.855 10.937 0 19.816 8.898 19.816 19.855.023 10.957-8.855 19.855-19.816 19.855m61.98 0c-10.957 0-19.816-8.898-19.816-19.855s8.882-19.855 19.816-19.855c10.961 0 19.816 8.898 19.816 19.855s-8.855 19.855-19.816 19.855m0 0"/></clipPath><clipPath id="bC"><path d="M1424 298h378v109h-378Zm0 0"/></clipPath><clipPath id="bD"><path d="M1760.375 298.04h-346.95c-22.827 0-41.35 18.538-41.35 41.433v66.629h429.628v-66.63c.024-22.894-18.504-41.433-41.328-41.433m-335.395 75.69c-10.96 0-19.816-8.898-19.816-19.855 0-10.98 8.879-19.855 19.816-19.855 10.934 0 19.817 8.898 19.817 19.855s-8.883 19.855-19.817 19.855m61.954 0c-10.957 0-19.817-8.898-19.817-19.855 0-10.98 8.883-19.855 19.817-19.855 10.937 0 19.816 8.898 19.816 19.855.023 10.957-8.855 19.855-19.816 19.855m61.98 0c-10.957 0-19.816-8.898-19.816-19.855s8.882-19.855 19.816-19.855c10.961 0 19.816 8.898 19.816 19.855s-8.855 19.855-19.816 19.855m0 0"/></clipPath><clipPath id="bE"><path d="M1437 298h365v109h-365Zm0 0"/></clipPath><clipPath id="bF"><path d="M1760.375 298.04h-346.95c-22.827 0-41.35 18.538-41.35 41.433v66.629h429.628v-66.63c.024-22.894-18.504-41.433-41.328-41.433m-335.395 75.69c-10.96 0-19.816-8.898-19.816-19.855 0-10.98 8.879-19.855 19.816-19.855 10.934 0 19.817 8.898 19.817 19.855s-8.883 19.855-19.817 19.855m61.954 0c-10.957 0-19.817-8.898-19.817-19.855 0-10.98 8.883-19.855 19.817-19.855 10.937 0 19.816 8.898 19.816 19.855.023 10.957-8.855 19.855-19.816 19.855m61.98 0c-10.957 0-19.816-8.898-19.816-19.855s8.882-19.855 19.816-19.855c10.961 0 19.816 8.898 19.816 19.855s-8.855 19.855-19.816 19.855m0 0"/></clipPath><clipPath id="bG"><path d="M1450 298h352v109h-352Zm0 0"/></clipPath><clipPath id="bH"><path d="M1760.375 298.04h-346.95c-22.827 0-41.35 18.538-41.35 41.433v66.629h429.628v-66.63c.024-22.894-18.504-41.433-41.328-41.433m-335.395 75.69c-10.96 0-19.816-8.898-19.816-19.855 0-10.98 8.879-19.855 19.816-19.855 10.934 0 19.817 8.898 19.817 19.855s-8.883 19.855-19.817 19.855m61.954 0c-10.957 0-19.817-8.898-19.817-19.855 0-10.98 8.883-19.855 19.817-19.855 10.937 0 19.816 8.898 19.816 19.855.023 10.957-8.855 19.855-19.816 19.855m61.98 0c-10.957 0-19.816-8.898-19.816-19.855s8.882-19.855 19.816-19.855c10.961 0 19.816 8.898 19.816 19.855s-8.855 19.855-19.816 19.855m0 0"/></clipPath><clipPath id="bI"><path d="M1462 298h340v109h-340Zm0 0"/></clipPath><clipPath id="bJ"><path d="M1760.375 298.04h-346.95c-22.827 0-41.35 18.538-41.35 41.433v66.629h429.628v-66.63c.024-22.894-18.504-41.433-41.328-41.433m-335.395 75.69c-10.96 0-19.816-8.898-19.816-19.855 0-10.98 8.879-19.855 19.816-19.855 10.934 0 19.817 8.898 19.817 19.855s-8.883 19.855-19.817 19.855m61.954 0c-10.957 0-19.817-8.898-19.817-19.855 0-10.98 8.883-19.855 19.817-19.855 10.937 0 19.816 8.898 19.816 19.855.023 10.957-8.855 19.855-19.816 19.855m61.98 0c-10.957 0-19.816-8.898-19.816-19.855s8.882-19.855 19.816-19.855c10.961 0 19.816 8.898 19.816 19.855s-8.855 19.855-19.816 19.855m0 0"/></clipPath><clipPath id="bK"><path d="M1475 298h327v109h-327Zm0 0"/></clipPath><clipPath id="bL"><path d="M1760.375 298.04h-346.95c-22.827 0-41.35 18.538-41.35 41.433v66.629h429.628v-66.63c.024-22.894-18.504-41.433-41.328-41.433m-335.395 75.69c-10.96 0-19.816-8.898-19.816-19.855 0-10.98 8.879-19.855 19.816-19.855 10.934 0 19.817 8.898 19.817 19.855s-8.883 19.855-19.817 19.855m61.954 0c-10.957 0-19.817-8.898-19.817-19.855 0-10.98 8.883-19.855 19.817-19.855 10.937 0 19.816 8.898 19.816 19.855.023 10.957-8.855 19.855-19.816 19.855m61.98 0c-10.957 0-19.816-8.898-19.816-19.855s8.882-19.855 19.816-19.855c10.961 0 19.816 8.898 19.816 19.855s-8.855 19.855-19.816 19.855m0 0"/></clipPath><clipPath id="bM"><path d="M1488 298h314v109h-314Zm0 0"/></clipPath><clipPath id="bN"><path d="M1760.375 298.04h-346.95c-22.827 0-41.35 18.538-41.35 41.433v66.629h429.628v-66.63c.024-22.894-18.504-41.433-41.328-41.433m-335.395 75.69c-10.96 0-19.816-8.898-19.816-19.855 0-10.98 8.879-19.855 19.816-19.855 10.934 0 19.817 8.898 19.817 19.855s-8.883 19.855-19.817 19.855m61.954 0c-10.957 0-19.817-8.898-19.817-19.855 0-10.98 8.883-19.855 19.817-19.855 10.937 0 19.816 8.898 19.816 19.855.023 10.957-8.855 19.855-19.816 19.855m61.98 0c-10.957 0-19.816-8.898-19.816-19.855s8.882-19.855 19.816-19.855c10.961 0 19.816 8.898 19.816 19.855s-8.855 19.855-19.816 19.855m0 0"/></clipPath><clipPath id="bO"><path d="M1500 298h302v109h-302Zm0 0"/></clipPath><clipPath id="bP"><path d="M1760.375 298.04h-346.95c-22.827 0-41.35 18.538-41.35 41.433v66.629h429.628v-66.63c.024-22.894-18.504-41.433-41.328-41.433m-335.395 75.69c-10.96 0-19.816-8.898-19.816-19.855 0-10.98 8.879-19.855 19.816-19.855 10.934 0 19.817 8.898 19.817 19.855s-8.883 19.855-19.817 19.855m61.954 0c-10.957 0-19.817-8.898-19.817-19.855 0-10.98 8.883-19.855 19.817-19.855 10.937 0 19.816 8.898 19.816 19.855.023 10.957-8.855 19.855-19.816 19.855m61.98 0c-10.957 0-19.816-8.898-19.816-19.855s8.882-19.855 19.816-19.855c10.961 0 19.816 8.898 19.816 19.855s-8.855 19.855-19.816 19.855m0 0"/></clipPath><clipPath id="bQ"><path d="M1513 298h289v109h-289Zm0 0"/></clipPath><clipPath id="bR"><path d="M1760.375 298.04h-346.95c-22.827 0-41.35 18.538-41.35 41.433v66.629h429.628v-66.63c.024-22.894-18.504-41.433-41.328-41.433m-335.395 75.69c-10.96 0-19.816-8.898-19.816-19.855 0-10.98 8.879-19.855 19.816-19.855 10.934 0 19.817 8.898 19.817 19.855s-8.883 19.855-19.817 19.855m61.954 0c-10.957 0-19.817-8.898-19.817-19.855 0-10.98 8.883-19.855 19.817-19.855 10.937 0 19.816 8.898 19.816 19.855.023 10.957-8.855 19.855-19.816 19.855m61.98 0c-10.957 0-19.816-8.898-19.816-19.855s8.882-19.855 19.816-19.855c10.961 0 19.816 8.898 19.816 19.855s-8.855 19.855-19.816 19.855m0 0"/></clipPath><clipPath id="bS"><path d="M1526 298h276v109h-276Zm0 0"/></clipPath><clipPath id="bT"><path d="M1760.375 298.04h-346.95c-22.827 0-41.35 18.538-41.35 41.433v66.629h429.628v-66.63c.024-22.894-18.504-41.433-41.328-41.433m-335.395 75.69c-10.96 0-19.816-8.898-19.816-19.855 0-10.98 8.879-19.855 19.816-19.855 10.934 0 19.817 8.898 19.817 19.855s-8.883 19.855-19.817 19.855m61.954 0c-10.957 0-19.817-8.898-19.817-19.855 0-10.98 8.883-19.855 19.817-19.855 10.937 0 19.816 8.898 19.816 19.855.023 10.957-8.855 19.855-19.816 19.855m61.98 0c-10.957 0-19.816-8.898-19.816-19.855s8.882-19.855 19.816-19.855c10.961 0 19.816 8.898 19.816 19.855s-8.855 19.855-19.816 19.855m0 0"/></clipPath><clipPath id="bU"><path d="M1539 298h263v109h-263Zm0 0"/></clipPath><clipPath id="bV"><path d="M1760.375 298.04h-346.95c-22.827 0-41.35 18.538-41.35 41.433v66.629h429.628v-66.63c.024-22.894-18.504-41.433-41.328-41.433m-335.395 75.69c-10.96 0-19.816-8.898-19.816-19.855 0-10.98 8.879-19.855 19.816-19.855 10.934 0 19.817 8.898 19.817 19.855s-8.883 19.855-19.817 19.855m61.954 0c-10.957 0-19.817-8.898-19.817-19.855 0-10.98 8.883-19.855 19.817-19.855 10.937 0 19.816 8.898 19.816 19.855.023 10.957-8.855 19.855-19.816 19.855m61.98 0c-10.957 0-19.816-8.898-19.816-19.855s8.882-19.855 19.816-19.855c10.961 0 19.816 8.898 19.816 19.855s-8.855 19.855-19.816 19.855m0 0"/></clipPath><clipPath id="bW"><path d="M1551 298h251v109h-251Zm0 0"/></clipPath><clipPath id="bX"><path d="M1760.375 298.04h-346.95c-22.827 0-41.35 18.538-41.35 41.433v66.629h429.628v-66.63c.024-22.894-18.504-41.433-41.328-41.433m-335.395 75.69c-10.96 0-19.816-8.898-19.816-19.855 0-10.98 8.879-19.855 19.816-19.855 10.934 0 19.817 8.898 19.817 19.855s-8.883 19.855-19.817 19.855m61.954 0c-10.957 0-19.817-8.898-19.817-19.855 0-10.98 8.883-19.855 19.817-19.855 10.937 0 19.816 8.898 19.816 19.855.023 10.957-8.855 19.855-19.816 19.855m61.98 0c-10.957 0-19.816-8.898-19.816-19.855s8.882-19.855 19.816-19.855c10.961 0 19.816 8.898 19.816 19.855s-8.855 19.855-19.816 19.855m0 0"/></clipPath><clipPath id="bY"><path d="M1564 298h238v109h-238Zm0 0"/></clipPath><clipPath id="bZ"><path d="M1760.375 298.04h-346.95c-22.827 0-41.35 18.538-41.35 41.433v66.629h429.628v-66.63c.024-22.894-18.504-41.433-41.328-41.433m-335.395 75.69c-10.96 0-19.816-8.898-19.816-19.855 0-10.98 8.879-19.855 19.816-19.855 10.934 0 19.817 8.898 19.817 19.855s-8.883 19.855-19.817 19.855m61.954 0c-10.957 0-19.817-8.898-19.817-19.855 0-10.98 8.883-19.855 19.817-19.855 10.937 0 19.816 8.898 19.816 19.855.023 10.957-8.855 19.855-19.816 19.855m61.98 0c-10.957 0-19.816-8.898-19.816-19.855s8.882-19.855 19.816-19.855c10.961 0 19.816 8.898 19.816 19.855s-8.855 19.855-19.816 19.855m0 0"/></clipPath><clipPath id="ca"><path d="M1576 298h226v109h-226Zm0 0"/></clipPath><clipPath id="cb"><path d="M1760.375 298.04h-346.95c-22.827 0-41.35 18.538-41.35 41.433v66.629h429.628v-66.63c.024-22.894-18.504-41.433-41.328-41.433m-335.395 75.69c-10.96 0-19.816-8.898-19.816-19.855 0-10.98 8.879-19.855 19.816-19.855 10.934 0 19.817 8.898 19.817 19.855s-8.883 19.855-19.817 19.855m61.954 0c-10.957 0-19.817-8.898-19.817-19.855 0-10.98 8.883-19.855 19.817-19.855 10.937 0 19.816 8.898 19.816 19.855.023 10.957-8.855 19.855-19.816 19.855m61.98 0c-10.957 0-19.816-8.898-19.816-19.855s8.882-19.855 19.816-19.855c10.961 0 19.816 8.898 19.816 19.855s-8.855 19.855-19.816 19.855m0 0"/></clipPath><clipPath id="cc"><path d="M1589 298h213v109h-213Zm0 0"/></clipPath><clipPath id="cd"><path d="M1760.375 298.04h-346.95c-22.827 0-41.35 18.538-41.35 41.433v66.629h429.628v-66.63c.024-22.894-18.504-41.433-41.328-41.433m-335.395 75.69c-10.96 0-19.816-8.898-19.816-19.855 0-10.98 8.879-19.855 19.816-19.855 10.934 0 19.817 8.898 19.817 19.855s-8.883 19.855-19.817 19.855m61.954 0c-10.957 0-19.817-8.898-19.817-19.855 0-10.98 8.883-19.855 19.817-19.855 10.937 0 19.816 8.898 19.816 19.855.023 10.957-8.855 19.855-19.816 19.855m61.98 0c-10.957 0-19.816-8.898-19.816-19.855s8.882-19.855 19.816-19.855c10.961 0 19.816 8.898 19.816 19.855s-8.855 19.855-19.816 19.855m0 0"/></clipPath><clipPath id="ce"><path d="M1598.719 462.082H1701v27.441h-102.281Zm0 0"/></clipPath><clipPath id="cf"><path d="M1598.719 462.082H1714v27.441h-115.281Zm0 0"/></clipPath><clipPath id="cg"><path d="M1598.719 462.082H1726v27.441h-127.281Zm0 0"/></clipPath><clipPath id="ch"><path d="M1598.719 462.082H1739v27.441h-140.281Zm0 0"/></clipPath><clipPath id="ci"><path d="M1598.719 462.082H1752v27.441h-153.281Zm0 0"/></clipPath><clipPath id="cj"><path d="M1598.719 462.082h158.097v27.441H1598.72Zm0 0"/></clipPath><clipPath id="ck"><path d="M1598.719 572.008H1701v27.441h-102.281Zm0 0"/></clipPath><clipPath id="cl"><path d="M1598.719 572.008H1714v27.441h-115.281Zm0 0"/></clipPath><clipPath id="cm"><path d="M1598.719 572.008H1726v27.441h-127.281Zm0 0"/></clipPath><clipPath id="cn"><path d="M1598.719 572.008H1739v27.441h-140.281Zm0 0"/></clipPath><clipPath id="co"><path d="M1598.719 572.008H1752v27.441h-153.281Zm0 0"/></clipPath><clipPath id="cp"><path d="M1598.719 572.008h158.097v27.441H1598.72Zm0 0"/></clipPath><filter id="a" width="100%" height="100%" x="0%" y="0%"><feColorMatrix color-interpolation-filters="sRGB" values="0 0 0 0 1 0 0 0 0 1 0 0 0 0 1 0 0 0 1 0"/></filter><mask id="aC"><g filter="url(#a)"><path fill-opacity=".5" d="M-191-100h2292v1200H-191z"/></g></mask><g id="aD" clip-path="url(#b)"><path fill="#76BEF7" d="M996.805 479.953H835.316a.934.934 0 0 1-.933-.933v-25.047c0-9.118 7.379-16.485 16.472-16.508h130.407c9.097 0 16.449 7.39 16.472 16.508v25.047c-.023.527-.43.933-.93.933m-160.559-1.844h159.629v-24.113c0-8.086-6.543-14.64-14.613-14.64H850.855c-8.066 0-14.609 6.554-14.609 14.64Zm65.535-10.308c-4.629 0-8.379-3.758-8.379-8.399s3.75-8.398 8.38-8.398c4.632 0 8.382 3.758 8.382 8.398-.023 4.618-3.773 8.371-8.383 8.399m0-14.953a6.515 6.515 0 0 0-6.515 6.53 6.515 6.515 0 0 0 6.515 6.532 6.52 6.52 0 0 0 6.52-6.531c0-3.59-2.914-6.508-6.52-6.531m-23.3 14.953c-4.633 0-8.38-3.758-8.38-8.399s3.747-8.398 8.38-8.398c4.632 0 8.378 3.758 8.378 8.398 0 4.618-3.746 8.371-8.379 8.399m0-14.953a6.52 6.52 0 0 0-6.52 6.53 6.52 6.52 0 0 0 6.52 6.532A6.52 6.52 0 0 0 885 459.38c0-3.59-2.914-6.508-6.52-6.531M855.202 467.8c-4.633 0-8.379-3.758-8.379-8.399s3.746-8.398 8.38-8.398c4.632 0 8.378 3.758 8.378 8.398-.023 4.618-3.773 8.371-8.379 8.399m0-14.953a6.52 6.52 0 0 0-6.52 6.53 6.52 6.52 0 0 0 6.52 6.532 6.515 6.515 0 0 0 6.516-6.531c0-3.59-2.934-6.508-6.516-6.531M981.262 593.758H850.855c-9.093 0-16.449-7.395-16.472-16.508v-94.523c0-.5.406-.934.933-.934.5 0 .93.406.93.934v94.523c0 8.086 6.543 14.64 14.61 14.64h130.406c8.07 0 14.613-6.554 14.613-14.64v-94.523c0-.5.406-.934.93-.934.527 0 .93.406.93.934v94.523c-.024 9.113-7.4 16.48-16.473 16.508m0 0"/><g clip-path="url(#c)"><g clip-path="url(#d)"><path fill="#76BEF7" d="M736.207 551.125 881.09 405.949l.91.914L737.117 552.04Zm0 0"/></g></g><g clip-path="url(#e)"><g clip-path="url(#f)"><path fill="#76BEF7" d="M740.965 551.137 885.844 405.96l.914.914-144.883 145.172Zm0 0"/></g></g><g clip-path="url(#g)"><g clip-path="url(#h)"><path fill="#76BEF7" d="m745.621 551.14 144.883-145.175.91.914-144.883 145.176Zm0 0"/></g></g><g clip-path="url(#i)"><g clip-path="url(#j)"><path fill="#76BEF7" d="m750.395 551.133 144.878-145.176.914.914-144.882 145.176Zm0 0"/></g></g><g clip-path="url(#k)"><g clip-path="url(#l)"><path fill="#76BEF7" d="m755.164 551.129 144.883-145.176.91.914-144.879 145.176Zm0 0"/></g></g><g clip-path="url(#m)"><g clip-path="url(#n)"><path fill="#76BEF7" d="M759.922 551.137 904.8 405.96l.914.914-144.883 145.176Zm0 0"/></g></g><g clip-path="url(#o)"><g clip-path="url(#p)"><path fill="#76BEF7" d="m764.691 551.129 144.883-145.172.91.91-144.879 145.176Zm0 0"/></g></g><g clip-path="url(#q)"><g clip-path="url(#r)"><path fill="#76BEF7" d="m769.45 551.14 144.878-145.175.914.914L770.36 552.055Zm0 0"/></g></g><g clip-path="url(#s)"><g clip-path="url(#t)"><path fill="#76BEF7" d="M774.219 551.137 919.102 405.96l.91.91-144.88 145.176Zm0 0"/></g></g><g clip-path="url(#u)"><g clip-path="url(#v)"><path fill="#76BEF7" d="m778.992 551.129 144.883-145.176.91.914-144.883 145.176Zm0 0"/></g></g><g clip-path="url(#w)"><g clip-path="url(#x)"><path fill="#76BEF7" d="M783.746 551.137 928.63 405.96l.91.914L784.66 552.051Zm0 0"/></g></g><g clip-path="url(#y)"><g clip-path="url(#z)"><path fill="#76BEF7" d="m788.52 551.133 144.882-145.176.91.914L789.43 552.047Zm0 0"/></g></g><g clip-path="url(#A)"><g clip-path="url(#B)"><path fill="#76BEF7" d="m793.293 551.125 144.879-145.176.914.914L794.203 552.04Zm0 0"/></g></g><g clip-path="url(#C)"><g clip-path="url(#D)"><path fill="#76BEF7" d="m797.95 551.129 144.882-145.172.91.91-144.879 145.176Zm0 0"/></g></g><g clip-path="url(#E)"><g clip-path="url(#F)"><path fill="#76BEF7" d="m802.707 551.14 144.879-145.175.914.914-144.883 145.176Zm0 0"/></g></g><g clip-path="url(#G)"><g clip-path="url(#H)"><path fill="#76BEF7" d="M807.477 551.133 952.359 405.96l.91.91-144.878 145.176Zm0 0"/></g></g><g clip-path="url(#I)"><g clip-path="url(#J)"><path fill="#76BEF7" d="m812.25 551.129 144.883-145.176.91.914L813.16 552.043Zm0 0"/></g></g><g clip-path="url(#K)"><g clip-path="url(#L)"><path fill="#76BEF7" d="M817.004 551.137 961.887 405.96l.91.914-144.879 145.176Zm0 0"/></g></g><g clip-path="url(#M)"><g clip-path="url(#N)"><path fill="#76BEF7" d="M821.777 551.133 966.66 405.957l.91.914-144.883 145.176Zm0 0"/></g></g><g clip-path="url(#O)"><g clip-path="url(#P)"><path fill="#76BEF7" d="m826.531 551.14 144.883-145.175.91.914-144.879 145.176Zm0 0"/></g></g><g clip-path="url(#Q)"><g clip-path="url(#R)"><path fill="#76BEF7" d="M831.305 551.137 976.188 405.96l.91.91-144.883 145.176Zm0 0"/></g></g><g clip-path="url(#S)"><g clip-path="url(#T)"><path fill="#76BEF7" d="m836.078 551.129 144.879-145.176.914.914-144.883 145.176Zm0 0"/></g></g><g clip-path="url(#U)"><g clip-path="url(#V)"><path fill="#76BEF7" d="m840.832 551.137 144.883-145.172.91.91-144.879 145.176Zm0 0"/></g></g><g clip-path="url(#W)"><g clip-path="url(#X)"><path fill="#76BEF7" d="m845.605 551.133 144.88-145.176.913.914-144.882 145.176Zm0 0"/></g></g><g clip-path="url(#Y)"><g clip-path="url(#Z)"><path fill="#76BEF7" d="m850.383 551.14 144.883-145.175.91.91-144.883 145.176Zm0 0"/></g></g><g clip-path="url(#aa)"><g clip-path="url(#ab)"><path fill="#76BEF7" d="m855.156 551.133 144.88-145.176.913.914-144.883 145.176Zm0 0"/></g></g><g clip-path="url(#ac)"><g clip-path="url(#ad)"><path fill="#76BEF7" d="m859.926 551.125 144.883-145.176.91.914-144.88 145.176Zm0 0"/></g></g><g clip-path="url(#ae)"><g clip-path="url(#af)"><path fill="#76BEF7" d="m864.684 551.137 144.879-145.176.914.914-144.883 145.176Zm0 0"/></g></g><g clip-path="url(#ag)"><g clip-path="url(#ah)"><path fill="#76BEF7" d="m869.453 551.129 144.883-145.176.91.914-144.879 145.176Zm0 0"/></g></g><g clip-path="url(#ai)"><g clip-path="url(#aj)"><path fill="#76BEF7" d="m874.21 551.14 144.88-145.175.914.914L875.12 552.055Zm0 0"/></g></g><g clip-path="url(#ak)"><g clip-path="url(#al)"><path fill="#76BEF7" d="m878.98 551.133 144.883-145.176.914.914-144.882 145.176Zm0 0"/></g></g><g clip-path="url(#am)"><g clip-path="url(#an)"><path fill="#76BEF7" d="m883.754 551.125 144.883-145.176.91.914L884.664 552.04Zm0 0"/></g></g><g clip-path="url(#ao)"><g clip-path="url(#ap)"><path fill="#76BEF7" d="M888.508 551.137 1033.39 405.96l.91.914-144.88 145.176Zm0 0"/></g></g><g clip-path="url(#aq)"><g clip-path="url(#ar)"><path fill="#76BEF7" d="m893.281 551.129 144.883-145.176.91.914-144.879 145.176Zm0 0"/></g></g><g clip-path="url(#as)"><g clip-path="url(#at)"><path fill="#76BEF7" d="m898.035 551.14 144.883-145.175.914.914-144.883 145.176Zm0 0"/></g></g><g clip-path="url(#au)"><g clip-path="url(#av)"><path fill="#76BEF7" d="m902.71 551.129 144.884-145.176.91.914-144.879 145.176Zm0 0"/></g></g><g clip-path="url(#aw)"><g clip-path="url(#ax)"><path fill="#76BEF7" d="m907.469 551.14 144.879-145.175.914.914-144.883 145.176Zm0 0"/></g></g><g clip-path="url(#ay)"><g clip-path="url(#az)"><path fill="#76BEF7" d="m912.238 551.133 144.883-145.176.91.914-144.879 145.176Zm0 0"/></g></g><g clip-path="url(#aA)"><g clip-path="url(#aB)"><path fill="#76BEF7" d="m916.996 551.145 144.879-145.176.914.914-144.883 145.172Zm0 0"/></g></g></g></defs><g mask="url(#aC)"><use xlink:href="#aD"/></g><path fill="#76BEF7" d="M852.266 535.55c3.511 0 6.375 2.872 6.375 6.388v9.593c0 7.059 5.73 12.774 12.75 12.774 4.226 0 4.226-6.387 0-6.387-3.512 0-6.375-2.871-6.375-6.387v-9.593c0-3.805-1.672-7.25-4.32-9.594a12.77 12.77 0 0 0 4.32-9.594v-9.594c0-3.515 2.863-6.386 6.375-6.386 1.765 0 3.199-1.434 3.199-3.204a3.203 3.203 0 0 0-3.2-3.207c-7.042 0-12.75 5.743-12.75 12.774v9.594c0 3.515-2.863 6.386-6.374 6.386-4.203.051-4.203 6.438 0 6.438M967.082 551.531c0 3.516-2.867 6.387-6.375 6.387-4.227 0-4.227 6.387 0 6.387 7.043 0 12.75-5.739 12.75-12.774v-9.593c0-3.516 2.863-6.387 6.371-6.387 4.227 0 4.227-6.387 0-6.387-3.508 0-6.371-2.871-6.371-6.39v-9.59c0-7.059-5.73-12.778-12.75-12.778-4.227 0-4.227 6.387 0 6.387 3.508 0 6.375 2.871 6.375 6.39v9.59c0 3.805 1.672 7.25 4.32 9.594a12.77 12.77 0 0 0-4.32 9.594ZM900.113 554.738c-3.511 0-6.375-2.87-6.375-6.39 0-4.235-6.375-4.235-6.375 0 0 7.058 5.73 12.777 12.75 12.777 7.016 0 12.746-5.742 12.746-12.777v-41.532a3.2 3.2 0 0 0-3.199-3.203h-19.12c-4.227 0-4.227 6.387 0 6.387h15.944v38.348c0 3.52-2.863 6.39-6.37 6.39M935.184 554.738c-3.508 0-6.375-2.87-6.375-6.39 0-4.235-6.375-4.235-6.375 0 0 7.058 5.73 12.777 12.75 12.777s12.75-5.742 12.75-12.777c0-2.774-.907-5.5-2.555-7.653l-15.328-20.48a6.4 6.4 0 0 1-1.266-3.828c0-3.516 2.863-6.387 6.375-6.387 3.508 0 6.375 2.871 6.375 6.387 0 4.234 6.375 4.234 6.375 0 0-7.055-5.73-12.774-12.75-12.774s-12.75 5.742-12.75 12.774c0 2.777.906 5.504 2.555 7.656l15.328 20.48a6.4 6.4 0 0 1 1.266 3.825c0 3.52-2.84 6.39-6.375 6.39M1801.727 408.566h-429.653a2.46 2.46 0 0 1-2.46-2.464v-66.63c.023-24.234 19.624-43.874 43.812-43.898h346.949c24.188.024 43.79 19.664 43.813 43.899v66.629c-.024 1.363-1.126 2.464-2.461 2.464m-427.196-4.93h424.711v-64.163c-.023-21.508-17.426-38.946-38.89-38.97h-346.926c-21.465.024-38.871 17.462-38.895 38.97Zm174.383-27.44c-12.297 0-22.273-10-22.297-22.321-.027-12.32 9.977-22.32 22.274-22.344 12.296 0 22.273 10 22.3 22.32 0 12.32-9.98 22.32-22.277 22.344m0-39.735c-9.598 0-17.355 7.773-17.379 17.39 0 9.618 7.758 17.391 17.356 17.419 9.597 0 17.355-7.778 17.382-17.395-.027-9.617-7.785-17.414-17.359-17.414m-61.98 39.734c-12.293 0-22.274-10-22.297-22.32-.024-12.32 9.98-22.32 22.273-22.344 12.297 0 22.277 10 22.3 22.32 0 12.32-9.98 22.32-22.276 22.344m0-39.734c-9.598 0-17.356 7.773-17.38 17.39 0 9.618 7.758 17.391 17.356 17.419 9.598 0 17.36-7.778 17.383-17.395 0-9.617-7.762-17.414-17.36-17.414m-61.954 39.734c-12.296 0-22.277-10-22.3-22.32-.024-12.32 9.98-22.32 22.277-22.344 12.293-.023 22.273 10 22.297 22.32-.024 12.32-9.98 22.32-22.274 22.344m0-39.734c-9.597 0-17.359 7.773-17.382 17.39 0 9.618 7.761 17.391 17.359 17.419 9.598 0 17.355-7.778 17.379-17.395-.024-9.617-7.781-17.39-17.356-17.414M1760.375 711.293h-346.95c-24.187-.023-43.788-19.668-43.812-43.902V415.957a2.459 2.459 0 1 1 4.918 0v251.461c.024 21.504 17.43 38.945 38.895 38.969h346.949c21.465-.024 38.867-17.465 38.895-38.969V415.957a2.458 2.458 0 1 1 4.918 0v251.461c-.051 24.207-19.626 43.852-43.813 43.875m0 0"/><g clip-path="url(#aE)"><g clip-path="url(#aF)"><path fill="#76BEF7" d="m1108.414 597.945 385.465-386.25 2.43 2.438-385.465 386.25Zm0 0"/></g></g><g clip-path="url(#aG)"><g clip-path="url(#aH)"><path fill="#76BEF7" d="M1121.09 597.945 1506.559 211.7l2.43 2.434-385.47 386.25Zm0 0"/></g></g><g clip-path="url(#aI)"><g clip-path="url(#aJ)"><path fill="#76BEF7" d="m1133.504 597.941 385.465-386.25 2.43 2.438-385.465 386.25Zm0 0"/></g></g><g clip-path="url(#aK)"><g clip-path="url(#aL)"><path fill="#76BEF7" d="m1146.18 597.941 385.468-386.246 2.43 2.434-385.465 386.25Zm0 0"/></g></g><g clip-path="url(#aM)"><g clip-path="url(#aN)"><path fill="#76BEF7" d="m1158.86 597.945 385.464-386.25 2.434 2.438-385.469 386.246Zm0 0"/></g></g><g clip-path="url(#aO)"><g clip-path="url(#aP)"><path fill="#76BEF7" d="m1171.535 597.945 385.469-386.25 2.43 2.438-385.465 386.25Zm0 0"/></g></g><g clip-path="url(#aQ)"><g clip-path="url(#aR)"><path fill="#76BEF7" d="m1184.215 597.945 385.465-386.25 2.433 2.438-385.468 386.25Zm0 0"/></g></g><g clip-path="url(#aS)"><g clip-path="url(#aT)"><path fill="#76BEF7" d="M1196.895 597.945 1582.359 211.7l2.43 2.434-385.465 386.25Zm0 0"/></g></g><g clip-path="url(#aU)"><g clip-path="url(#aV)"><path fill="#76BEF7" d="m1209.57 597.95 385.47-386.25 2.429 2.437L1212 600.387Zm0 0"/></g></g><g clip-path="url(#aW)"><g clip-path="url(#aX)"><path fill="#76BEF7" d="m1222.25 597.95 385.465-386.25 2.43 2.437-385.465 386.25Zm0 0"/></g></g><g clip-path="url(#aY)"><g clip-path="url(#aZ)"><path fill="#76BEF7" d="m1234.926 597.95 385.469-386.25 2.43 2.437-385.47 386.25Zm0 0"/></g></g><g clip-path="url(#ba)"><g clip-path="url(#bb)"><path fill="#76BEF7" d="m1247.605 597.95 385.465-386.247 2.434 2.434-385.469 386.25Zm0 0"/></g></g><g clip-path="url(#bc)"><g clip-path="url(#bd)"><path fill="#76BEF7" d="m1260.3 597.938 385.466-386.25 2.43 2.433-385.466 386.25Zm0 0"/></g></g><g clip-path="url(#be)"><g clip-path="url(#bf)"><path fill="#76BEF7" d="M1272.695 597.945 1658.16 211.7l2.434 2.434-385.469 386.25Zm0 0"/></g></g><g clip-path="url(#bg)"><g clip-path="url(#bh)"><path fill="#76BEF7" d="M1285.375 597.95 1670.84 211.7l2.43 2.437-385.465 386.246Zm0 0"/></g></g><g clip-path="url(#bi)"><g clip-path="url(#bj)"><path fill="#76BEF7" d="m1298.05 597.95 385.47-386.247 2.43 2.434-385.47 386.25Zm0 0"/></g></g><g clip-path="url(#bk)"><g clip-path="url(#bl)"><path fill="#76BEF7" d="m1310.73 597.95 385.465-386.247 2.43 2.434-385.465 386.25Zm0 0"/></g></g><g clip-path="url(#bm)"><g clip-path="url(#bn)"><path fill="#76BEF7" d="m1323.406 597.95 385.469-386.247 2.43 2.434-385.47 386.25Zm0 0"/></g></g><g clip-path="url(#bo)"><g clip-path="url(#bp)"><path fill="#76BEF7" d="m1336.102 597.938 385.468-386.25 2.43 2.433-385.469 386.25Zm0 0"/></g></g><g clip-path="url(#bq)"><g clip-path="url(#br)"><path fill="#76BEF7" d="m1348.781 597.938 385.465-386.25 2.434 2.437-385.47 386.25Zm0 0"/></g></g><g clip-path="url(#bs)"><g clip-path="url(#bt)"><path fill="#76BEF7" d="m1361.457 597.938 385.469-386.25 2.43 2.437-385.47 386.25Zm0 0"/></g></g><g clip-path="url(#bu)"><g clip-path="url(#bv)"><path fill="#76BEF7" d="m1374.137 597.938 385.465-386.25 2.43 2.437-385.466 386.25Zm0 0"/></g></g><g clip-path="url(#bw)"><g clip-path="url(#bx)"><path fill="#76BEF7" d="m1386.813 597.941 385.468-386.25 2.43 2.434-385.465 386.25Zm0 0"/></g></g><g clip-path="url(#by)"><g clip-path="url(#bz)"><path fill="#76BEF7" d="m1399.492 597.941 385.465-386.25 2.434 2.438-385.47 386.25Zm0 0"/></g></g><g clip-path="url(#bA)"><g clip-path="url(#bB)"><path fill="#76BEF7" d="m1412.219 597.945 385.465-386.25 2.433 2.434-385.469 386.25Zm0 0"/></g></g><g clip-path="url(#bC)"><g clip-path="url(#bD)"><path fill="#76BEF7" d="m1424.895 597.945 385.468-386.25 2.43 2.438-385.465 386.25Zm0 0"/></g></g><g clip-path="url(#bE)"><g clip-path="url(#bF)"><path fill="#76BEF7" d="m1437.574 597.95 385.469-386.25 2.43 2.433-385.47 386.25Zm0 0"/></g></g><g clip-path="url(#bG)"><g clip-path="url(#bH)"><path fill="#76BEF7" d="m1450.25 597.95 385.469-386.25 2.43 2.433-385.465 386.25Zm0 0"/></g></g><g clip-path="url(#bI)"><g clip-path="url(#bJ)"><path fill="#76BEF7" d="m1462.93 597.95 385.465-386.25 2.433 2.433-385.469 386.25Zm0 0"/></g></g><g clip-path="url(#bK)"><g clip-path="url(#bL)"><path fill="#76BEF7" d="m1475.61 597.95 385.464-386.25 2.43 2.437-385.465 386.25Zm0 0"/></g></g><g clip-path="url(#bM)"><g clip-path="url(#bN)"><path fill="#76BEF7" d="m1488.285 597.953 385.469-386.25 2.43 2.434-385.465 386.25Zm0 0"/></g></g><g clip-path="url(#bO)"><g clip-path="url(#bP)"><path fill="#76BEF7" d="m1500.965 597.953 385.465-386.25 2.433 2.434-385.468 386.25Zm0 0"/></g></g><g clip-path="url(#bQ)"><g clip-path="url(#bR)"><path fill="#76BEF7" d="m1513.64 597.953 385.47-386.25 2.43 2.434-385.47 386.25Zm0 0"/></g></g><g clip-path="url(#bS)"><g clip-path="url(#bT)"><path fill="#76BEF7" d="m1526.336 597.938 385.469-386.25 2.43 2.437-385.47 386.246Zm0 0"/></g></g><g clip-path="url(#bU)"><g clip-path="url(#bV)"><path fill="#76BEF7" d="m1539.016 597.938 385.464-386.25 2.434 2.437-385.469 386.25Zm0 0"/></g></g><g clip-path="url(#bW)"><g clip-path="url(#bX)"><path fill="#76BEF7" d="M1551.41 597.95 1936.88 211.7l2.43 2.437-385.47 386.25Zm0 0"/></g></g><g clip-path="url(#bY)"><g clip-path="url(#bZ)"><path fill="#76BEF7" d="m1564.09 597.953 385.465-386.25 2.433 2.434-385.468 386.25Zm0 0"/></g></g><g clip-path="url(#ca)"><g clip-path="url(#cb)"><path fill="#76BEF7" d="m1576.766 597.953 385.468-386.25 2.43 2.438L1579.2 600.39Zm0 0"/></g></g><g clip-path="url(#cc)"><g clip-path="url(#cd)"><path fill="#76BEF7" d="m1589.445 597.953 385.465-386.25 2.434 2.438-385.469 386.25Zm0 0"/></g></g><path fill="#76BEF7" d="M1550.227 546.578h-121.715c-7.735 0-13.989-6.293-14.012-14.043v-72.25c0-7.75 6.277-14.015 14.012-14.043h121.715c7.738 0 13.992 6.293 14.015 14.043v72.25c0 7.75-6.277 14.043-14.015 14.043m-121.692-95.406c-5.012 0-9.094 4.066-9.094 9.113v72.25c0 5.024 4.082 9.09 9.094 9.117h121.715c5.016 0 9.098-4.07 9.098-9.117v-72.25c0-5.023-4.082-9.09-9.098-9.113ZM1756.816 546.96H1598.72a2.46 2.46 0 0 1-2.461-2.464V517.06a2.46 2.46 0 0 1 2.46-2.465h158.098a2.46 2.46 0 0 1 2.461 2.465v27.437a2.46 2.46 0 0 1-2.46 2.465m-155.64-4.925h153.183v-22.512h-153.183ZM1756.816 656.89H1598.72a2.46 2.46 0 0 1-2.461-2.464v-27.442a2.456 2.456 0 0 1 2.46-2.46h158.098a2.456 2.456 0 0 1 2.461 2.46v27.442a2.46 2.46 0 0 1-2.46 2.465m-155.64-4.93h153.183v-22.51h-153.183ZM1550.227 672.25h-121.715c-7.735 0-13.989-6.293-14.012-14.043v-72.25c0-7.75 6.277-14.02 14.012-14.043h121.715c7.738 0 13.992 6.293 14.015 14.043v72.25c0 7.75-6.277 14.043-14.015 14.043m-121.692-95.406c-5.012 0-9.094 4.09-9.094 9.113v72.25c0 5.023 4.082 9.113 9.094 9.113h121.715c5.016 0 9.098-4.09 9.098-9.113v-72.25c0-5.023-4.082-9.113-9.098-9.113ZM1756.816 601.914H1598.72a2.46 2.46 0 0 1-2.461-2.465v-27.441a2.456 2.456 0 0 1 2.46-2.461h158.098a2.456 2.456 0 0 1 2.461 2.46v27.442a2.46 2.46 0 0 1-2.46 2.465m-155.64-4.93h153.183v-22.511h-153.183ZM1756.816 491.984H1598.72a2.456 2.456 0 0 1-2.461-2.46v-27.442a2.46 2.46 0 0 1 2.46-2.465h158.098a2.46 2.46 0 0 1 2.461 2.465v27.441a2.456 2.456 0 0 1-2.46 2.461m-155.64-4.925h153.183v-22.512h-153.183Zm0 0"/><g clip-path="url(#ce)"><path fill="#76BEF7" d="m1312.64 764.043 385.465-386.246 2.434 2.433-385.469 386.25Zm0 0"/></g><g clip-path="url(#cf)"><path fill="#76BEF7" d="m1325.316 764.047 385.47-386.25 2.429 2.437L1327.75 766.48Zm0 0"/></g><g clip-path="url(#cg)"><path fill="#76BEF7" d="M1337.996 764.047 1723.465 377.8l2.43 2.433-385.47 386.25Zm0 0"/></g><g clip-path="url(#ch)"><path fill="#76BEF7" d="M1350.676 764.047 1736.14 377.8l2.43 2.433-385.466 386.25Zm0 0"/></g><g clip-path="url(#ci)"><path fill="#76BEF7" d="M1363.352 764.047 1748.82 377.8l2.43 2.433-385.469 386.25Zm0 0"/></g><g fill="#76BEF7" clip-path="url(#cj)"><path d="m1376.047 764.035 385.465-386.25 2.433 2.434-385.468 386.25ZM1388.727 764.035l385.464-386.25 2.434 2.438-385.469 386.25ZM1401.402 764.035l385.465-386.25 2.434 2.434-385.469 386.25ZM1414.082 764.035l385.465-386.25 2.43 2.438-385.465 386.25ZM1426.758 764.04l385.469-386.25 2.43 2.433-385.466 386.25ZM1439.152 764.047l385.47-386.246 2.429 2.433-385.465 386.25ZM1451.832 764.05l385.469-386.25 2.43 2.438-385.47 386.246ZM1464.527 764.035l385.47-386.25 2.429 2.438-385.469 386.25Zm0 0"/></g><g clip-path="url(#ck)"><path fill="#76BEF7" d="m1312.64 873.973 385.465-386.25 2.434 2.437-385.469 386.246Zm0 0"/></g><g clip-path="url(#cl)"><path fill="#76BEF7" d="m1325.316 873.973 385.47-386.246 2.429 2.433-385.465 386.25Zm0 0"/></g><g clip-path="url(#cm)"><path fill="#76BEF7" d="m1337.996 873.977 385.469-386.25 2.43 2.437-385.47 386.246Zm0 0"/></g><g clip-path="url(#cn)"><path fill="#76BEF7" d="m1350.672 873.977 385.469-386.25 2.43 2.437-385.466 386.246Zm0 0"/></g><g clip-path="url(#co)"><path fill="#76BEF7" d="m1363.352 873.977 385.464-386.25 2.434 2.437-385.469 386.246Zm0 0"/></g><g fill="#76BEF7" clip-path="url(#cp)"><path d="m1376.047 873.96 385.465-386.25 2.433 2.438-385.468 386.25ZM1388.723 873.96l385.468-386.245 2.43 2.433-385.465 386.25ZM1401.402 873.96l385.465-386.25 2.434 2.438-385.469 386.25ZM1414.078 873.96l385.469-386.245 2.43 2.433-385.465 386.25ZM1426.758 873.965l385.469-386.25 2.43 2.437-385.47 386.25ZM1439.152 873.977l385.47-386.25 2.429 2.437-385.465 386.246ZM1451.832 873.977l385.465-386.25 2.433 2.437-385.468 386.25ZM1464.527 873.96l385.465-386.245 2.434 2.433-385.469 386.25Zm0 0"/></g><path fill="#76BEF7" d="M1373.313 536.508c0 .98-.786 1.77-1.766 1.77H1118.21a1.74 1.74 0 0 1-1.746-1.747c0-.98.789-1.746 1.746-1.746h253.336a1.71 1.71 0 0 1 1.765 1.723M1359.8 501.844c0 .98-.788 1.77-1.765 1.77H1102.93c-.98 0-1.766-.79-1.766-1.77 0-.985.785-1.774 1.766-1.774h255.105c.977 0 1.766.79 1.766 1.774M1306.082 492.059h-34.379c-.98 0-1.77-.79-1.77-1.774 0-.98.79-1.77 1.77-1.77h34.379c.98 0 1.766.79 1.766 1.77a1.78 1.78 0 0 1-1.766 1.774M1237.32 492.059h-34.379c-.976 0-1.765-.79-1.765-1.774 0-.98.789-1.77 1.765-1.77h34.38c.98 0 1.769.79 1.769 1.77 0 .985-.79 1.774-1.77 1.774M1168.586 492.059h-34.379c-.98 0-1.77-.79-1.77-1.774 0-.98.79-1.77 1.77-1.77h34.379c.98 0 1.766.79 1.766 1.77 0 .985-.786 1.774-1.766 1.774M1358.035 492.059h-17.574c-.977 0-1.766-.79-1.766-1.774 0-.98.79-1.77 1.766-1.77h17.574c.977 0 1.766.79 1.766 1.77 0 .985-.79 1.774-1.766 1.774M1313.723 515.121h-1.743a3.04 3.04 0 0 0-3.035 3.035v6.965a3.04 3.04 0 0 0 3.035 3.035h1.743a3.037 3.037 0 0 0 3.03-3.035v-6.965a3.037 3.037 0 0 0-3.03-3.035m.43 10c0 .238-.192.43-.43.43h-1.743a.43.43 0 0 1-.43-.43v-6.965c0-.238.192-.43.43-.43h1.743c.238 0 .43.192.43.43ZM1294.383 519.57l-1.266-.265 1.817-8.946a1.293 1.293 0 0 0-1.028-1.53l-2.554-.528a1.284 1.284 0 0 0-1.528 1.031 1.284 1.284 0 0 0 1.028 1.527l1.261.266-1.55 7.68-1.266-.266a1.29 1.29 0 0 0-1.527 1.031 1.29 1.29 0 0 0 1.027 1.532l5.11 1.027a1.29 1.29 0 0 0 1.527-1.027 1.336 1.336 0 0 0-1.051-1.532M1355.242 515.453l-1.719.266c-1.648.261-2.796 1.816-2.53 3.468l1.073 6.864c.262 1.652 1.813 2.8 3.461 2.539l1.72-.266c1.648-.261 2.792-1.816 2.53-3.469l-1.074-6.863a3.027 3.027 0 0 0-3.46-2.539m1.957 9.809c.047.242-.12.457-.36.504l-1.718.261c-.238.051-.453-.117-.5-.359l-1.074-6.863c-.05-.239.117-.457.355-.504l1.72-.262c.237-.047.452.117.503.36ZM1336.953 519.855l-1.265-.308 2.101-8.879a1.32 1.32 0 0 0-.957-1.578l-2.531-.598a1.313 1.313 0 0 0-1.574.957c-.168.696.261 1.41.953 1.578l1.265.313-1.812 7.61-1.266-.313a1.31 1.31 0 0 0-1.574.957c-.168.691.262 1.41.953 1.578l5.063 1.219a1.31 1.31 0 0 0 1.574-.957 1.27 1.27 0 0 0-.93-1.579M1226.816 515.121l-1.671.477c-1.598.453-2.555 2.152-2.075 3.757l1.907 6.672c.457 1.606 2.152 2.563 3.75 2.082l1.671-.476c1.598-.457 2.555-2.156 2.079-3.758l-1.91-6.676c-.454-1.601-2.126-2.535-3.75-2.078m3.176 9.496c.07.238-.07.477-.285.528l-1.672.476a.413.413 0 0 1-.527-.285l-1.91-6.676a.42.42 0 0 1 .289-.527l1.672-.477a.407.407 0 0 1 .523.285ZM1209.125 521.531h-1.312v-9.14a1.31 1.31 0 0 0-1.313-1.313h-2.602c-.718 0-1.316.574-1.316 1.313 0 .718.574 1.316 1.316 1.316h1.313v7.824h-1.313c-.718 0-1.316.574-1.316 1.317 0 .742.574 1.316 1.316 1.316h5.204c.714 0 1.312-.574 1.312-1.316s-.574-1.317-1.289-1.317M1250.715 511.242l-1.719-.215c-1.672-.214-3.176.98-3.39 2.633l-.86 6.914a3.043 3.043 0 0 0 2.629 3.399l1.719.215c1.668.214 3.176-.981 3.39-2.633l.86-6.914a3.043 3.043 0 0 0-2.63-3.399m-.813 9.977a.43.43 0 0 1-.476.383l-1.719-.215a.43.43 0 0 1-.383-.477l.86-6.914a.433.433 0 0 1 .48-.383l1.719.215a.426.426 0 0 1 .379.477ZM1272.918 525.86h-1.313v-9.114c0-.719-.57-1.316-1.312-1.316h-2.602c-.714 0-1.312.574-1.312 1.316 0 .719.57 1.317 1.312 1.317h1.313v7.824h-1.313a1.31 1.31 0 0 0-1.312 1.312c0 .742.57 1.317 1.312 1.317h5.204c.718 0 1.312-.575 1.312-1.317 0-.738-.57-1.34-1.289-1.34M1122.363 524.14l1.672-.456a3.05 3.05 0 0 0 2.125-3.73l-1.84-6.7a3.044 3.044 0 0 0-3.722-2.129l-1.672.453a3.056 3.056 0 0 0-2.125 3.735l1.84 6.695a3.01 3.01 0 0 0 3.722 2.133m-3.078-9.523a.41.41 0 0 1 .309-.527l1.672-.453c.238-.07.476.07.523.312l1.84 6.696a.41.41 0 0 1-.309.527l-1.672.453a.41.41 0 0 1-.527-.309ZM1144.734 526.27l-1.195-.528 3.68-8.351c.285-.668 0-1.434-.668-1.723l-2.39-1.05c-.669-.286-1.43 0-1.72.667-.285.672 0 1.438.668 1.723l1.196.527-3.153 7.153-1.191-.524c-.668-.289-1.434 0-1.719.668-.289.672 0 1.438.668 1.723l4.774 2.105c.668.29 1.433 0 1.718-.668a1.316 1.316 0 0 0-.668-1.722M1164.86 511.102h-1.743a3.04 3.04 0 0 0-3.031 3.039v6.96a3.04 3.04 0 0 0 3.031 3.04h1.742a3.044 3.044 0 0 0 3.036-3.04v-6.96a3.04 3.04 0 0 0-3.036-3.04m.43 10c0 .238-.188.43-.43.43h-1.743a.43.43 0 0 1-.43-.43v-6.961a.43.43 0 0 1 .43-.434h1.742c.243 0 .43.191.43.434ZM1188.785 524.738l-1.265.332-2.34-8.828a1.334 1.334 0 0 0-1.602-.93l-2.504.668a1.335 1.335 0 0 0-.933 1.602 1.333 1.333 0 0 0 1.601.934l1.266-.332 2.004 7.558-1.266.336a1.334 1.334 0 0 0-.93 1.602 1.33 1.33 0 0 0 1.598.933l5.04-1.34a1.34 1.34 0 0 0 .929-1.605c-.192-.691-.906-1.121-1.598-.93M472.297 501.219c0-.98.785-1.77 1.765-1.77h239.825c.98 0 1.742.79 1.742 1.746 0 .98-.79 1.746-1.742 1.746H474.063a1.71 1.71 0 0 1-1.766-1.722M472.297 535.887c0-.98.785-1.774 1.765-1.774H729.79c.977 0 1.766.793 1.766 1.774 0 .98-.79 1.77-1.766 1.77H474.063c-.981 0-1.766-.79-1.766-1.77M526.04 545.668h34.378c.98 0 1.766.793 1.766 1.773s-.786 1.77-1.766 1.77h-34.379c-.98 0-1.77-.79-1.77-1.77s.79-1.773 1.77-1.773M594.773 545.668h34.38c.98 0 1.769.793 1.769 1.773s-.79 1.77-1.77 1.77h-34.379c-.976 0-1.765-.79-1.765-1.77s.789-1.773 1.765-1.773M663.512 545.668h34.379c.976 0 1.765.793 1.765 1.773s-.789 1.77-1.765 1.77h-34.38c-.98 0-1.769-.79-1.769-1.77.024-.98.813-1.773 1.77-1.773M474.063 545.668h17.57c.98 0 1.77.793 1.77 1.773s-.79 1.77-1.77 1.77h-17.57c-.981 0-1.766-.79-1.766-1.77.023-.98.808-1.773 1.765-1.773M669.574 515.285h-1.742a3.04 3.04 0 0 0-3.031 3.04v6.96c0 1.676 1.36 3.04 3.031 3.04h1.742a3.04 3.04 0 0 0 3.031-3.04v-6.96a3.04 3.04 0 0 0-3.03-3.04m.43 10a.43.43 0 0 1-.43.434h-1.742a.43.43 0 0 1-.43-.434v-6.96c0-.24.192-.43.43-.43h1.742c.239 0 .43.19.43.43ZM650.234 519.762l-1.265-.266 1.816-8.945a1.29 1.29 0 0 0-1.027-1.531l-2.555-.528c-.715-.144-1.383.313-1.527 1.031a1.284 1.284 0 0 0 1.027 1.528l1.266.265-1.555 7.68-1.266-.266a1.29 1.29 0 0 0-1.527 1.032 1.295 1.295 0 0 0 1.027 1.531l5.11 1.027a1.287 1.287 0 0 0 1.527-1.027 1.32 1.32 0 0 0-1.05-1.531M711.094 515.621l-1.719.266c-1.648.261-2.793 1.816-2.531 3.468l1.074 6.864c.262 1.652 1.812 2.8 3.46 2.539l1.72-.266c1.648-.262 2.793-1.816 2.53-3.469l-1.073-6.867c-.262-1.648-1.813-2.797-3.461-2.535m1.957 9.809c.047.238-.121.457-.36.504l-1.718.261c-.239.047-.453-.117-.5-.36l-1.075-6.862c-.046-.243.118-.457.36-.504l1.719-.262c.238-.05.453.117.5.36ZM692.805 520.023l-1.266-.308 2.102-8.88a1.314 1.314 0 0 0-.957-1.577l-2.528-.598a1.31 1.31 0 0 0-1.578.957c-.168.695.262 1.41.957 1.578l1.266.313-1.817 7.605-1.265-.308a1.31 1.31 0 0 0-1.574.957c-.168.691.261 1.41.953 1.578l5.062 1.219a1.31 1.31 0 0 0 1.574-.957 1.28 1.28 0 0 0-.93-1.579M582.668 515.313l-1.668.476c-1.602.453-2.555 2.152-2.078 3.758l1.91 6.672c.453 1.605 2.148 2.562 3.746 2.082l1.672-.477c1.602-.457 2.555-2.156 2.078-3.758l-1.91-6.675a2.995 2.995 0 0 0-3.75-2.078m3.176 9.496a.413.413 0 0 1-.285.527l-1.672.476a.407.407 0 0 1-.524-.285l-1.91-6.675a.413.413 0 0 1 .285-.528l1.672-.476a.407.407 0 0 1 .524.285ZM564.977 521.723h-1.313v-9.141c0-.715-.57-1.312-1.312-1.312h-2.602c-.719 0-1.312.574-1.312 1.312 0 .742.57 1.316 1.312 1.316h1.313v7.825h-1.313c-.719 0-1.312.574-1.312 1.316s.57 1.316 1.312 1.316h5.203c.719 0 1.313-.574 1.313-1.316s-.57-1.316-1.29-1.316M606.566 511.434l-1.718-.215c-1.668-.215-3.172.98-3.387 2.633l-.863 6.914a3.043 3.043 0 0 0 2.629 3.398l1.718.215c1.672.215 3.176-.98 3.39-2.633l.86-6.914a3.03 3.03 0 0 0-2.629-3.398m-.808 9.976a.43.43 0 0 1-.48.383l-1.72-.215a.426.426 0 0 1-.378-.476l.86-6.914a.43.43 0 0 1 .476-.383l1.718.215a.43.43 0 0 1 .383.476ZM628.773 526.05h-1.316v-9.136c0-.719-.57-1.316-1.312-1.316h-2.602c-.715 0-1.313.574-1.313 1.316s.575 1.316 1.313 1.316h1.312v7.82h-1.312c-.715 0-1.313.575-1.313 1.317 0 .719.575 1.317 1.313 1.317h5.207c.715 0 1.313-.575 1.313-1.317s-.575-1.316-1.29-1.316M478.215 524.332l1.672-.457a3.05 3.05 0 0 0 2.125-3.73l-1.836-6.7a3.05 3.05 0 0 0-3.727-2.129l-1.672.454a3.06 3.06 0 0 0-2.125 3.734l1.84 6.695c.43 1.606 2.102 2.563 3.723 2.133m-3.078-9.547a.41.41 0 0 1 .308-.527l1.672-.453a.41.41 0 0 1 .528.308l1.835 6.7a.408.408 0 0 1-.308.527l-1.672.453a.405.405 0 0 1-.523-.309ZM500.586 526.434l-1.191-.524 3.675-8.351c.285-.668 0-1.434-.668-1.723l-2.386-1.05c-.672-.29-1.434 0-1.72.667-.288.672 0 1.438.669 1.723l1.191.527-3.148 7.152-1.195-.523c-.668-.289-1.434 0-1.72.668-.288.668 0 1.434.669 1.723l4.773 2.105c.672.285 1.434 0 1.719-.672.289-.644-.024-1.433-.668-1.722M520.715 511.27h-1.742a3.04 3.04 0 0 0-3.035 3.035v6.965a3.04 3.04 0 0 0 3.035 3.035h1.742a3.037 3.037 0 0 0 3.031-3.035v-6.965c0-1.649-1.36-3.035-3.031-3.035m.43 10.023c0 .238-.192.43-.43.43h-1.742a.426.426 0 0 1-.43-.43v-6.961c0-.242.187-.434.43-.434h1.742a.43.43 0 0 1 .43.434ZM544.637 524.93l-1.266.332-2.34-8.828a1.33 1.33 0 0 0-1.597-.93l-2.508.668a1.34 1.34 0 0 0-.934 1.601c.192.696.91 1.102 1.602.934l1.265-.332 2.004 7.559-1.265.336a1.334 1.334 0 0 0-.93 1.601c.168.695.906 1.102 1.598.934l5.039-1.34a1.34 1.34 0 0 0 .93-1.606 1.293 1.293 0 0 0-1.598-.93m0 0"/><path fill="#76BEF7" d="M526.04 471.102c-.622-1.27-1.65-1.77-2.224-1.938a3.88 3.88 0 0 0-2.96.215l-50.567 25.336h-50.207l-57.324-38.305c-4.348 21.844-23.59 38.305-46.653 38.305-23.015 0-42.28-16.461-46.605-38.305l-57.348 38.305h-50.16l-50.59-25.336a3.88 3.88 0 0 0-2.96-.215c-.575.191-1.626.691-2.223 1.938-.93 1.914-.192 4.257 1.719 5.191l51.378 25.766c.551.261 1.149.406 1.72.406h52.288a3.75 3.75 0 0 0 2.125-.649l49.133-32.796 4.918 7.75a52.7 52.7 0 0 0 8.453 10.265l9.215 8.875-101.277 50.742c-1.336.645-2.125 1.985-2.125 3.47v104.71c0 1.055.406 2.012 1.12 2.727l51.38 51.53a3.9 3.9 0 0 0 2.722 1.126c.621 0 1.766-.145 2.723-1.125a3.97 3.97 0 0 0 1.144-2.727c0-.62-.19-1.77-1.144-2.726l-50.281-50.383V552.512l58.734-29.403-9.074 22.203c-3.965 9.735-5.969 20-5.969 30.598 0 40.86 29.844 76.149 69.406 81.985l7.688 1.125v47.39a3.845 3.845 0 0 0 3.844 3.852c2.125 0 3.89-1.723 3.89-3.852v-47.39l7.664-1.125c39.586-5.887 69.453-41.125 69.453-81.985 0-10.597-2.007-20.863-6.02-30.597l-9.07-22.204 58.731 29.403v100.742l-50.277 50.383c-1.48 1.508-1.48 3.972 0 5.43a3.83 3.83 0 0 0 2.718 1.148c.622 0 1.77-.145 2.723-1.149l51.379-51.484a3.93 3.93 0 0 0 1.145-2.727v-104.71c0-1.485-.832-2.801-2.122-3.47l-101.28-50.741 9.218-8.829c3.2-3.109 6.039-6.554 8.402-10.312l4.965-7.75 49.09 32.8c.644.43 1.406.645 2.148.645h52.262c.621 0 1.192-.144 1.719-.406l51.379-25.766c1.265-.62 1.765-1.652 1.933-2.226.336-.598.575-1.723-.07-2.988M389.378 575.859c0 40.696-33.547 75.098-73.25 75.098s-73.227-34.402-73.227-75.098c0-40.476 32.828-73.394 73.227-73.394 40.394 0 73.25 32.918 73.25 73.394m80.957-235.668c-2.125 0-3.844 1.723-3.844 3.899v49.906l-49.156 49.234H371.78l-1.48-7.203a40 40 0 0 0-1.074-4.28l-1.48-5.122 28.222-28.277a3.88 3.88 0 0 0 1.144-2.727v-51.48a3.85 3.85 0 0 0-1.144-2.73l-51.383-51.532a3.88 3.88 0 0 0-2.719-1.121c-.62 0-1.77.14-2.722 1.12a3.893 3.893 0 0 0 0 5.481l50.28 50.383v48.324l-24.78 24.832-6.329-7.488c-2.699-3.18-5.707-6.05-9-8.492l-3.605-2.703v-30.309a3.846 3.846 0 0 0-3.844-3.855 3.846 3.846 0 0 0-3.844 3.855v25.215l-10.793-2.203c-7.257-1.484-14.898-1.484-22.109 0l-10.789 2.203v-25.215a3.846 3.846 0 0 0-3.844-3.855c-2.148 0-3.894 1.722-3.894 3.855v30.309l-3.555 2.703c-3.32 2.441-6.328 5.336-9.027 8.492l-6.301 7.488-24.781-24.832v-48.324l50.23-50.383a3.893 3.893 0 0 0 0-5.48c-1.48-1.48-3.96-1.48-5.418 0l-51.426 51.531a3.86 3.86 0 0 0-1.125 2.73v51.481a3.8 3.8 0 0 0 1.125 2.727l28.22 28.277-1.481 5.121a65 65 0 0 0-1.075 4.281l-1.433 7.203h-45.602l-49.132-49.234V344.09c0-2.152-1.766-3.899-3.891-3.899s-3.844 1.723-3.844 3.899v51.484a3.8 3.8 0 0 0 1.121 2.727l51.426 51.484a3.86 3.86 0 0 0 2.723 1.149h55.414a42 42 0 0 1-.192-3.899c0-26.27 21.32-47.633 47.535-47.633s47.536 21.364 47.536 47.633c0 1.29-.047 2.582-.145 3.899h55.414a3.82 3.82 0 0 0 2.723-1.149l51.379-51.484a3.9 3.9 0 0 0 1.144-2.727V344.09c.074-2.176-1.695-3.899-3.82-3.899m0 0"/><path fill="#76BEF7" d="M333.031 632.059c23.637-7.25 40.875-29.332 40.875-55.36 0-24.617-15.398-45.672-37.078-54.043a1.1 1.1 0 0 0-.406-.144c-6.324-2.39-13.156-3.684-20.293-3.684-31.848 0-57.754 25.957-57.754 57.871 0 26.028 17.238 48.11 40.875 55.36.094.023.191.07.285.093a55.8 55.8 0 0 0 10.84 2.153c.121.027.238.027.336.027h.023c1.766.164 3.579.262 5.395.262a59 59 0 0 0 5.394-.262h.024c.121 0 .242-.027.336-.027a58 58 0 0 0 10.84-2.153 1.2 1.2 0 0 0 .308-.093m-71.05-55.36c0-1.844.093-3.636.261-5.43h39.442c3.988 0 7.21 3.254 7.21 7.223v51.961a55 55 0 0 1-7.21-1.48v-21.555c0-5.984-4.848-10.863-10.84-10.863H287c-.809-3.11-3.629-5.43-6.992-5.43-3.988 0-7.211 3.254-7.211 7.223 0 3.996 3.246 7.226 7.21 7.226 3.364 0 6.184-2.32 6.993-5.43h3.844c3.988 0 7.21 3.254 7.21 7.223v20.406c-20.984-7.367-36.074-27.488-36.074-51.074m21.656 21.7a3.62 3.62 0 0 1-3.606 3.609 3.62 3.62 0 0 1-3.605-3.61 3.62 3.62 0 0 1 3.605-3.613 3.62 3.62 0 0 1 3.606 3.613m28.886 32.437v-52.32c0-5.98-4.847-10.86-10.84-10.86H262.72c4.324-25.62 26.62-45.215 53.41-45.215 6.328 0 12.39 1.098 18.05 3.11v25.836c0 5.98 4.844 10.863 10.84 10.863h3.844c.809 3.11 3.63 5.43 6.992 5.43 3.989 0 7.211-3.254 7.211-7.227 0-3.969-3.246-7.223-7.21-7.223-3.364 0-6.184 2.32-6.993 5.43h-3.843c-3.989 0-7.211-3.254-7.211-7.226v-24.399c19.097 8.395 32.492 27.512 32.492 49.735 0 23.59-15.09 43.683-36.098 51.171V594.88c0-3.992 3.246-7.223 7.211-7.223h3.844c.808 3.11 3.629 5.43 6.992 5.43 3.988 0 7.21-3.254 7.21-7.227 0-3.992-3.245-7.222-7.21-7.222-3.363 0-6.184 2.32-6.992 5.43h-3.844c-5.969 0-10.84 4.855-10.84 10.863v34.21a55.5 55.5 0 0 1-7.21 1.481v-1.531a1.815 1.815 0 1 0-3.63 0v1.914a58 58 0 0 1-3.605.121c-1.195-.168-2.41-.191-3.606-.29m39.727-70.406c0-1.985 1.625-3.614 3.605-3.614 1.985 0 3.606 1.63 3.606 3.614a3.62 3.62 0 0 1-3.606 3.613 3.606 3.606 0 0 1-3.605-3.613m-3.629 25.312c0-1.984 1.625-3.613 3.606-3.613 1.984 0 3.605 1.629 3.605 3.613 0 1.985-1.621 3.613-3.605 3.613a3.61 3.61 0 0 1-3.606-3.613m0 0"/><path fill="#76BEF7" d="M319.758 558.613V607.2a1.815 1.815 0 1 0 3.629 0v-48.586c0-5.98-4.848-10.863-10.84-10.863h-3.844c-.812-3.11-3.629-5.43-6.996-5.43-3.984 0-7.207 3.254-7.207 7.227 0 3.969 3.246 7.223 7.207 7.223 3.367 0 6.184-2.32 6.996-5.43h3.844c3.965.047 7.21 3.277 7.21 7.273m-18.051-5.43c-1.98 0-3.605-1.628-3.605-3.613a3.62 3.62 0 0 1 3.605-3.613 3.62 3.62 0 0 1 3.606 3.613c0 1.985-1.622 3.614-3.606 3.614M320.281 613.398a1.85 1.85 0 0 0-.523 1.29c0 .48.191.933.523 1.292.336.336.813.528 1.293.528.477 0 .93-.192 1.29-.528.331-.335.523-.789.523-1.293a1.9 1.9 0 0 0-.524-1.289c-.718-.671-1.91-.671-2.582 0M320.281 620.645a1.87 1.87 0 0 0-.523 1.293c0 .48.191.933.523 1.292.336.336.813.528 1.293.528.477 0 .93-.192 1.29-.528a1.86 1.86 0 0 0 .523-1.293 1.9 1.9 0 0 0-.524-1.292c-.695-.668-1.91-.668-2.582 0M726.563 515.191c0-36.578 10.386-72.105 30.085-102.703 19.145-29.808 46.125-53.613 78.024-68.828a2.8 2.8 0 0 1 1.074-.238c.977 0 1.91.55 2.313 1.457.312.625.336 1.316.12 1.988a2.62 2.62 0 0 1-1.312 1.457c-31.015 14.809-57.277 37.969-75.922 66.988-19.125 29.758-29.25 64.329-29.25 99.926 0 49.332 19.172 95.719 54.008 130.621 34.809 34.883 81.125 54.118 130.356 54.118 49.254 0 95.574-19.211 130.382-54.118 34.809-34.879 54.004-81.289 54.004-130.62 0-49.352-19.172-95.766-54.004-130.645s-81.129-54.117-130.382-54.117c-18.743 0-37.243 2.8-54.985 8.351a2.2 2.2 0 0 1-.761.121 2.52 2.52 0 0 1-2.438-1.797 2.584 2.584 0 0 1 1.672-3.23c18.219-5.715 37.246-8.563 56.535-8.563 50.617 0 98.223 19.735 134.012 55.598 35.765 35.887 55.484 83.566 55.484 134.281 0 50.719-19.695 98.375-55.484 134.258-35.813 35.84-83.395 55.598-134.012 55.598-50.613 0-98.172-19.735-133.984-55.598-35.813-35.906-55.535-83.586-55.535-134.305m0 0"/><path fill="#76BEF7" d="M773.86 515.191c0-78.566 63.796-142.488 142.175-142.488 22.824 0 45.485 5.527 65.54 16.004 3.222 1.7 6.445 3.52 9.476 5.406 1.312.84 2.195 2.203 2.363 3.758a4.95 4.95 0 0 1-1.457 4.164l-13.297 13.3c-.453.5-1.097.767-1.789.767-.719 0-1.363-.29-1.816-.766a2.503 2.503 0 0 1 0-3.613l10.433-10.48 2.84-2.845-3.437-2.011a151 151 0 0 0-5.707-3.11c-19.336-10.12-41.184-15.453-63.172-15.453-75.586 0-137.067 61.625-137.067 137.367 0 22.297 5.18 43.59 15.399 63.278.98 1.914 2.054 3.828 3.152 5.718l2.008 3.446 25.043-25.098c.5-.453 1.144-.742 1.816-.742.668 0 1.313.289 1.813.742.98 1.031.98 2.656 0 3.637l-25.043 25.098c-.98.957-2.246 1.48-3.582 1.48-.192 0-.406 0-.598-.023a5.13 5.13 0 0 1-3.75-2.368 137 137 0 0 1-5.394-9.5c-10.602-20.43-15.95-42.511-15.95-65.668M1058.258 515.047c0 78.566-63.793 142.488-142.176 142.488-22.824 0-45.48-5.527-65.535-16.004-3.223-1.699-6.445-3.515-9.477-5.406-1.316-.84-2.199-2.203-2.367-3.758a4.96 4.96 0 0 1 1.457-4.16l13.3-13.3c.454-.505 1.099-.766 1.79-.766.715 0 1.36.285 1.816.765a2.505 2.505 0 0 1 0 3.61l-10.433 10.48-2.844 2.848 3.438 2.008a145 145 0 0 0 5.707 3.109c19.34 10.121 41.183 15.457 63.175 15.457 75.586 0 137.067-61.629 137.067-137.371 0-22.297-5.184-43.586-15.403-63.277-.976-1.915-2.05-3.829-3.148-5.72l-2.008-3.44-25.355 25.406c-.5.453-1.145.742-1.813.742s-1.316-.29-1.816-.742c-.977-1.032-.977-2.657 0-3.637l25.355-25.406c.98-.957 2.246-1.485 3.582-1.485.192 0 .407 0 .598.024a5.13 5.13 0 0 1 3.746 2.367c1.91 3.062 3.727 6.27 5.399 9.5 10.574 20.453 15.945 42.535 15.945 65.668m0 0"/></svg>